<svg width="292" height="240" viewBox="0 0 292 240" fill="none" xmlns="http://www.w3.org/2000/svg">
<path d="M145.912 239.6C226.497 239.6 291.824 235.793 291.824 231.097C291.824 226.4 226.497 222.593 145.912 222.593C65.3271 222.593 0 226.4 0 231.097C0 235.793 65.3271 239.6 145.912 239.6Z" fill="#F5F5F5"/>
<path d="M241.933 3.05176e-05H155.318C149.298 3.05176e-05 144.031 4.96661 143.579 10.9867L130.109 218.379C129.733 224.399 134.323 229.366 140.419 229.366H227.033C233.053 229.366 238.32 224.399 238.772 218.379L248.404 69.3064C249.232 69.0054 249.834 68.2529 249.909 67.3499L251.64 40.7109C251.715 39.8079 251.188 39.0554 250.361 38.7544L252.167 10.9867C252.543 4.96661 247.953 3.05176e-05 241.933 3.05176e-05Z" fill="#407BFF"/>
<path d="M136.58 53.6542H138.311C139.365 53.6542 140.343 52.7512 140.418 51.6977L141.171 40.5605C141.246 39.507 140.418 38.604 139.365 38.604H137.634C136.58 38.604 135.602 39.507 135.527 40.5605L134.774 51.6977C134.699 52.8265 135.527 53.6542 136.58 53.6542Z" fill="#407BFF"/>
<path d="M135.301 73.5958H137.032C138.086 73.5958 139.064 72.6928 139.139 71.6393L139.892 60.5021C139.967 59.4486 139.139 58.5455 138.086 58.5455H136.355C135.301 58.5455 134.323 59.4486 134.248 60.5021L133.495 71.6393C133.42 72.6928 134.173 73.5958 135.301 73.5958Z" fill="#407BFF"/>
<path d="M222.442 229.366H135.828C129.808 229.366 125.143 224.399 125.519 218.379L138.989 10.9867C139.365 4.96658 144.633 0 150.728 0H237.342C243.362 0 248.028 4.96658 247.652 10.9867L234.182 218.379C233.73 224.399 228.463 229.366 222.442 229.366Z" fill="#263238"/>
<path opacity="0.2" d="M187.451 215.369C187.15 219.433 183.688 222.744 179.549 222.744C175.486 222.744 172.4 219.433 172.626 215.369C172.927 211.305 176.389 207.994 180.528 207.994C184.591 207.994 187.676 211.305 187.451 215.369Z" fill="white"/>
<path d="M230.269 202.426H131.765C130.335 202.426 129.206 201.222 129.357 199.792L140.87 21.9734C140.945 20.6941 141.999 19.7158 143.278 19.7158H241.707C243.137 19.7158 244.265 20.9198 244.115 22.3496L232.601 200.168C232.601 201.448 231.548 202.426 230.269 202.426Z" fill="white"/>
<path opacity="0.2" d="M211.531 113.629C210.553 128.454 197.76 140.494 182.936 140.494C168.111 140.494 156.823 128.454 157.802 113.629C158.78 98.8049 171.573 86.7647 186.397 86.7647C201.222 86.7647 212.509 98.8049 211.531 113.629Z" fill="#407BFF"/>
<path opacity="0.2" d="M182.033 155.093C159.156 155.093 141.773 136.506 143.278 113.629C144.783 90.753 164.575 72.166 187.451 72.166C210.327 72.166 227.71 90.753 226.205 113.629C224.625 136.506 204.834 155.093 182.033 155.093ZM187.3 72.9185C164.876 72.9185 145.385 91.2045 143.956 113.629C142.526 136.054 159.608 154.34 182.033 154.34C204.458 154.34 223.948 136.054 225.378 113.629C226.807 91.2045 209.801 72.9185 187.3 72.9185Z" fill="#407BFF"/>
<path d="M178.27 126.648L176.012 122.283C171.121 112.802 159.833 104.298 155.92 101.815L159.608 96.2464C164.273 99.1812 173.604 106.405 179.399 114.984C190.16 102.191 205.436 89.0223 225.904 74.7998L229.366 80.0674C207.543 95.2681 191.815 109.114 181.355 122.509L178.27 126.648Z" fill="#407BFF"/>
<path opacity="0.2" d="M172.175 9.78269C172.25 8.12716 173.68 6.77264 175.335 6.77264C176.991 6.77264 178.27 8.12716 178.12 9.78269C178.044 11.4382 176.615 12.7927 174.959 12.7927C173.304 12.7175 172.099 11.4382 172.175 9.78269Z" fill="white"/>
<path opacity="0.2" d="M185.72 6.77264H210.628C212.284 6.77264 213.563 8.12716 213.413 9.78269C213.337 11.4382 211.832 12.7927 210.252 12.7927H185.344C183.688 12.7927 182.409 11.4382 182.56 9.78269C182.635 8.12716 184.065 6.77264 185.72 6.77264Z" fill="white"/>
<path d="M93.0103 62.3833C91.731 63.6626 90.3765 65.0923 89.0972 66.5221C87.8179 67.9519 86.6139 69.4569 85.4099 70.9619C84.2059 72.467 83.0771 73.972 82.0236 75.5523L81.2711 76.7563L80.5186 77.9603C80.2928 78.3366 80.0671 78.7881 79.8413 79.1643L79.2393 80.2931C79.0135 80.6693 78.8631 81.4971 78.7878 82.2496C78.7125 83.0774 78.7125 83.9804 78.7878 84.8834C78.9383 86.6894 79.1641 88.5707 79.5403 90.5272C79.8413 92.4085 80.2928 94.3651 80.7443 96.2463C81.1958 98.1276 81.6473 100.084 82.1741 101.965L79.3898 103.019C77.659 99.3316 76.3045 95.5691 75.1757 91.5808C74.649 89.6242 74.1222 87.5925 73.8212 85.4854C73.6707 84.4319 73.5955 83.3031 73.5955 82.1744C73.5955 80.9703 73.6707 79.7663 74.2727 78.3366C74.4232 77.885 74.5737 77.7345 74.649 77.5088L75.0252 76.8315C75.251 76.38 75.4767 75.8533 75.7025 75.4017L76.455 74.0472L77.2828 72.6927C78.3363 70.8867 79.5403 69.1559 80.7443 67.5756C81.9483 65.9201 83.2276 64.3398 84.5821 62.7596C85.9367 61.1793 87.2912 59.7495 88.8715 58.2445L93.0103 62.3833Z" fill="#B55B52"/>
<path d="M93.3867 53.2779C89.3231 53.4284 85.41 60.201 85.41 60.201L90.8281 71.1877C90.8281 71.1877 98.1275 65.0923 98.2027 59.1475C98.278 55.3096 97.375 53.1274 93.3867 53.2779Z" fill="#407BFF"/>
<path opacity="0.7" d="M93.3867 53.2779C89.3231 53.4284 85.41 60.201 85.41 60.201L90.8281 71.1877C90.8281 71.1877 98.1275 65.0923 98.2027 59.1475C98.278 55.3096 97.375 53.1274 93.3867 53.2779Z" fill="white"/>
<path opacity="0.2" d="M94.3649 61.1792C93.1608 62.9852 92.6341 67.6508 92.4083 69.7578C93.7628 68.4033 95.6441 66.221 96.9234 63.813C96.0956 61.7812 95.1174 60.0504 94.3649 61.1792Z" fill="black"/>
<path d="M81.4217 100.686L86.3883 102.191L83.0772 105.502C83.0772 105.502 79.5404 104.373 79.0137 101.965L81.4217 100.686Z" fill="#B55B52"/>
<path d="M89.3982 105.954L88.5705 109.114L83.0771 105.502L86.3882 102.116L89.3982 105.954Z" fill="#B55B52"/>
<path d="M122.057 40.2595C121.907 40.711 121.982 41.1625 122.283 41.2377C122.584 41.313 122.96 41.0872 123.111 40.6357C123.261 40.1842 123.186 39.7327 122.885 39.6575C122.584 39.507 122.208 39.808 122.057 40.2595Z" fill="#263238"/>
<path d="M122.735 39.6575L123.939 39.7327C123.863 39.7327 123.036 40.3347 122.735 39.6575Z" fill="#263238"/>
<path d="M122.283 40.8615C122.283 40.8615 122.358 43.0437 122.885 44.323C122.133 44.624 121.154 44.022 121.154 44.022L122.283 40.8615Z" fill="#A02724"/>
<path d="M123.487 38.5286C123.412 38.5286 123.261 38.4534 123.261 38.3029C122.96 37.0989 121.982 36.7226 121.982 36.7226C121.832 36.6474 121.756 36.4969 121.832 36.3464C121.907 36.1959 122.057 36.1206 122.208 36.1959C122.283 36.1959 123.487 36.6474 123.863 38.1524C123.939 38.3029 123.788 38.4534 123.638 38.4534C123.562 38.5286 123.562 38.5286 123.487 38.5286Z" fill="#263238"/>
<path d="M106.556 42.1407C106.631 45.6775 106.33 52.0739 103.546 53.8799C103.546 53.8799 103.922 57.5672 110.318 58.7712C117.392 60.1257 114.231 55.9869 114.231 55.9869C110.544 54.3314 111.146 51.5471 112.2 48.9886L106.556 42.1407Z" fill="#B55B52"/>
<path d="M127.475 66.5221C128.077 68.2529 128.83 70.1341 129.582 71.8649C130.335 73.671 131.163 75.4017 131.99 77.1325C132.818 78.8633 133.796 80.5941 134.699 82.2496C135.151 83.0774 135.678 83.9051 136.204 84.6576C136.43 85.0339 136.731 85.4854 137.032 85.8617L137.408 86.4637L137.634 86.7647L137.709 86.9152L137.785 86.9904C138.086 87.4419 138.763 87.9687 139.44 88.4202C140.117 88.947 140.945 89.3985 141.773 89.85C143.429 90.753 145.159 91.5055 146.965 92.3333C148.771 93.0858 150.577 93.8383 152.459 94.5155C154.34 95.1928 156.221 95.8701 158.027 96.4721L157.35 99.3316C153.286 98.6544 149.373 97.7514 145.385 96.5473C143.429 95.9453 141.472 95.2681 139.515 94.365C138.537 93.9135 137.559 93.462 136.581 92.86C135.602 92.258 134.624 91.5807 133.646 90.5272L133.495 90.3015L133.345 90.151L133.119 89.85L132.592 89.248C132.216 88.7965 131.915 88.4202 131.614 87.9687C131.012 87.1409 130.41 86.2379 129.808 85.3349C128.679 83.6041 127.626 81.7981 126.647 79.9168C125.669 78.1108 124.766 76.2295 123.938 74.3482C123.111 72.4669 122.358 70.5857 121.681 68.4786L127.475 66.5221Z" fill="#B55B52"/>
<path d="M157.124 96.3216L161.564 94.5909L161.338 99.7079C161.338 99.7079 157.726 100.686 156.071 98.8802L157.124 96.3216Z" fill="#B55B52"/>
<path d="M164.875 96.3969L166.455 99.6327L161.338 99.7079L161.564 94.5909L164.875 96.3969Z" fill="#B55B52"/>
<path d="M91.2794 224.775L97.149 225.227L98.8798 211.757L93.0102 211.305L91.2794 224.775Z" fill="#B55B52"/>
<path d="M44.699 194.299L48.5368 198.814L59.975 191.514L56.1372 186.924L44.699 194.299Z" fill="#B55B52"/>
<path d="M50.3428 198.287L47.2575 192.342C47.1823 192.116 46.8813 192.041 46.6555 192.116L41.7642 193.847C41.2374 193.998 41.0117 194.675 41.3127 195.202C42.4414 197.234 43.0435 198.212 44.398 200.846C45.2257 202.426 46.2793 204.909 47.4833 207.091C48.612 209.274 50.8696 208.295 50.5686 207.317C49.2893 202.727 50.1171 201.448 50.5686 199.416C50.5686 198.964 50.4933 198.588 50.3428 198.287Z" fill="#263238"/>
<path d="M97.5253 224.399H90.9032C90.6774 224.399 90.4517 224.55 90.4517 224.775L89.5486 229.968C89.4734 230.495 89.9249 231.021 90.4517 231.021C92.7844 230.946 93.838 230.871 96.7728 230.871C98.5788 230.871 102.266 231.021 104.749 231.021C107.157 231.021 107.383 228.613 106.405 228.388C101.815 227.409 100.009 226.055 98.5035 224.7C98.2025 224.55 97.8263 224.399 97.5253 224.399Z" fill="#263238"/>
<path opacity="0.2" d="M98.8803 211.757L97.9021 219.282L92.0325 218.68L93.0107 211.305L98.8803 211.757Z" fill="black"/>
<path opacity="0.2" d="M56.1373 186.999L59.9751 191.514L55.2343 194.524L51.246 190.085L56.1373 186.999Z" fill="black"/>
<path d="M91.7311 89.0975C96.3214 90.0006 105.954 91.8818 115.285 93.6879C126.422 60.8783 123.788 59.8248 123.788 59.8248C123.788 59.8248 121.455 58.4703 118.445 57.3415C118.295 57.2663 118.22 57.2663 118.144 57.191C116.639 56.6643 116.338 56.589 114.306 55.987C110.845 55.1592 107.609 54.482 103.621 53.9552C103.395 53.88 103.094 53.88 102.868 53.88C102.116 53.8047 101.438 53.7295 100.761 53.6542C100.31 53.579 99.8582 53.579 99.4067 53.579C98.8799 53.579 98.3532 53.5037 97.9017 53.5037C95.3431 53.3532 93.4619 53.4284 93.4619 53.4284C94.6659 73.7463 93.6876 79.6159 91.7311 89.0975Z" fill="#407BFF"/>
<path opacity="0.7" d="M91.7311 89.0975C96.3214 90.0006 105.954 91.8818 115.285 93.6879C126.422 60.8783 123.788 59.8248 123.788 59.8248C123.788 59.8248 121.455 58.4703 118.445 57.3415C118.295 57.2663 118.22 57.2663 118.144 57.191C116.639 56.6643 116.338 56.589 114.306 55.987C110.845 55.1592 107.609 54.482 103.621 53.9552C103.395 53.88 103.094 53.88 102.868 53.88C102.116 53.8047 101.438 53.7295 100.761 53.6542C100.31 53.579 99.8582 53.579 99.4067 53.579C98.8799 53.579 98.3532 53.5037 97.9017 53.5037C95.3431 53.3532 93.4619 53.4284 93.4619 53.4284C94.6659 73.7463 93.6876 79.6159 91.7311 89.0975Z" fill="white"/>
<path opacity="0.2" d="M120.402 67.4252L118.295 67.0489C118.295 69.8332 119.348 74.6493 120.402 77.7346C121.305 74.7245 121.982 72.2412 122.509 70.1342L120.402 67.4252Z" fill="black"/>
<path d="M122.96 59.3733C126.422 60.502 128.981 67.3499 129.959 70.3599L123.186 78.3366C123.186 78.3366 116.188 68.4034 117.317 65.2428C118.37 62.0823 121.23 58.8465 122.96 59.3733Z" fill="#407BFF"/>
<path opacity="0.7" d="M122.96 59.3733C126.422 60.502 128.981 67.3499 129.959 70.3599L123.186 78.3366C123.186 78.3366 116.188 68.4034 117.317 65.2428C118.37 62.0823 121.23 58.8465 122.96 59.3733Z" fill="white"/>
<path d="M118.39 35.7637C121.46 36.8049 124.511 35.9899 125.205 33.9433C125.899 31.8967 123.973 29.3935 120.904 28.3523C117.834 27.3111 114.782 28.1261 114.088 30.1727C113.394 32.2193 115.32 34.7224 118.39 35.7637Z" fill="#263238"/>
<path d="M107.534 33.4116C105.954 38.9802 105.201 41.313 107.007 45.226C109.716 51.0204 116.94 51.9234 120.101 46.9568C122.96 42.517 125.068 34.0888 120.477 29.8748C115.887 25.6607 109.114 27.7677 107.534 33.4116Z" fill="#B55B52"/>
<path d="M116.263 26.8647C114.005 28.144 109.189 20.0169 103.244 26.8647C98.9551 31.756 101.664 38.9049 101.664 38.9049C101.664 38.9049 98.2779 32.9601 95.5688 35.8196C92.032 39.5822 95.7193 53.0521 107.383 52.1491C119.047 51.2461 117.918 41.7645 117.918 41.7645C117.918 41.7645 123.412 36.1959 123.111 31.2293C122.96 27.4667 120.025 24.6824 116.263 26.8647Z" fill="#263238"/>
<path d="M117.692 38.2277C117.391 39.2059 117.467 40.41 117.768 41.3882C118.219 42.818 119.348 42.818 119.95 41.8397C120.477 40.9367 120.853 39.1307 120.025 37.9267C119.198 36.7979 118.069 37.0237 117.692 38.2277Z" fill="#B55B52"/>
<path d="M109.039 92.4838C109.039 92.4838 106.555 101.213 103.32 112.726C101.137 120.402 98.7294 129.282 96.4718 137.635C95.1925 142.451 93.9885 147.041 92.935 151.18C86.9902 174.508 57.4917 194.6 57.4917 194.6L51.7726 188.279C51.7726 188.279 71.5637 171.573 77.358 149.825C89.0219 105.577 82.4751 98.1276 91.731 89.0975L109.039 92.4838Z" fill="#263238"/>
<path opacity="0.2" d="M106.48 100.235C105.577 103.621 104.524 107.91 103.32 112.651C101.138 120.327 98.7295 129.206 96.472 137.559C95.4937 126.874 94.9669 107.233 102.793 101.138C104.373 99.9337 105.577 99.7079 106.48 100.235Z" fill="black"/>
<path d="M57.9434 195.503L50.8698 187.601L52.9768 185.494L61.7059 193.697L57.9434 195.503Z" fill="#407BFF"/>
<path opacity="0.7" d="M57.9434 195.503L50.8698 187.601L52.9768 185.494L61.7059 193.697L57.9434 195.503Z" fill="white"/>
<path d="M51.3962 201.448C51.3209 201.448 51.2457 201.448 51.1704 201.372C50.4932 201.147 50.0417 199.792 49.8159 199.04C49.8159 198.964 49.8159 198.964 49.8912 198.889C49.9664 198.889 49.9664 198.814 50.0417 198.889C50.2674 199.04 52.0735 200.093 52.1487 200.846C52.1487 200.996 52.0735 201.147 51.9229 201.297C51.7724 201.372 51.6219 201.448 51.3962 201.448ZM50.1922 199.341C50.4932 200.394 50.8694 201.071 51.2457 201.147C51.3962 201.222 51.5467 201.147 51.6972 201.071C51.7724 200.996 51.7724 200.921 51.7724 200.921C51.8477 200.469 50.9447 199.792 50.1922 199.341Z" fill="#407BFF"/>
<path d="M114.909 93.6878C114.909 93.6878 116.414 140.193 113.103 157.727C109.716 175.937 99.2563 217.401 99.2563 217.401L90.7529 216.272C90.7529 216.272 96.0958 174.357 98.3533 156.297C100.837 136.581 97.6008 90.3015 97.6008 90.3015L114.909 93.6878Z" fill="#263238"/>
<path d="M101.062 217.852L89.022 216.347L89.1725 213.413L102.266 214.015L101.062 217.852Z" fill="#407BFF"/>
<path opacity="0.7" d="M101.062 217.852L89.022 216.347L89.1725 213.413L102.266 214.015L101.062 217.852Z" fill="white"/>
<path d="M51.6972 199.642C51.0199 199.642 50.2674 199.341 49.8912 199.115C49.8159 199.115 49.8159 199.04 49.8159 198.964C49.8159 198.889 49.8159 198.889 49.8912 198.814C49.9664 198.814 51.3962 198.061 52.224 198.362C52.4497 198.438 52.6002 198.588 52.6755 198.814C52.826 199.115 52.6755 199.341 52.525 199.416C52.3745 199.566 52.0735 199.642 51.6972 199.642ZM50.2674 199.04C50.9447 199.341 52.0735 199.491 52.3745 199.265C52.4497 199.19 52.4497 199.19 52.4497 198.964C52.3745 198.814 52.2992 198.739 52.1487 198.663C51.6972 198.513 50.7942 198.814 50.2674 199.04Z" fill="#407BFF"/>
<path d="M99.7076 225.453C99.0304 225.453 98.3531 225.377 97.8264 225.227C97.7511 225.227 97.7511 225.152 97.7511 225.076C97.7511 225.001 97.7511 224.926 97.8264 224.926C98.1274 224.775 100.46 223.571 101.213 224.023C101.363 224.098 101.438 224.249 101.438 224.399C101.438 224.7 101.363 224.926 101.137 225.076C100.836 225.377 100.31 225.453 99.7076 225.453ZM98.2779 225.001C99.5571 225.227 100.535 225.152 100.912 224.851C101.062 224.7 101.062 224.625 101.062 224.399C101.062 224.324 101.062 224.249 100.987 224.249C100.611 224.023 99.2561 224.55 98.2779 225.001Z" fill="#407BFF"/>
<path d="M97.9016 225.227H97.8264C97.7511 225.227 97.7511 225.152 97.7511 225.076C97.7511 225.001 98.0521 222.443 99.4819 222.593C99.8581 222.668 100.009 222.819 100.009 222.969C100.084 223.647 98.6541 224.926 97.9016 225.227ZM99.3314 222.819C98.5036 222.819 98.1274 224.249 98.0521 224.775C98.8046 224.324 99.7829 223.346 99.7076 222.969C99.7076 222.969 99.7076 222.819 99.4066 222.819H99.3314Z" fill="#407BFF"/>
<path d="M91.5806 87.6677L90.1508 89.549C90.0755 89.6995 90.2261 89.9253 90.4518 89.9253L115.134 94.7413C115.36 94.8166 115.51 94.7413 115.586 94.5908L116.112 92.5591C116.188 92.4086 115.962 92.2581 115.736 92.1828L91.8816 87.5925C91.8063 87.5172 91.6558 87.5925 91.5806 87.6677Z" fill="#407BFF"/>
<path d="M94.3648 90.9036L93.7627 90.7531C93.6122 90.7531 93.537 90.6778 93.537 90.6026L94.2895 87.9688C94.2895 87.8935 94.44 87.8183 94.5905 87.8935L95.1925 88.044C95.343 88.044 95.4183 88.1193 95.4183 88.1945L94.6658 90.8283C94.5905 90.9035 94.5153 90.9788 94.3648 90.9036Z" fill="#263238"/>
<path d="M110.468 94.064L109.866 93.9135C109.716 93.9135 109.641 93.8383 109.641 93.763L110.393 91.1293C110.393 91.054 110.544 90.9787 110.694 91.054L111.296 91.2045C111.447 91.2045 111.522 91.2798 111.522 91.355L110.769 93.9888C110.769 94.0641 110.619 94.1393 110.468 94.064Z" fill="#263238"/>
</svg>
