<svg width="230" height="210" viewBox="0 0 230 210" fill="none" xmlns="http://www.w3.org/2000/svg">
<path opacity="0.45" d="M230 176.324C230 180.366 178.511 210 115 210C51.4895 210 0 180.372 0 176.324C0 172.28 51.4895 169 115 169C178.511 169 230 172.28 230 176.324Z" fill="#D4E6FF"/>
<path opacity="0.72" d="M182 175.466C182 177.936 151.78 196 114.5 196C77.2199 196 47 177.93 47 175.466C47 172.996 77.2199 171 114.5 171C151.78 171 182 172.996 182 175.466Z" fill="#BBD4F2"/>
<path d="M56.5718 144H41.4282C38.9871 144 37 142.032 37 139.616V129.384C37 126.968 38.9871 125 41.4282 125H56.5718C59.0129 125 61 126.968 61 129.384V139.616C61 142.038 59.0129 144 56.5718 144ZM41.4282 127.527C40.3931 127.527 39.5523 128.36 39.5523 129.384V139.616C39.5523 140.64 40.3931 141.473 41.4282 141.473H56.5718C57.6069 141.473 58.4477 140.64 58.4477 139.616V129.384C58.4477 128.36 57.6069 127.527 56.5718 127.527H41.4282Z" fill="url(#paint0_linear)"/>
<path d="M77.6593 180H21.3352C17.8358 180 15 177.189 15 173.72V141.28C15 137.811 17.8358 135 21.3352 135H77.6653C81.1648 135 84 137.811 84 141.28V173.72C84 177.189 81.1588 180 77.6593 180Z" fill="url(#paint1_linear)"/>
<path d="M34 135H29V180H34V135Z" fill="url(#paint2_linear)"/>
<path d="M31.6921 161H30.3082C28.4848 161 27 159.521 27 157.691V156.309C27 154.485 28.4789 153 30.3082 153H31.6921C33.5154 153 35 154.479 35 156.309V157.691C34.9939 159.521 33.5154 161 31.6921 161Z" stroke="white" stroke-width="1.4475" stroke-miterlimit="10"/>
<path d="M70 135H65V180H70V135Z" fill="url(#paint3_linear)"/>
<path d="M67.6917 161H66.3083C64.4846 161 63 159.521 63 157.691V156.309C63 154.485 64.4786 153 66.3083 153H67.6917C69.5154 153 71 154.479 71 156.309V157.691C71 159.521 69.5214 161 67.6917 161Z" stroke="white" stroke-width="1.4475" stroke-miterlimit="10"/>
<path d="M173 106H171V121H173V106Z" fill="url(#paint4_linear)"/>
<path d="M188 106H186V121H188V106Z" fill="url(#paint5_linear)"/>
<path d="M189.878 107H169.122C168.499 107 168 106.549 168 106C168 105.445 168.505 105 169.122 105H189.878C190.501 105 191 105.45 191 106C191 106.555 190.501 107 189.878 107Z" fill="url(#paint6_linear)"/>
<path d="M165.5 184C164.676 184 164 183.414 164 182.687V178.313C164 177.591 164.669 177 165.5 177C166.324 177 167 177.585 167 178.313V182.687C167 183.414 166.331 184 165.5 184Z" fill="url(#paint7_linear)"/>
<path d="M193.5 184C192.676 184 192 183.414 192 182.687V178.313C192 177.591 192.669 177 193.5 177C194.324 177 195 177.585 195 178.313V182.687C195 183.414 194.331 184 193.5 184Z" fill="url(#paint8_linear)"/>
<path d="M192 177H167V180H192V177Z" fill="url(#paint9_linear)"/>
<path d="M197.039 119H161.961C160.326 119 159 120.333 159 121.975V176.025C159 177.667 160.326 179 161.961 179H197.039C198.675 179 200 177.667 200 176.025V121.975C200.006 120.333 198.681 119 197.039 119Z" fill="url(#paint10_linear)"/>
<path d="M192.76 126H166.239C165.003 126 164 127 164 128.233V168.768C164 170 165.003 171 166.239 171H192.76C193.996 171 195 170 195 168.768V128.233C195 127 193.996 126 192.76 126Z" fill="url(#paint11_linear)"/>
<path d="M190.196 136H168.803C167.806 136 167 136.731 167 137.637V167.363C167 168.269 167.806 169 168.803 169H190.196C191.194 169 192 168.269 192 167.363V137.637C192.005 136.737 191.194 136 190.196 136Z" fill="url(#paint12_linear)"/>
<path opacity="0.45" d="M170 147V144.273C170 143.019 170.875 142 171.95 142H187.049C188.125 142 189 143.019 189 144.273V147" stroke="black" stroke-width="0.965" stroke-miterlimit="10" stroke-linecap="round" stroke-linejoin="round"/>
<path d="M92.6606 114.949L87 126.211L89.7327 136.504L98.8324 138L107 115.9L102.123 111" fill="url(#paint13_linear)"/>
<path d="M152 86.0144V109.13C152 109.13 151.486 115.603 150.89 123.558C150.812 124.567 150.736 125.598 150.659 126.642C150.588 127.609 150.517 128.583 150.447 129.567C150.369 130.593 150.293 131.625 150.221 132.651C150.151 133.636 150.086 134.615 150.015 135.577C149.944 136.626 149.873 137.657 149.808 138.66C149.737 139.662 149.679 140.642 149.619 141.585C149.548 142.665 149.489 143.696 149.43 144.67C149.389 145.408 149.347 146.118 149.312 146.774C141.602 150.069 126.382 154.642 118.417 154.917C107.517 155.299 103.399 154.366 102.353 152.132C102.341 152.097 102.323 152.062 102.312 152.032C101.632 150.42 102.471 146.979 103.494 143.444C103.505 143.397 103.517 143.356 103.535 143.309C103.824 142.324 104.125 141.333 104.409 140.378C104.557 139.885 104.699 139.404 104.835 138.936C104.959 138.514 105.059 138.015 105.148 137.471C105.29 136.567 105.384 135.518 105.443 134.392C105.496 133.454 105.52 132.457 105.525 131.461C105.531 130.43 105.525 129.38 105.502 128.372C105.49 127.885 105.478 127.398 105.461 126.929C105.443 126.413 105.426 125.915 105.402 125.44C105.342 124.221 105.284 123.148 105.237 122.35C105.177 121.407 105.13 120.844 105.13 120.844C104.563 118.628 103.422 117.15 102.063 116.188C98.3587 113.545 93 114.682 93 114.682C93 114.682 95.1332 109.963 97.957 102.165C100.782 94.3627 102.897 88.8748 110.956 90.1301C114.317 90.6518 117.513 91.2725 120.509 91.6543C124.686 92.176 128.485 92.2169 131.818 90.8337C133.094 90.306 134.334 89.7603 135.593 89.2386C140 87.3977 144.685 85.8325 152 86.0144Z" fill="url(#paint14_linear)"/>
<path d="M106.181 128L105.227 127.598C105.114 124.067 104.912 121.26 104.912 121.26C104.374 118.955 103.291 117.418 102 116.418C103.537 113.252 106.265 107.605 107.976 104C108.251 107.782 106.04 117.131 106.181 128Z" fill="url(#paint15_linear)"/>
<path d="M125.025 97.7919C118.926 96.6067 119.738 93.1506 120.573 91.4286C124.562 91.9534 128.19 91.9946 131.371 90.6033C132.59 90.0726 133.775 89.5247 134.976 89C135.304 93.1507 132.274 99.2002 125.025 97.7919Z" fill="white"/>
<path d="M152 98.2271V109.413C152 109.413 149.947 135.165 149.314 147.079C149.142 150.281 149.077 152.487 149.178 152.915C149.663 154.939 128.771 156.576 117.694 156.963C106.777 157.344 103.31 154.728 102.287 152.44C102.275 152.405 102.257 152.37 102.246 152.34C101.559 150.71 102.423 147.196 103.47 143.612C108.476 143.776 124.285 143.283 126.747 130.653C129.67 115.619 142.917 113.754 146.06 93L152 98.2271Z" fill="url(#paint16_linear)"/>
<path opacity="0.15" d="M149 142.126C148.929 143.131 148.869 144.093 148.811 145L103 143.858C103.012 143.814 103.024 143.776 103.041 143.732C103.33 142.815 103.63 141.891 103.914 141L149 142.126Z" fill="white"/>
<path opacity="0.15" d="M150 136.114C149.928 137.096 149.858 138.062 149.792 139L105 137.881C105.142 137.036 105.236 136.054 105.296 135L150 136.114Z" fill="white"/>
<path d="M136.319 89.2851C134.229 106.306 142.858 141.854 149.226 139.925C150.682 138.665 150.112 135.954 147.274 131.031C144.436 126.109 138.679 98.4723 139.433 88.139C137.418 87.4973 136.319 89.2851 136.319 89.2851Z" fill="url(#paint17_linear)"/>
<path opacity="0.15" d="M150 130.121C149.923 131.079 149.847 132.042 149.775 133L105.023 131.883C105.029 130.921 105.023 129.941 105 129L150 130.121Z" fill="white"/>
<path opacity="0.15" d="M150 124.134C149.924 125.071 149.848 126.03 149.773 127L105.163 125.872C105.105 124.738 105.047 123.741 105 123L150 124.134Z" fill="white"/>
<path d="M118.968 91.4512C115.35 103.119 107.243 140.147 103.642 141.648C100.041 143.15 100.198 139.782 103.642 132.706C107.086 125.63 114.083 91.2976 115.868 90.3562C117.648 89.4139 119.246 90.5379 118.968 91.4512Z" fill="url(#paint18_linear)"/>
<path d="M138 119.87C138 119.87 145.127 89.7675 149.401 86.6909C153.675 83.6153 167.262 89.9633 151.778 123L138 119.87Z" fill="url(#paint19_linear)"/>
<path d="M110 142.303L90.6869 149L78.9058 138.763L78.5712 138.914L72.586 141.535L71.9389 140.952L68.5761 137.901L58 106L67.8068 114.276L78.424 110.98L78.5712 111.125L88.4181 121.018L105.608 116.377L107.324 124.629L107.947 127.628L109.2 136.591L110 142.303Z" fill="url(#paint20_linear)"/>
<path d="M110 142.225L90.3128 149L88 120.695L105.523 116L107.273 124.347L107.908 127.381L109.184 136.447L110 142.225Z" fill="url(#paint21_linear)"/>
<path d="M78 111.147V139.341L72.4402 142L71.839 141.409L68 114.344L77.8641 111L78 111.147Z" fill="url(#paint22_linear)"/>
<path d="M109 137C108.722 136.968 108.432 136.913 108.124 136.869C99.2126 135.687 96.2586 128.087 98.9684 127.881C101.678 127.669 106.882 125.119 107.051 124L107.149 124.168L107.764 127.387L109 137Z" fill="url(#paint23_linear)"/>
<path d="M137.943 120.044L133.197 135.26L111.954 129.138L107.227 124.891L107.952 128.048C107.952 128.048 103.223 129.016 101.918 128.876C100.608 128.73 97.5202 127.727 98.0634 129.772C98.6066 131.817 99.8107 133.215 102.173 134.112C104.534 135.01 108.938 134.829 108.938 134.829L131.644 146.974C136.107 149.362 141.68 147.423 143.641 142.803L152 123.109C152.006 123.109 145.318 119.567 137.943 120.044Z" fill="url(#paint24_linear)"/>
<path d="M62.6972 122C64.481 123.952 70.2977 123.863 70.8153 125.441C71.3339 127.02 70.8152 129.357 68.5611 129.865C66.3069 130.367 62.6972 129.519 62.1488 126.496C61.6128 123.472 62.6972 122 62.6972 122Z" fill="url(#paint25_linear)"/>
<path d="M113.225 65.5827L107.353 61.7006C105.512 60.4894 105.56 57.8013 107.436 56.6493L109.8 55.1965L108.58 53.5793C107.114 51.6383 108.592 48.891 111.039 49.0033L131.169 49.9207C135.296 50.1092 138.362 53.7668 137.779 57.8074L139.518 58.402C141.501 59.0777 142.514 61.2544 141.739 63.1774L135.879 77.7807C135.206 79.451 133.366 80.3564 131.609 79.8681L128.018 78.8685L113.225 65.5827Z" fill="url(#paint26_linear)"/>
<path d="M133 91.3258C133 91.3258 130.539 96 126.389 96C122.234 96 121.873 94.3424 121.873 94.3424L121.462 90.7106L121 86.6575L132.099 78L132.488 83.7936L133 91.3258Z" fill="url(#paint27_linear)"/>
<path d="M133 83.7355C131.365 88.0539 128.167 92.3555 121.483 90.5961L121 86.5795L132.588 78L133 83.7355Z" fill="#F98875"/>
<path d="M111.738 59C116.757 64.9071 129.574 67.8846 135.032 65.1474C135.032 65.1474 134.837 72.4993 135.275 72.8792C135.714 73.2651 137.174 69.0363 137.174 69.0363C137.174 69.0363 141.85 67.1646 141.997 71.6807C142.146 76.1958 135.714 75.3302 135.714 75.3302C135.714 75.3302 129.443 88 121.498 88C113.554 88 111.121 82.3322 111.02 76.8569C110.919 71.3825 111.204 69.136 111.738 59Z" fill="url(#paint28_linear)"/>
<path d="M118.836 71L117.045 76.711C116.843 77.356 117.348 78 118.054 78H120" stroke="#F98875" stroke-width="0.965" stroke-miterlimit="10" stroke-linecap="round" stroke-linejoin="round"/>
<path d="M137.071 73C137.071 73 136.525 70.7553 138.461 70.1198C140.397 69.4843 140.2 71.5628 139.524 71.9922" stroke="#F98875" stroke-width="0.965" stroke-miterlimit="10" stroke-linecap="round" stroke-linejoin="round"/>
<path d="M126 72.9994C126 73.5493 125.55 74 125 74C124.449 74 124 73.5493 124 72.9994C124 72.4496 124.449 72 125 72C125.55 72 126 72.4496 126 72.9994Z" fill="#391051"/>
<path d="M115 72.9994C115 73.5493 114.55 74 114 74C113.449 74 113 73.5493 113 72.9994C113 72.4496 113.449 72 114 72C114.55 72 115 72.4496 115 72.9994Z" fill="#391051"/>
<path d="M123 69.716C123 69.716 125.5 67.9298 128 70" stroke="#391051" stroke-width="0.965" stroke-miterlimit="10" stroke-linecap="round" stroke-linejoin="round"/>
<path d="M111 69.716C111 69.716 113.5 67.9298 116 70" stroke="#391051" stroke-width="0.965" stroke-miterlimit="10" stroke-linecap="round" stroke-linejoin="round"/>
<path d="M123.984 80C124.138 81.4823 123.143 82.819 121.764 82.9834C120.391 83.1477 119.152 82.0742 119 80.5856L123.984 80Z" fill="white"/>
<path d="M60 149.901C60 154.569 63.0754 158.889 67.8504 160.322L125.468 177.625L130.048 179L135 163.853L130.838 162.177L75.3045 139.817C69.2603 137.387 62.3905 140.582 60.4898 146.723C60.1599 147.785 60 148.851 60 149.901Z" fill="url(#paint29_linear)"/>
<path d="M125 177.61L129.805 179L135 163.693L130.634 162L125 177.61Z" fill="url(#paint30_linear)"/>
<path d="M134.92 163.688L143.021 160.324C144.517 159.7 146.226 159.991 147.453 161.074L171.963 182.679C174.265 184.711 172.427 188.565 169.462 187.93L130 179.491L134.92 163.688Z" fill="url(#paint31_linear)"/>
<path d="M169 149.901C169 154.569 165.925 158.889 161.15 160.322L103.532 177.625L98.952 179L94 163.853L98.1615 162.177L153.695 139.817C159.74 137.387 166.609 140.582 168.51 146.723C168.846 147.785 169 148.851 169 149.901Z" fill="url(#paint32_linear)"/>
<path d="M104 177.61L99.1952 179L94 163.693L98.3659 162L104 177.61Z" fill="url(#paint33_linear)"/>
<path d="M94.0805 163.688L85.9791 160.324C84.4826 159.7 82.7741 159.991 81.5468 161.074L57.0364 182.679C54.7357 184.711 56.5733 188.565 59.5382 187.93L99 179.491L94.0805 163.688Z" fill="url(#paint34_linear)"/>
<path d="M71.8266 91.1174C68.5894 91.7765 66.4773 95.0312 67.1129 98.3861C67.1362 98.4915 67.1584 98.5978 67.1816 98.7042C68.3513 103.947 72.9557 104.412 74.5521 106.872C74.6876 107.085 74.9943 107.019 75.0455 106.773C75.6309 103.865 79.7186 101.629 78.8894 96.3204C78.873 96.214 78.8556 96.1026 78.8391 95.9963C78.2025 92.6423 75.063 90.4582 71.8266 91.1174ZM73.4046 99.4336C72.2127 99.6743 71.0536 98.8687 70.8214 97.6327C70.7875 97.4441 70.7701 97.2564 70.7817 97.0678C70.833 96.0495 71.548 95.1545 72.559 94.9489C73.5691 94.7432 74.5569 95.29 74.9778 96.214C75.0513 96.3796 75.1084 96.5612 75.1481 96.7498C75.3755 97.9919 74.5976 99.1868 73.4046 99.4336Z" fill="url(#paint35_linear)"/>
<path d="M75 95C87.4077 57.296 168.097 37.5316 194 79.6629" stroke="#BBD4F2" stroke-width="0.965" stroke-miterlimit="10" stroke-linecap="round" stroke-linejoin="round" stroke-dasharray="2.89 2.89"/>
<path d="M27 79C27.3292 79 27.6586 79 28 79" stroke="#BBD4F2" stroke-width="0.965" stroke-linecap="round" stroke-linejoin="round"/>
<path d="M29 77.0728C46.2817 54.0834 72.7949 70.7601 73 92" stroke="#BBD4F2" stroke-width="0.965" stroke-linecap="round" stroke-linejoin="round" stroke-dasharray="2.85 2.85"/>
<path d="M73 93C73 93.3306 73 93.6623 73 94" stroke="#BBD4F2" stroke-width="0.965" stroke-linecap="round" stroke-linejoin="round"/>
<path d="M51 30C75.8985 32.3702 75.341 93 75.341 93C75.341 93 80.5954 32.0718 161 33.4071" stroke="#BBD4F2" stroke-width="0.965" stroke-miterlimit="10" stroke-linecap="round" stroke-linejoin="round" stroke-dasharray="2.89 2.89"/>
<path d="M216 79.5036C216 79.7196 216 79.9295 215.989 80.1455C215.977 80.6318 215.942 81.113 215.889 81.5871C215.696 83.3347 215.27 85.0107 214.638 86.5782C214.469 87.0041 214.282 87.4187 214.076 87.8273C212.562 90.9141 210.23 93.5023 207.378 95.292C206.933 95.5745 206.477 95.8326 206.009 96.0721C204.623 96.7817 203.139 97.3099 201.578 97.6344C201.303 97.6938 201.028 97.742 200.753 97.784C199.859 97.9283 198.935 98 198 98C197.059 98 196.141 97.9283 195.247 97.784C194.972 97.742 194.697 97.6938 194.422 97.6344C192.861 97.3099 191.371 96.7817 189.991 96.0721C189.523 95.8326 189.067 95.5745 188.622 95.292C185.319 93.2136 182.712 90.0725 181.268 86.3253C181.146 86.0131 181.029 85.6885 180.923 85.365C180.807 85.0046 180.701 84.638 180.602 84.2654C180.561 84.1097 180.52 83.9531 180.491 83.7913C180.169 82.4163 180 80.981 180 79.4974C180 69.2817 188.062 61 198.006 61C207.938 61.0123 216 69.2879 216 79.5036Z" fill="url(#paint36_linear)"/>
<path d="M216 80.0062C215.989 80.4963 215.953 80.9813 215.9 81.459C215.704 83.2203 215.272 84.9094 214.631 86.4891C214.459 86.9183 214.269 87.3362 214.061 87.7479C212.526 90.8588 210.161 93.4672 207.267 95.2708C206.817 95.5556 206.354 95.8156 205.879 96.0581C204.474 96.7721 202.969 97.3045 201.386 97.6316C201.107 97.6914 200.828 97.74 200.549 97.7823C199.642 97.9278 198.706 98 197.757 98C196.802 98 195.872 97.9278 194.965 97.7823C194.686 97.74 194.407 97.6914 194.128 97.6316C192.545 97.3045 191.034 96.7721 189.635 96.0581C189.16 95.8156 188.697 95.5556 188.247 95.2708C184.897 93.1763 182.253 90.0117 180.788 86.2342C180.664 85.9195 180.546 85.5924 180.438 85.2664C180.32 84.9032 180.213 84.5338 180.112 84.1582C180.071 84.0013 180.029 83.8435 180 83.6804H184.843V88.2019H187.422V92.5231H190.683V83.9766H195.842V95.4586H199.357V90.9558H203.941V83.4803H206.307V87.3537H210.641V80H216V80.0062Z" fill="url(#paint37_linear)"/>
<path d="M203 85H193V87H203V85Z" fill="#02419C"/>
<path d="M193 75H190L190.807 68.6149C190.852 68.2649 191.147 68 191.5 68C191.853 68 192.148 68.2649 192.193 68.6149L193 75Z" fill="url(#paint38_linear)"/>
<path d="M193 71H190V79H193V71Z" fill="url(#paint39_linear)"/>
<path d="M194 73H189V83H194V73Z" fill="url(#paint40_linear)"/>
<path d="M194 77H189V88H194V77Z" fill="url(#paint41_linear)"/>
<path d="M195 83V97C194.709 96.9591 194.419 96.9122 194.128 96.8543C192.479 96.538 190.904 96.0232 189.446 95.3317C188.952 95.0982 188.469 94.8467 188 94.5714V83H195Z" fill="url(#paint42_linear)"/>
<path d="M205 75H202L202.807 68.6149C202.852 68.2649 203.147 68 203.5 68C203.853 68 204.148 68.2649 204.193 68.6149L205 75Z" fill="url(#paint43_linear)"/>
<path d="M206 71H202V79H206V71Z" fill="url(#paint44_linear)"/>
<path d="M206 73H201V83H206V73Z" fill="url(#paint45_linear)"/>
<path d="M207 77H201V88H207V77Z" fill="url(#paint46_linear)"/>
<path d="M207 83V94.5714C206.531 94.8467 206.048 95.0982 205.554 95.3317C204.089 96.0232 202.521 96.538 200.872 96.8543C200.581 96.9122 200.291 96.9591 200 97V83H207Z" fill="url(#paint47_linear)"/>
<path d="M218.248 57.5784C215.034 56.103 211.244 57.5481 209.787 60.7997C209.738 60.9045 209.696 61.0082 209.653 61.113C207.532 66.3074 211.263 69.5957 211.178 72.6932C211.171 72.9573 211.475 73.0987 211.669 72.9206C213.917 70.8185 218.819 71.4829 221.279 66.4489C221.328 66.3504 221.382 66.2456 221.424 66.1408C222.889 62.8829 221.462 59.0539 218.248 57.5784ZM214.64 65.643C213.456 65.1023 212.927 63.6887 213.467 62.4899C213.552 62.3055 213.649 62.1399 213.771 61.9859C214.428 61.1496 215.587 60.8363 216.59 61.2974C217.592 61.7585 218.127 62.8462 217.938 63.8972C217.902 64.088 217.847 64.2724 217.762 64.4568C217.221 65.6556 215.824 66.1838 214.64 65.643Z" fill="url(#paint48_linear)"/>
<path d="M70 28C70 28.2102 70 28.4144 69.9881 28.6247C69.9761 29.0989 69.9412 29.5662 69.8885 30.0275C69.6963 31.7281 69.2691 33.3591 68.6378 34.8844C68.4685 35.2988 68.2813 35.7024 68.0772 36.0999C66.3236 39.571 63.4897 42.3934 60.0124 44.124C58.6273 44.8134 57.1426 45.3275 55.5823 45.6434C54.4252 45.8765 53.2333 46 52.0055 46C50.7787 46 49.5868 45.8765 48.4297 45.6434C46.8693 45.3275 45.3786 44.8134 43.9995 44.124C40.0373 42.1543 36.9106 38.7759 35.2686 34.6443C35.1461 34.3404 35.0286 34.0246 34.9241 33.7097C34.8066 33.359 34.702 33.0024 34.6024 32.6397C34.5616 32.4883 34.5208 32.3359 34.4909 32.1784C34.1703 30.8404 34 29.4437 34 28C34 18.059 42.0597 10 52.0005 10C61.9413 10.006 70 18.059 70 28Z" fill="url(#paint49_linear)"/>
<path d="M70 28C69.9879 28.4913 69.9525 28.9754 69.899 29.4532C69.7041 31.215 69.2709 32.9046 68.6306 34.4848C68.4589 34.9141 68.2691 35.3322 68.062 35.744C66.2837 39.3398 63.4096 42.2638 59.8831 44.0565C58.4783 44.7708 56.9726 45.3034 55.3901 45.6305C54.2167 45.8731 53.0078 46 51.7627 46C50.5185 46 49.3097 45.8731 48.1362 45.6305C46.5537 45.3034 45.042 44.7708 43.6433 44.0565C39.625 42.0161 36.454 38.5162 34.7887 34.2361C34.6645 33.9213 34.5453 33.5951 34.4393 33.2679C34.3201 32.9046 34.2141 32.5351 34.1131 32.1594C34.0717 32.0026 34.0303 31.8446 34 31.6816H38.8423V36.2043H41.4206V40.5267H44.6804V31.9778H49.8368V43.4631H53.3512V38.959H57.933V31.4814H60.2981V35.3559H64.6305V28H70Z" fill="url(#paint50_linear)"/>
<path d="M58.0735 39.5056C57.8338 38.8566 57.5891 38.1914 57.3385 37.4952C57.2271 37.1887 57.1167 36.8823 57.0112 36.5759C56.3628 34.7554 55.7034 32.8103 55.0788 30.8421C55.0091 30.6241 54.9385 30.406 54.8749 30.182C54.0454 27.5125 53.3044 24.8189 52.7793 22.3493C52.6858 21.8902 52.5923 21.4421 52.5107 21H51.4714C51.3898 21.4421 51.3023 21.8902 51.2028 22.3493C50.6837 24.8189 49.9367 27.5125 49.1132 30.182C49.0436 30.406 48.973 30.6241 48.9093 30.8421C48.7104 31.473 48.5065 32.0909 48.3076 32.7098C47.87 34.036 47.4204 35.3331 46.9768 36.5759C46.8664 36.8884 46.755 37.1948 46.6506 37.4952C45.6341 40.3063 44.6773 42.7648 44 44.4678C45.3835 45.1631 46.8724 45.6815 48.4249 46C48.7104 44.7913 49.2306 42.5519 49.8253 39.8593C49.8253 39.7407 49.8492 39.6292 49.9019 39.5227C49.9536 39.4172 50.0242 39.3167 50.1177 39.2283C50.981 38.3793 53.5202 38.3321 54.0921 39.5056C54.1687 39.6583 54.2095 39.8291 54.2095 40.024C54.7873 42.6403 55.2946 44.8094 55.5751 46C57.1336 45.6815 58.6165 45.1631 60 44.4678C59.4749 43.1828 58.8085 41.4738 58.0735 39.5056ZM51.8046 30.182C51.8682 29.8404 51.9329 29.4978 51.9915 29.1622C52.0492 29.4978 52.1139 29.8404 52.1726 30.182C52.2133 30.4 52.2541 30.618 52.2949 30.8421C52.651 32.751 53.0538 34.7142 53.4446 36.5759C53.4854 36.7648 53.5262 36.9536 53.561 37.1365L51.6643 37.0361L50.4091 37.1064C50.444 36.9296 50.4847 36.7527 50.5205 36.5759C50.9174 34.7081 51.3142 32.751 51.6703 30.8421C51.723 30.618 51.7697 30.4 51.8046 30.182Z" fill="url(#paint51_linear)"/>
<path d="M57.5316 37H45.4674C45.2096 37 45 36.776 45 36.5006C45 36.2252 45.2096 36 45.4674 36H57.5316C57.7893 36 58 36.2252 58 36.5006C58 36.776 57.7893 37 57.5316 37Z" fill="url(#paint52_linear)"/>
<path d="M51.4077 21L51.0061 18.545C50.994 18.4856 51 18.4194 51.0232 18.361L51.8627 16.1955C51.9684 15.9251 52.3116 15.9386 52.3941 16.2146L52.985 18.1366C53.0021 18.1893 53.0021 18.2421 52.9971 18.2949L52.5713 20.9933H51.4077V21Z" fill="url(#paint53_linear)"/>
<path d="M52.6894 22H51.2897C51.137 22 51 21.5489 51 21.0006C51 20.4441 51.137 20 51.3001 20H52.6998C52.8672 20 52.9999 20.4512 52.9999 21.0006C53.0051 21.556 52.8724 22 52.6894 22Z" fill="url(#paint54_linear)"/>
<path d="M37.522 0.18485C34.3279 1.01383 32.3808 4.39641 33.179 7.73658C33.2021 7.84361 33.2301 7.94967 33.2638 8.05064C34.679 13.2628 39.2825 13.488 40.9977 15.8811C41.1453 16.088 41.4453 16.0113 41.4849 15.7558C41.9267 12.8064 45.8954 10.3488 44.814 5.04772C44.7967 4.94069 44.7687 4.83465 44.7455 4.72762C43.9477 1.39351 40.7151 -0.644134 37.522 0.18485ZM39.4861 8.46559C38.3082 8.77355 37.1197 8.02136 36.8255 6.78849C36.7801 6.59967 36.757 6.40983 36.757 6.22606C36.7628 5.19614 37.4255 4.26009 38.422 4.00564C39.4185 3.74412 40.4257 4.24798 40.8897 5.15471C40.9755 5.3203 41.0373 5.49805 41.0826 5.68182C41.3826 6.91368 40.664 8.15762 39.4861 8.46559Z" fill="url(#paint55_linear)"/>
<path d="M186 27.4976C186 29.3817 185.681 31.1966 185.101 32.884C183.739 36.8441 180.91 40.1151 177.263 42.0635C176.306 42.5736 175.298 42.9907 174.237 43.31C172.735 43.7618 171.147 44 169.5 44C167.407 44 165.407 43.6115 163.563 42.8978C162.804 42.6082 162.067 42.2602 161.366 41.8599C161.267 41.8025 161.169 41.7501 161.077 41.6918C160.897 41.588 160.717 41.4773 160.543 41.3616C157.945 39.6801 155.853 37.2909 154.537 34.4617C153.551 32.3453 153 29.9906 153 27.5035C153 18.3873 160.386 11 169.5 11C178.614 10.9941 186 18.3814 186 27.4976Z" fill="url(#paint56_linear)"/>
<path d="M185 33C183.618 36.9187 180.749 40.1556 177.051 42.0837C176.08 42.5885 175.057 43.0012 173.981 43.3172C172.458 43.7643 170.847 44 169.176 44C167.053 44 165.025 43.6156 163.155 42.9093C162.385 42.6227 161.638 42.2784 160.926 41.8822C160.826 41.8255 160.727 41.7736 160.633 41.7159C160.45 41.6131 160.268 41.5036 160.092 41.3891C157.457 39.7252 155.335 37.3609 154 34.5612C155.181 35.0777 156.14 36.099 156.228 36.1958C156.187 36.1332 155.981 35.697 157.587 35.2382C159.327 34.7383 161.115 38.0838 161.115 38.0838C161.115 38.0838 161.444 37.2347 162.99 37.3325C164.542 37.4245 165.989 40.3444 165.989 40.3444C165.989 40.3444 166.666 38.4565 167.459 38.1073C167.76 38.9329 167.141 40.3161 167.077 40.454C167.141 40.3562 167.641 39.6616 168.447 39.5931C168.565 40.1722 168.094 40.8326 168.041 40.9069C168.147 40.8502 169.652 40.0461 170.958 40.2016C172.31 40.3679 172.628 41.1945 172.628 41.1945C172.628 41.1945 173.911 37.0968 176.504 37.0909C179.097 37.0909 179.39 37.7287 179.39 37.7287C179.39 37.7287 180.46 33.2123 185 33Z" fill="url(#paint57_linear)"/>
<path d="M163 26H161V42H163V26Z" fill="url(#paint58_linear)"/>
<path d="M164 26H161V29H164V26Z" fill="url(#paint59_linear)"/>
<path d="M164 41V43C163.246 42.6982 162.515 42.3368 161.818 41.922H161.53V41.7464C161.351 41.6386 161.173 41.5236 161 41.4035V41H164Z" fill="url(#paint60_linear)"/>
<path d="M163 33H161V41H163V33Z" fill="url(#paint61_linear)"/>
<path d="M177 26H175V42H177V26Z" fill="url(#paint62_linear)"/>
<path d="M177 26H174V29H177V26Z" fill="url(#paint63_linear)"/>
<path d="M177 41V42.4038C176.052 43.057 175.052 43.5911 174 44V41.0076H177V41Z" fill="url(#paint64_linear)"/>
<path d="M177 33H175V41H177V33Z" fill="url(#paint65_linear)"/>
<path d="M182 25.0185C173.801 28.9938 164.198 28.9938 156 25.0185C156.33 24.3476 156.666 23.6767 156.997 23C164.57 26.6712 173.429 26.6712 180.996 23C181.339 23.6709 181.669 24.3476 182 25.0185Z" fill="url(#paint66_linear)"/>
<path d="M191 9.95902V14.0558C191 15.1367 190.032 16.0195 188.841 16.0195H182.005L179.822 18V16.0195H177.166C175.974 16.0195 175 15.1424 175 14.0558V9.95902C175 8.87804 175.968 8 177.166 8H188.841C190.032 8 191 8.87804 191 9.95902Z" fill="url(#paint67_linear)"/>
<path d="M184.699 10.3044C184.904 10.5109 185 10.7773 185 11.0437C185 11.3101 184.904 11.5765 184.699 11.783L182.502 14L180.304 11.783C179.896 11.371 179.902 10.7102 180.304 10.3044C180.502 10.1051 180.772 10.0018 181.036 10.0018C181.301 10.0018 181.565 10.1051 181.769 10.3044L182.502 11.0437L183.234 10.3044C183.643 9.89855 184.297 9.89855 184.699 10.3044Z" fill="white"/>
<path d="M45 85.994C45 86.7178 44.9593 87.4346 44.8838 88.1345C44.6801 89.931 44.231 91.651 43.5604 93.2606C43.3795 93.698 43.1808 94.1295 42.9712 94.5501C39.8396 100.749 33.4143 105 26.003 105C17.9855 105 11.1283 100.037 8.34108 93.01C8.20695 92.6889 8.09031 92.3569 7.97953 92.0248C7.85713 91.651 7.74049 91.2782 7.64133 90.8994C7.22732 89.3365 7 87.6971 7 86C7 75.5034 15.5073 67 26.003 67C36.4933 66.994 45 75.5033 45 85.994Z" fill="url(#paint68_linear)"/>
<path d="M45 88.4083C44.792 90.2544 44.3333 92.0219 43.6483 93.676C43.4636 94.1255 43.2607 94.5689 43.0465 95L31.8381 94.8866L23 94.8028L25.1142 92.6747L25.2215 92.5674L37.7108 80L45 88.4083Z" fill="url(#paint69_linear)"/>
<path d="M38 80L32.0122 95L23 94.9156L38 80Z" fill="url(#paint70_linear)"/>
<path d="M26 93L24.3468 92.9827L13.0688 92.8705L8.35705 92.8254C8.22456 92.5165 8.10943 92.1951 8 91.8747L9.57248 90.3379L17.0777 83L25.0784 91.9649L25.2224 92.1222L26 93Z" fill="url(#paint71_linear)"/>
<path d="M17 83L14.1847 90.0814L13.0254 93L8.35399 92.9543C8.22263 92.6414 8.10849 92.3158 8 91.9911L9.55901 90.4341L17 83Z" fill="url(#paint72_linear)"/>
<path d="M44 93.2101C43.8188 93.6494 43.6196 94.0827 43.4095 94.5051C41.0714 99.155 36.8872 102.71 31.8264 104.215C30.1083 104.725 28.2849 105 26.4031 105C18.3675 105 11.4948 100.016 8.70133 92.9585C8.5669 92.6359 8.44999 92.3025 8.33896 91.969C8.21618 91.5936 8.09938 91.2191 8 90.8387C8.65453 90.651 9.2974 90.4982 9.92852 90.3754C11.4948 90.0709 12.9908 89.971 14.4519 90.007H14.4694C14.5337 90.007 14.6038 90.007 14.6681 90.012C18.4492 90.1358 21.9733 91.1662 25.6667 92.0679C25.7486 92.0858 25.8303 92.1088 25.9122 92.1328C27.5427 92.5311 29.2083 92.8935 30.9498 93.1462C31.5752 93.234 32.2004 93.3039 32.8199 93.3509C36.8812 93.6674 40.7328 93.2161 44 93.2101Z" fill="url(#paint73_linear)"/>
<path d="M31 104.215C29.3415 104.725 27.5813 105 25.7648 105C18.0079 105 11.3736 100.016 8.677 92.9585C8.54723 92.636 8.43439 92.3024 8.32721 91.9689C8.20869 91.5935 8.09593 91.2191 8 90.8387C8.63182 90.651 9.2524 90.4982 9.86163 90.3754C11.3736 90.0708 12.8177 89.971 14.2281 90.007H14.245C20.9019 90.3934 23.4913 93.0343 20.7101 96.496C18.2165 99.6002 28.2018 100.42 31 104.215Z" fill="url(#paint74_linear)"/>
<path opacity="0.25" d="M26 77.9995C26 80.2122 24.2073 82 22 82C19.7927 82 18 80.2075 18 77.9995C18 75.7925 19.7927 74 22 74C24.2073 74 26 75.7868 26 77.9995Z" fill="white"/>
<path opacity="0.45" d="M21.9999 81C23.6568 81 25 79.6561 25 78.0005C25 76.3439 23.6568 75 21.9999 75C20.3432 75 19 76.3439 19 78.0005C19 79.6561 20.3432 81 21.9999 81Z" fill="white"/>
<path d="M24 77.5005C24 78.33 23.3295 79 22.5 79C21.6706 79 21 78.33 21 77.5005C21 76.67 21.6706 76 22.5 76C23.3295 76 24 76.67 24 77.5005Z" fill="#F3FF70"/>
<path d="M14 60.9583V65.0563C14 66.1365 14.9683 67.0202 16.1604 67.0202H22.9924L25.177 69V67.0202H27.8336C29.0257 67.0202 30 66.1421 30 65.0563V60.9583C30 59.8772 29.0317 59 27.8336 59H16.1544C14.9683 59 14 59.8716 14 60.9583Z" fill="url(#paint75_linear)"/>
<path d="M20.3002 61.3044C20.0961 61.51 20 61.7765 20 62.043C20 62.3094 20.0961 62.5759 20.3002 62.7825L22.4981 65L24.6959 62.7825C25.1043 62.3704 25.0984 61.7103 24.6959 61.3044C24.4979 61.1041 24.2276 61.0008 23.9633 61.0008C23.6991 61.0008 23.4349 61.1041 23.2307 61.3044L22.4981 62.043L21.7655 61.3044C21.3572 60.8985 20.7025 60.8985 20.3002 61.3044Z" fill="white"/>
<defs>
<linearGradient id="paint0_linear" x1="39.4832" y1="91.9671" x2="62.1202" y2="195.183" gradientUnits="userSpaceOnUse">
<stop stop-color="#302A7B"/>
<stop offset="0.9944" stop-color="#975189"/>
</linearGradient>
<linearGradient id="paint1_linear" x1="31.897" y1="129.633" x2="101.564" y2="241.892" gradientUnits="userSpaceOnUse">
<stop stop-color="#FFE099"/>
<stop offset="1" stop-color="#F34C70"/>
</linearGradient>
<linearGradient id="paint2_linear" x1="24.8699" y1="98.9347" x2="32.4414" y2="153.296" gradientUnits="userSpaceOnUse">
<stop stop-color="#FFE099"/>
<stop offset="1" stop-color="#F34C70"/>
</linearGradient>
<linearGradient id="paint3_linear" x1="60.3737" y1="94.5274" x2="67.9448" y2="148.888" gradientUnits="userSpaceOnUse">
<stop stop-color="#FFE099"/>
<stop offset="1" stop-color="#F34C70"/>
</linearGradient>
<linearGradient id="paint4_linear" x1="172.304" y1="87.6269" x2="171.768" y2="120.1" gradientUnits="userSpaceOnUse">
<stop stop-color="#B3D3F1"/>
<stop offset="1" stop-color="#2C4CB6"/>
</linearGradient>
<linearGradient id="paint5_linear" x1="187.299" y1="87.8419" x2="186.763" y2="120.316" gradientUnits="userSpaceOnUse">
<stop stop-color="#B3D3F1"/>
<stop offset="1" stop-color="#2C4CB6"/>
</linearGradient>
<linearGradient id="paint6_linear" x1="179.745" y1="90.1575" x2="179.397" y2="118.325" gradientUnits="userSpaceOnUse">
<stop stop-color="#B3D3F1"/>
<stop offset="1" stop-color="#2C4CB6"/>
</linearGradient>
<linearGradient id="paint7_linear" x1="162.331" y1="154.115" x2="166.322" y2="197.402" gradientUnits="userSpaceOnUse">
<stop stop-color="#A2D6E2"/>
<stop offset="1" stop-color="#7B99CB"/>
</linearGradient>
<linearGradient id="paint8_linear" x1="188.956" y1="150.358" x2="192.359" y2="179.77" gradientUnits="userSpaceOnUse">
<stop stop-color="#B3D3F1"/>
<stop offset="1" stop-color="#2C4CB6"/>
</linearGradient>
<linearGradient id="paint9_linear" x1="176.026" y1="151.768" x2="179.943" y2="180.936" gradientUnits="userSpaceOnUse">
<stop stop-color="#B3D3F1"/>
<stop offset="1" stop-color="#2C4CB6"/>
</linearGradient>
<linearGradient id="paint10_linear" x1="166.297" y1="120.279" x2="206.882" y2="207.696" gradientUnits="userSpaceOnUse">
<stop stop-color="#B3D3F1"/>
<stop offset="1" stop-color="#5183E7"/>
</linearGradient>
<linearGradient id="paint11_linear" x1="173.384" y1="94.4536" x2="180.451" y2="157.273" gradientUnits="userSpaceOnUse">
<stop stop-color="#B3D3F1"/>
<stop offset="1" stop-color="#5183E7"/>
</linearGradient>
<linearGradient id="paint12_linear" x1="168.591" y1="87.9357" x2="179.585" y2="152.847" gradientUnits="userSpaceOnUse">
<stop stop-color="#B3D3F1"/>
<stop offset="1" stop-color="#2C4CB6"/>
</linearGradient>
<linearGradient id="paint13_linear" x1="109.378" y1="127.331" x2="160.716" y2="141.672" gradientUnits="userSpaceOnUse">
<stop stop-color="#FFB39F"/>
<stop offset="1" stop-color="#FFDEC5"/>
</linearGradient>
<linearGradient id="paint14_linear" x1="121.48" y1="93.5262" x2="132.447" y2="167.864" gradientUnits="userSpaceOnUse">
<stop stop-color="#4FB2C6"/>
<stop offset="1" stop-color="#02419C"/>
</linearGradient>
<linearGradient id="paint15_linear" x1="109.852" y1="46.4903" x2="96.1488" y2="200.479" gradientUnits="userSpaceOnUse">
<stop stop-color="#4FB2C6"/>
<stop offset="1" stop-color="#02419C"/>
</linearGradient>
<linearGradient id="paint16_linear" x1="40.6914" y1="17.0271" x2="165.83" y2="176.702" gradientUnits="userSpaceOnUse">
<stop stop-color="#4FB2C6"/>
<stop offset="1" stop-color="#02419C"/>
</linearGradient>
<linearGradient id="paint17_linear" x1="140.266" y1="76.6307" x2="146.481" y2="166.161" gradientUnits="userSpaceOnUse">
<stop stop-color="#FFE099"/>
<stop offset="1" stop-color="#F34C70"/>
</linearGradient>
<linearGradient id="paint18_linear" x1="107.382" y1="78.3092" x2="113.329" y2="167.962" gradientUnits="userSpaceOnUse">
<stop stop-color="#FFE099"/>
<stop offset="1" stop-color="#F34C70"/>
</linearGradient>
<linearGradient id="paint19_linear" x1="145.907" y1="89.9522" x2="157.429" y2="165.284" gradientUnits="userSpaceOnUse">
<stop stop-color="#4FB2C6"/>
<stop offset="1" stop-color="#02419C"/>
</linearGradient>
<linearGradient id="paint20_linear" x1="90.8192" y1="282.468" x2="81.723" y2="67.24" gradientUnits="userSpaceOnUse">
<stop stop-color="#63B3BB"/>
<stop offset="1" stop-color="#C7FFE4"/>
</linearGradient>
<linearGradient id="paint21_linear" x1="93.1822" y1="163.904" x2="104.226" y2="100.166" gradientUnits="userSpaceOnUse">
<stop stop-color="#63B3BB"/>
<stop offset="1" stop-color="#C7FFE4"/>
</linearGradient>
<linearGradient id="paint22_linear" x1="68.537" y1="154.213" x2="79.3979" y2="97.2511" gradientUnits="userSpaceOnUse">
<stop stop-color="#63B3BB"/>
<stop offset="1" stop-color="#C7FFE4"/>
</linearGradient>
<linearGradient id="paint23_linear" x1="102.681" y1="155.29" x2="105.499" y2="89.2477" gradientUnits="userSpaceOnUse">
<stop stop-color="#63B3BB"/>
<stop offset="1" stop-color="#C7FFE4"/>
</linearGradient>
<linearGradient id="paint24_linear" x1="184.613" y1="85.0015" x2="114.47" y2="143.186" gradientUnits="userSpaceOnUse">
<stop stop-color="#FFB39F"/>
<stop offset="1" stop-color="#FFDEC5"/>
</linearGradient>
<linearGradient id="paint25_linear" x1="41.7844" y1="126.989" x2="73.9957" y2="125.386" gradientUnits="userSpaceOnUse">
<stop stop-color="#FFB39F"/>
<stop offset="1" stop-color="#FFDEC5"/>
</linearGradient>
<linearGradient id="paint26_linear" x1="120.82" y1="43.2974" x2="126.047" y2="72.3004" gradientUnits="userSpaceOnUse">
<stop stop-color="#5C4070"/>
<stop offset="1" stop-color="#391051"/>
</linearGradient>
<linearGradient id="paint27_linear" x1="125.002" y1="81.2313" x2="142.058" y2="120.584" gradientUnits="userSpaceOnUse">
<stop stop-color="#FFB39F"/>
<stop offset="1" stop-color="#FFDEC5"/>
</linearGradient>
<linearGradient id="paint28_linear" x1="127.55" y1="61.6534" x2="123.046" y2="88.4702" gradientUnits="userSpaceOnUse">
<stop stop-color="#FFB39F"/>
<stop offset="1" stop-color="#FFDEC5"/>
</linearGradient>
<linearGradient id="paint29_linear" x1="88.6017" y1="198.158" x2="112.218" y2="83.1224" gradientUnits="userSpaceOnUse">
<stop stop-color="#302A7B"/>
<stop offset="0.9944" stop-color="#975189"/>
</linearGradient>
<linearGradient id="paint30_linear" x1="93.3667" y1="135.502" x2="114.013" y2="157.623" gradientUnits="userSpaceOnUse">
<stop stop-color="#302A7B"/>
<stop offset="0.9944" stop-color="#975189"/>
</linearGradient>
<linearGradient id="paint31_linear" x1="121.707" y1="87.3351" x2="138.2" y2="136.68" gradientUnits="userSpaceOnUse">
<stop stop-color="#5C4070"/>
<stop offset="1" stop-color="#391051"/>
</linearGradient>
<linearGradient id="paint32_linear" x1="176.959" y1="110.814" x2="83.3763" y2="213.614" gradientUnits="userSpaceOnUse">
<stop stop-color="#302A7B"/>
<stop offset="0.9944" stop-color="#975189"/>
</linearGradient>
<linearGradient id="paint33_linear" x1="135.634" y1="135.502" x2="114.988" y2="157.623" gradientUnits="userSpaceOnUse">
<stop stop-color="#302A7B"/>
<stop offset="0.9944" stop-color="#975189"/>
</linearGradient>
<linearGradient id="paint34_linear" x1="107.293" y1="87.3351" x2="90.8007" y2="136.68" gradientUnits="userSpaceOnUse">
<stop stop-color="#5C4070"/>
<stop offset="1" stop-color="#391051"/>
</linearGradient>
<linearGradient id="paint35_linear" x1="71.3506" y1="92.7848" x2="78.6118" y2="111.321" gradientUnits="userSpaceOnUse">
<stop stop-color="#FF487C"/>
<stop offset="1" stop-color="#FFADAA"/>
</linearGradient>
<linearGradient id="paint36_linear" x1="197.993" y1="79.5087" x2="196.017" y2="21.2147" gradientUnits="userSpaceOnUse">
<stop stop-color="#E5FFFF"/>
<stop offset="1" stop-color="#25DBFF"/>
</linearGradient>
<linearGradient id="paint37_linear" x1="194.955" y1="54.1727" x2="202.562" y2="120.647" gradientUnits="userSpaceOnUse">
<stop stop-color="#E5FFFF"/>
<stop offset="1" stop-color="#5EC0FF"/>
</linearGradient>
<linearGradient id="paint38_linear" x1="191.499" y1="65.8286" x2="191.499" y2="77.6307" gradientUnits="userSpaceOnUse">
<stop stop-color="#4FB2C6"/>
<stop offset="1" stop-color="#02419C"/>
</linearGradient>
<linearGradient id="paint39_linear" x1="191.502" y1="68.5182" x2="191.502" y2="82.0066" gradientUnits="userSpaceOnUse">
<stop stop-color="#4FB2C6"/>
<stop offset="1" stop-color="#02419C"/>
</linearGradient>
<linearGradient id="paint40_linear" x1="191.499" y1="69.898" x2="191.499" y2="86.7579" gradientUnits="userSpaceOnUse">
<stop stop-color="#4FB2C6"/>
<stop offset="1" stop-color="#02419C"/>
</linearGradient>
<linearGradient id="paint41_linear" x1="191.501" y1="73.5829" x2="191.501" y2="92.137" gradientUnits="userSpaceOnUse">
<stop stop-color="#4FB2C6"/>
<stop offset="1" stop-color="#02419C"/>
</linearGradient>
<linearGradient id="paint42_linear" x1="191.497" y1="78.6506" x2="191.497" y2="102.255" gradientUnits="userSpaceOnUse">
<stop stop-color="#4FB2C6"/>
<stop offset="1" stop-color="#02419C"/>
</linearGradient>
<linearGradient id="paint43_linear" x1="203.497" y1="65.8286" x2="203.497" y2="77.6307" gradientUnits="userSpaceOnUse">
<stop stop-color="#4FB2C6"/>
<stop offset="1" stop-color="#02419C"/>
</linearGradient>
<linearGradient id="paint44_linear" x1="204" y1="68.5182" x2="204" y2="82.0066" gradientUnits="userSpaceOnUse">
<stop stop-color="#4FB2C6"/>
<stop offset="1" stop-color="#02419C"/>
</linearGradient>
<linearGradient id="paint45_linear" x1="203.503" y1="69.898" x2="203.503" y2="86.7579" gradientUnits="userSpaceOnUse">
<stop stop-color="#4FB2C6"/>
<stop offset="1" stop-color="#02419C"/>
</linearGradient>
<linearGradient id="paint46_linear" x1="203.999" y1="73.5829" x2="203.999" y2="92.137" gradientUnits="userSpaceOnUse">
<stop stop-color="#4FB2C6"/>
<stop offset="1" stop-color="#02419C"/>
</linearGradient>
<linearGradient id="paint47_linear" x1="203.5" y1="78.6506" x2="203.5" y2="102.255" gradientUnits="userSpaceOnUse">
<stop stop-color="#4FB2C6"/>
<stop offset="1" stop-color="#02419C"/>
</linearGradient>
<linearGradient id="paint48_linear" x1="216.832" y1="58.6997" x2="211.45" y2="78.866" gradientUnits="userSpaceOnUse">
<stop stop-color="#FF487C"/>
<stop offset="1" stop-color="#FFADAA"/>
</linearGradient>
<linearGradient id="paint49_linear" x1="52.0005" y1="28.006" x2="50.1285" y2="-28.7228" gradientUnits="userSpaceOnUse">
<stop stop-color="#E5FFFF"/>
<stop offset="1" stop-color="#25DBFF"/>
</linearGradient>
<linearGradient id="paint50_linear" x1="48.9633" y1="2.16009" x2="56.5782" y2="68.6522" gradientUnits="userSpaceOnUse">
<stop stop-color="#E5FFFF"/>
<stop offset="1" stop-color="#5EC0FF"/>
</linearGradient>
<linearGradient id="paint51_linear" x1="59.258" y1="23.6805" x2="50.0242" y2="46.9371" gradientUnits="userSpaceOnUse">
<stop stop-color="#5C4070"/>
<stop offset="1" stop-color="#391051"/>
</linearGradient>
<linearGradient id="paint52_linear" x1="52.2915" y1="50.6885" x2="50.5685" y2="23.6376" gradientUnits="userSpaceOnUse">
<stop stop-color="#302A7B"/>
<stop offset="0.9944" stop-color="#975189"/>
</linearGradient>
<linearGradient id="paint53_linear" x1="48.4393" y1="0.767909" x2="58.9644" y2="43.1471" gradientUnits="userSpaceOnUse">
<stop stop-color="#5C4070"/>
<stop offset="1" stop-color="#391051"/>
</linearGradient>
<linearGradient id="paint54_linear" x1="55.5877" y1="38.6335" x2="48.8327" y2="20.8007" gradientUnits="userSpaceOnUse">
<stop stop-color="#302A7B"/>
<stop offset="0.9944" stop-color="#975189"/>
</linearGradient>
<linearGradient id="paint55_linear" x1="37.1264" y1="1.89028" x2="45.4159" y2="20.0659" gradientUnits="userSpaceOnUse">
<stop stop-color="#FF487C"/>
<stop offset="1" stop-color="#FFADAA"/>
</linearGradient>
<linearGradient id="paint56_linear" x1="164.632" y1="43.4494" x2="192.708" y2="-48.4778" gradientUnits="userSpaceOnUse">
<stop stop-color="#E5FFFF"/>
<stop offset="1" stop-color="#5EC0FF"/>
</linearGradient>
<linearGradient id="paint57_linear" x1="170.891" y1="47.3337" x2="169.096" y2="28.9476" gradientUnits="userSpaceOnUse">
<stop stop-color="#2CEDB8"/>
<stop offset="1" stop-color="#A9FFB3"/>
</linearGradient>
<linearGradient id="paint58_linear" x1="158.492" y1="45.3746" x2="171.88" y2="1.08244" gradientUnits="userSpaceOnUse">
<stop stop-color="#FF487C"/>
<stop offset="1" stop-color="#FFADAA"/>
</linearGradient>
<linearGradient id="paint59_linear" x1="163.25" y1="24.6526" x2="166.972" y2="14.1451" gradientUnits="userSpaceOnUse">
<stop stop-color="#5C4070"/>
<stop offset="1" stop-color="#391051"/>
</linearGradient>
<linearGradient id="paint60_linear" x1="163.038" y1="40.1622" x2="164.727" y2="34.8735" gradientUnits="userSpaceOnUse">
<stop stop-color="#5C4070"/>
<stop offset="1" stop-color="#391051"/>
</linearGradient>
<linearGradient id="paint61_linear" x1="164.683" y1="81.3632" x2="158.546" y2="26.6764" gradientUnits="userSpaceOnUse">
<stop stop-color="#FF487C"/>
<stop offset="1" stop-color="#FFADAA"/>
</linearGradient>
<linearGradient id="paint62_linear" x1="172.488" y1="45.3756" x2="185.873" y2="1.07366" gradientUnits="userSpaceOnUse">
<stop stop-color="#FF487C"/>
<stop offset="1" stop-color="#FFADAA"/>
</linearGradient>
<linearGradient id="paint63_linear" x1="176.249" y1="24.6526" x2="179.972" y2="14.1451" gradientUnits="userSpaceOnUse">
<stop stop-color="#5C4070"/>
<stop offset="1" stop-color="#391051"/>
</linearGradient>
<linearGradient id="paint64_linear" x1="176.022" y1="39.5051" x2="180.174" y2="28.9811" gradientUnits="userSpaceOnUse">
<stop stop-color="#5C4070"/>
<stop offset="1" stop-color="#391051"/>
</linearGradient>
<linearGradient id="paint65_linear" x1="178.687" y1="81.3632" x2="172.55" y2="26.6764" gradientUnits="userSpaceOnUse">
<stop stop-color="#FF487C"/>
<stop offset="1" stop-color="#FFADAA"/>
</linearGradient>
<linearGradient id="paint66_linear" x1="167.084" y1="31.2304" x2="175.109" y2="4.66659" gradientUnits="userSpaceOnUse">
<stop stop-color="#FF487C"/>
<stop offset="1" stop-color="#FFADAA"/>
</linearGradient>
<linearGradient id="paint67_linear" x1="179.9" y1="9.13428" x2="200.903" y2="32.8156" gradientUnits="userSpaceOnUse">
<stop stop-color="#FF487C"/>
<stop offset="1" stop-color="#FFADAA"/>
</linearGradient>
<linearGradient id="paint68_linear" x1="10.6935" y1="62.0261" x2="97.5538" y2="198.009" gradientUnits="userSpaceOnUse">
<stop stop-color="#E5FFFF"/>
<stop offset="1" stop-color="#25DBFF"/>
</linearGradient>
<linearGradient id="paint69_linear" x1="29.4611" y1="86.1197" x2="51.3923" y2="112.257" gradientUnits="userSpaceOnUse">
<stop stop-color="#FFE099"/>
<stop offset="1" stop-color="#F34C70"/>
</linearGradient>
<linearGradient id="paint70_linear" x1="26.272" y1="79.5368" x2="42.9067" y2="111.074" gradientUnits="userSpaceOnUse">
<stop stop-color="#FFE099"/>
<stop offset="1" stop-color="#F34C70"/>
</linearGradient>
<linearGradient id="paint71_linear" x1="11.7897" y1="86.6013" x2="31.1207" y2="110.33" gradientUnits="userSpaceOnUse">
<stop stop-color="#FFE099"/>
<stop offset="1" stop-color="#F34C70"/>
</linearGradient>
<linearGradient id="paint72_linear" x1="9.72424" y1="82.4237" x2="20.8373" y2="103.408" gradientUnits="userSpaceOnUse">
<stop stop-color="#FFE099"/>
<stop offset="1" stop-color="#F34C70"/>
</linearGradient>
<linearGradient id="paint73_linear" x1="65.2639" y1="85.9592" x2="-16.2527" y2="106.653" gradientUnits="userSpaceOnUse">
<stop stop-color="#FFE099"/>
<stop offset="1" stop-color="#F34C70"/>
</linearGradient>
<linearGradient id="paint74_linear" x1="23.5616" y1="91.938" x2="5.01831" y2="115.599" gradientUnits="userSpaceOnUse">
<stop stop-color="#FFE099"/>
<stop offset="1" stop-color="#F34C70"/>
</linearGradient>
<linearGradient id="paint75_linear" x1="25.1038" y1="60.1306" x2="4.09919" y2="83.8197" gradientUnits="userSpaceOnUse">
<stop stop-color="#FF487C"/>
<stop offset="1" stop-color="#FFADAA"/>
</linearGradient>
</defs>
</svg>
