<svg width="13" height="13" viewBox="0 0 13 13" fill="none" xmlns="http://www.w3.org/2000/svg">
<path d="M2.37472 8H3.62438C3.83204 8 4 7.83171 4 7.62437V6.37472C4 6.16738 3.83204 6 3.62438 6H2.37472C2.16798 6 2 6.16738 2 6.37472V7.62437C2 7.83171 2.16798 8 2.37472 8Z" fill="#009DFF"/>
<path d="M2.37472 11H3.62438C3.83204 11 4 10.8326 4 10.6253V9.37563C4 9.16829 3.83204 9 3.62438 9H2.37472C2.16798 9 2 9.16829 2 9.37563V10.6253C2 10.8326 2.16798 11 2.37472 11Z" fill="#009DFF"/>
<path d="M5.56233 8H7.43767C7.74792 8 8 7.83171 8 7.62437V6.37472C8 6.16738 7.74792 6 7.43767 6H5.56233C5.25208 6 5 6.16738 5 6.37472V7.62437C5 7.83171 5.25208 8 5.56233 8Z" fill="#009DFF"/>
<path d="M5.56233 11H7.43767C7.74792 11 8 10.8326 8 10.6253V9.37563C8 9.16829 7.74792 9 7.43767 9H5.56233C5.25208 9 5 9.16829 5 9.37563V10.6253C5 10.8326 5.25208 11 5.56233 11Z" fill="#009DFF"/>
<path d="M9.37562 8H10.6253C10.832 8 11 7.83171 11 7.62437V6.37472C11 6.16738 10.832 6 10.6253 6H9.37562C9.16796 6 9 6.16738 9 6.37472V7.62437C9 7.83171 9.16796 8 9.37562 8Z" fill="#009DFF"/>
<path d="M11.375 1.62558H10.833V0.541841C10.833 0.2427 10.591 0 10.292 0H9.75C9.451 0 9.20801 0.2427 9.20801 0.541841V1.62558H3.79199V0.541841C3.79199 0.2427 3.549 0 3.25 0H2.70801C2.40901 0 2.16699 0.2427 2.16699 0.541841V1.62558H1.625C0.729 1.62558 0 2.35383 0 3.25025V11.3744C0 12.2708 0.729 13 1.625 13H11.375C12.271 13 13 12.2708 13 11.3744V3.25025C13 2.35383 12.271 1.62558 11.375 1.62558ZM11.917 11.3744C11.917 11.6735 11.673 11.9163 11.375 11.9163H1.625C1.327 11.9163 1.08301 11.6735 1.08301 11.3744V5.4379H11.917V11.3744Z" fill="#009DFF"/>
</svg>
