<svg width="14" height="11" viewBox="0 0 14 11" fill="none" xmlns="http://www.w3.org/2000/svg">
<path d="M12.4969 0H1.50215C1.32207 0 1.15341 0.0440974 1 0.115425L6.97427 6L8.313 4.73204L13 0.115425C12.8466 0.0440974 12.678 0 12.4969 0Z" fill="#009DFF"/>
<path d="M13.8706 1L9 5.49997L13.8706 10C13.9506 9.84349 14 9.67144 14 9.48771V1.51229C14 1.32856 13.9506 1.15651 13.8706 1Z" fill="#009DFF"/>
<path d="M0.129404 1C0.0494378 1.15651 0 1.32856 0 1.51229V9.48771C0 9.67144 0.0494378 9.84349 0.129404 10L5 5.49997L0.129404 1Z" fill="#009DFF"/>
<path d="M8.58933 6L7.2506 7.42152C7.17342 7.50569 7.07431 7.54777 6.97427 7.54777C6.87422 7.54777 6.77419 7.50569 6.69796 7.42152L5.41067 6L1 10.8706C1.15245 10.9506 1.32207 11 1.50215 11H12.4969C12.678 11 12.8466 10.9516 13 10.8706L8.58933 6Z" fill="#009DFF"/>
</svg>
