<svg width="25" height="19" viewBox="0 0 25 19" fill="none" xmlns="http://www.w3.org/2000/svg">
<path d="M4.36231 0.0948486C4.07782 0.0948486 3.88815 0.316125 3.88815 0.569013V4.67844C3.88815 4.80488 3.79332 4.89972 3.66687 4.89972H3.12949C3.00304 4.89972 2.90821 4.80488 2.90821 4.67844V0.569013C2.90821 0.284514 2.68693 0.0948486 2.43404 0.0948486C2.14955 0.0948486 1.95988 0.316125 1.95988 0.569013V4.67844C1.95988 4.80488 1.86505 4.89972 1.7386 4.89972H1.16961C1.04316 4.89972 0.948329 4.80488 0.948329 4.67844V0.569013C0.948329 0.284514 0.727052 0.0948486 0.474165 0.0948486C0.189666 0.0948486 0 0.316125 0 0.569013V5.56355C0 6.41704 0.632219 7.11248 1.4541 7.17571L1.26444 17.1964C1.26444 17.8286 1.77021 18.3344 2.40243 18.3344C3.03465 18.3344 3.54043 17.8286 3.54043 17.1964L3.38237 7.20732C4.20426 7.11248 4.83648 6.41704 4.83648 5.59516V0.569013C4.83648 0.316125 4.6152 0.0948486 4.36231 0.0948486Z" fill="#9E2DFF"/>
<path d="M14.9837 0C9.92595 0 5.81653 4.10943 5.81653 9.16718C5.81653 14.2249 9.92595 18.3344 14.9837 18.3344C20.0415 18.3344 24.1509 14.2249 24.1509 9.16718C24.1509 4.10943 20.0415 0 14.9837 0ZM14.9837 15.1733C11.6646 15.1733 8.97763 12.4863 8.97763 9.16718C8.97763 5.84803 11.6646 3.1611 14.9837 3.1611C18.3029 3.1611 20.9898 5.84803 20.9898 9.16718C20.9898 12.4863 18.3029 15.1733 14.9837 15.1733Z" fill="#9E2DFF"/>
</svg>
