<svg width="8" height="7" viewBox="0 0 8 7" fill="none" xmlns="http://www.w3.org/2000/svg">
<path d="M7.38313 0.618851C7.18765 0.422657 6.95556 0.267022 6.70011 0.160838C6.44466 0.0546534 6.17086 0 5.89435 0C5.61784 0 5.34404 0.0546534 5.08859 0.160838C4.83315 0.267022 4.60105 0.422657 4.40558 0.618851L3.9999 1.02583L3.59422 0.618851C3.19937 0.222739 2.66384 0.000205319 2.10544 0.000205323C1.54704 0.000205327 1.01152 0.222739 0.61667 0.618851C0.221823 1.01496 4.16039e-09 1.55221 0 2.11239C-4.16039e-09 2.67258 0.221823 3.20982 0.61667 3.60594L1.02235 4.01292L3.9999 7L6.97744 4.01292L7.38313 3.60594C7.57869 3.40983 7.73383 3.177 7.83968 2.92073C7.94552 2.66446 8 2.38979 8 2.11239C8 1.835 7.94552 1.56032 7.83968 1.30405C7.73383 1.04779 7.57869 0.814952 7.38313 0.618851Z" fill="#FF443C"/>
</svg>
