<svg width="16" height="14" viewBox="0 0 16 14" fill="none" xmlns="http://www.w3.org/2000/svg">
<path d="M8 4.01413L9.99058 7L10 6.84437C10 5.27489 9.15008 4 8.10375 4L8 4.01413Z" fill="#009DFF"/>
<path d="M7.92402 2.83652C9.94973 2.83652 11.593 4.48258 11.593 6.51048C11.593 6.98406 11.4984 7.4357 11.3331 7.85045L13.4793 10C14.5878 9.07378 15.4612 7.87638 16 6.51048C14.7272 3.28517 11.597 1 7.92402 1C6.89722 1 5.91327 1.18344 5 1.51445L6.5855 3.0977C6.9998 2.93619 7.45095 2.83652 7.92402 2.83652Z" fill="#009DFF"/>
<path d="M0.750152 0.939026L2.46013 2.61902L2.80113 2.95502C1.56343 3.90502 0.585262 5.16902 0 6.63202C1.29775 9.86602 4.49988 12.158 8.24962 12.158C9.412 12.158 10.5225 11.937 11.5383 11.535L11.8579 11.848L14.0432 14L15 13.064L1.70594 0L0.750152 0.939026ZM4.89789 5.01099L6.0562 6.14899C6.02261 6.30699 6.00022 6.46602 6.00022 6.63202C6.00022 7.85102 7.00887 8.84198 8.24962 8.84198C8.41859 8.84198 8.58043 8.81999 8.73718 8.78699L9.89654 9.92499C9.3978 10.168 8.84201 10.316 8.24962 10.316C6.18034 10.316 4.49992 8.66502 4.49992 6.63202C4.49992 6.04902 4.64953 5.50399 4.89789 5.01099Z" fill="#009DFF"/>
</svg>
