<svg width="30" height="31" viewBox="0 0 30 31" fill="none" xmlns="http://www.w3.org/2000/svg">
<path d="M22.2444 7.83162e-08H7.75551C7.48367 -7.47076e-05 7.21449 0.0534123 6.96333 0.157405C6.71217 0.261398 6.48396 0.413858 6.29174 0.606076C6.09953 0.798294 5.94707 1.0265 5.84307 1.27766C5.73908 1.52882 5.68559 1.79801 5.68567 2.06984V29.4953C5.68606 29.6324 5.74071 29.7638 5.83767 29.8607C5.93462 29.9577 6.06601 30.0123 6.20313 30.0127H23.7968C23.9339 30.0123 24.0653 29.9577 24.1623 29.8607C24.2592 29.7638 24.3139 29.6324 24.3143 29.4953V2.06984C24.3143 1.79801 24.2608 1.52882 24.1568 1.27766C24.0529 1.0265 23.9004 0.798294 23.7082 0.606076C23.516 0.413858 23.2878 0.261398 23.0366 0.157405C22.7854 0.0534123 22.5162 -7.47076e-05 22.2444 7.83162e-08ZM12.9301 4.13969C12.9301 3.59073 13.1482 3.06426 13.5364 2.67609C13.9245 2.28791 14.451 2.06984 15 2.06984C15.5489 2.06984 16.0754 2.28791 16.4636 2.67609C16.8517 3.06426 17.0698 3.59073 17.0698 4.13969V5.69207C17.0694 5.82918 17.0148 5.96057 16.9178 6.05753C16.8208 6.15449 16.6895 6.20913 16.5523 6.20953H13.4476C13.3105 6.20913 13.1791 6.15449 13.0821 6.05753C12.9852 5.96057 12.9305 5.82918 12.9301 5.69207V4.13969ZM12.9301 10.3492C12.9301 9.80026 13.1482 9.27378 13.5364 8.88561C13.9245 8.49744 14.451 8.27937 15 8.27937C15.5489 8.27937 16.0754 8.49744 16.4636 8.88561C16.8517 9.27378 17.0698 9.80026 17.0698 10.3492V11.9016C17.0694 12.0387 17.0148 12.1701 16.9178 12.2671C16.8208 12.364 16.6895 12.4187 16.5523 12.4191H13.4476C13.3105 12.4187 13.1791 12.364 13.0821 12.2671C12.9852 12.1701 12.9305 12.0387 12.9301 11.9016V10.3492ZM12.9301 16.5587C12.9301 16.0098 13.1482 15.4833 13.5364 15.0951C13.9245 14.707 14.451 14.4889 15 14.4889C15.5489 14.4889 16.0754 14.707 16.4636 15.0951C16.8517 15.4833 17.0698 16.0098 17.0698 16.5587V18.1111C17.0694 18.2482 17.0148 18.3796 16.9178 18.4766C16.8208 18.5735 16.6895 18.6282 16.5523 18.6286H13.4476C13.3105 18.6282 13.1791 18.5735 13.0821 18.4766C12.9852 18.3796 12.9305 18.2482 12.9301 18.1111V16.5587ZM7.75551 4.13969C7.75551 3.59073 7.97358 3.06426 8.36175 2.67609C8.74993 2.28791 9.2764 2.06984 9.82535 2.06984C10.3743 2.06984 10.9008 2.28791 11.289 2.67609C11.6771 3.06426 11.8952 3.59073 11.8952 4.13969V5.69207C11.8948 5.82918 11.8402 5.96057 11.7432 6.05753C11.6462 6.15449 11.5149 6.20913 11.3777 6.20953H8.27297C8.13585 6.20913 8.00447 6.15449 7.90751 6.05753C7.81055 5.96057 7.75591 5.82918 7.75551 5.69207V4.13969ZM7.75551 10.3492C7.75551 9.80026 7.97358 9.27378 8.36175 8.88561C8.74993 8.49744 9.2764 8.27937 9.82535 8.27937C10.3743 8.27937 10.9008 8.49744 11.289 8.88561C11.6771 9.27378 11.8952 9.80026 11.8952 10.3492V11.9016C11.8948 12.0387 11.8402 12.1701 11.7432 12.2671C11.6462 12.364 11.5149 12.4187 11.3777 12.4191H8.27297C8.13585 12.4187 8.00447 12.364 7.90751 12.2671C7.81055 12.1701 7.75591 12.0387 7.75551 11.9016V10.3492ZM11.3777 18.6286H8.27297C8.13585 18.6282 8.00447 18.5735 7.90751 18.4766C7.81055 18.3796 7.75591 18.2482 7.75551 18.1111V16.5587C7.75551 16.0098 7.97358 15.4833 8.36175 15.0951C8.74993 14.707 9.2764 14.4889 9.82535 14.4889C10.3743 14.4889 10.9008 14.707 11.289 15.0951C11.6771 15.4833 11.8952 16.0098 11.8952 16.5587V18.1111C11.8948 18.2482 11.8402 18.3796 11.7432 18.4766C11.6462 18.5735 11.5149 18.6282 11.3777 18.6286ZM18.1047 28.9778H11.8952V24.8381C11.8952 24.0147 12.2223 23.225 12.8046 22.6427C13.3868 22.0605 14.1765 21.7333 15 21.7333C15.8234 21.7333 16.6131 22.0605 17.1954 22.6427C17.7776 23.225 18.1047 24.0147 18.1047 24.8381V28.9778ZM22.2444 18.1111C22.244 18.2482 22.1894 18.3796 22.0924 18.4766C21.9955 18.5735 21.8641 18.6282 21.7269 18.6286H18.6222C18.4851 18.6282 18.3537 18.5735 18.2567 18.4766C18.1598 18.3796 18.1051 18.2482 18.1047 18.1111V16.5587C18.1047 16.0098 18.3228 15.4833 18.711 15.0951C19.0991 14.707 19.6256 14.4889 20.1746 14.4889C20.7235 14.4889 21.25 14.707 21.6382 15.0951C22.0263 15.4833 22.2444 16.0098 22.2444 16.5587V18.1111ZM22.2444 11.9016C22.244 12.0387 22.1894 12.1701 22.0924 12.2671C21.9955 12.364 21.8641 12.4187 21.7269 12.4191H18.6222C18.4851 12.4187 18.3537 12.364 18.2567 12.2671C18.1598 12.1701 18.1051 12.0387 18.1047 11.9016V10.3492C18.1047 9.80026 18.3228 9.27378 18.711 8.88561C19.0991 8.49744 19.6256 8.27937 20.1746 8.27937C20.7235 8.27937 21.25 8.49744 21.6382 8.88561C22.0263 9.27378 22.2444 9.80026 22.2444 10.3492V11.9016ZM22.2444 5.69207C22.244 5.82918 22.1894 5.96057 22.0924 6.05753C21.9955 6.15449 21.8641 6.20913 21.7269 6.20953H18.6222C18.4851 6.20913 18.3537 6.15449 18.2567 6.05753C18.1598 5.96057 18.1051 5.82918 18.1047 5.69207V4.13969C18.1047 3.59073 18.3228 3.06426 18.711 2.67609C19.0991 2.28791 19.6256 2.06984 20.1746 2.06984C20.7235 2.06984 21.25 2.28791 21.6382 2.67609C22.0263 3.06426 22.2444 3.59073 22.2444 4.13969V5.69207Z" fill="#9E2DFF"/>
<path d="M16.0349 26.3905C16.3207 26.3905 16.5524 26.1588 16.5524 25.8731C16.5524 25.5873 16.3207 25.3556 16.0349 25.3556C15.7491 25.3556 15.5175 25.5873 15.5175 25.8731C15.5175 26.1588 15.7491 26.3905 16.0349 26.3905Z" fill="#9E2DFF"/>
<path d="M27.9365 30.0127C28.2223 30.0127 28.454 29.781 28.454 29.4952C28.454 29.2095 28.2223 28.9778 27.9365 28.9778C27.6507 28.9778 27.4191 29.2095 27.4191 29.4952C27.4191 29.781 27.6507 30.0127 27.9365 30.0127Z" fill="#9E2DFF"/>
<path d="M25.8667 30.0127C26.1525 30.0127 26.3842 29.781 26.3842 29.4952C26.3842 29.2095 26.1525 28.9778 25.8667 28.9778C25.5809 28.9778 25.3492 29.2095 25.3492 29.4952C25.3492 29.781 25.5809 30.0127 25.8667 30.0127Z" fill="#9E2DFF"/>
<path d="M13.9651 26.3905C14.2509 26.3905 14.4826 26.1588 14.4826 25.8731C14.4826 25.5873 14.2509 25.3556 13.9651 25.3556C13.6793 25.3556 13.4476 25.5873 13.4476 25.8731C13.4476 26.1588 13.6793 26.3905 13.9651 26.3905Z" fill="#9E2DFF"/>
<path d="M2.06348 30.0127C2.34927 30.0127 2.58094 29.781 2.58094 29.4952C2.58094 29.2095 2.34927 28.9778 2.06348 28.9778C1.7777 28.9778 1.54602 29.2095 1.54602 29.4952C1.54602 29.781 1.7777 30.0127 2.06348 30.0127Z" fill="#9E2DFF"/>
<path d="M4.13331 30.0127C4.41909 30.0127 4.65077 29.781 4.65077 29.4952C4.65077 29.2095 4.41909 28.9778 4.13331 28.9778C3.84752 28.9778 3.61584 29.2095 3.61584 29.4952C3.61584 29.781 3.84752 30.0127 4.13331 30.0127Z" fill="#9E2DFF"/>
<path d="M29.1231 22.6166C29.2207 22.7109 29.3514 22.7631 29.4871 22.7619C29.6227 22.7607 29.7525 22.7063 29.8485 22.6103C29.9444 22.5144 29.9988 22.3846 30 22.2489C30.0012 22.1133 29.949 21.9825 29.8548 21.8849L28.454 20.4841V18.8428L29.1231 19.5119C29.2207 19.6061 29.3514 19.6583 29.4871 19.6571C29.6227 19.6559 29.7525 19.6015 29.8485 19.5056C29.9444 19.4096 29.9988 19.2798 30 19.1442C30.0012 19.0085 29.949 18.8778 29.8548 18.7802L28.454 17.3794V16.0413C28.454 15.904 28.3995 15.7724 28.3024 15.6754C28.2054 15.5783 28.0738 15.5238 27.9365 15.5238C27.7993 15.5238 27.6677 15.5783 27.5706 15.6754C27.4736 15.7724 27.4191 15.904 27.4191 16.0413V17.3794L26.0183 18.7802C25.924 18.8778 25.8719 19.0085 25.8731 19.1442C25.8742 19.2798 25.9287 19.4096 26.0246 19.5056C26.1205 19.6015 26.2503 19.6559 26.386 19.6571C26.5217 19.6583 26.6524 19.6061 26.75 19.5119L27.4191 18.8428V20.4841L26.0183 21.8849C25.924 21.9825 25.8719 22.1133 25.8731 22.2489C25.8742 22.3846 25.9287 22.5144 26.0246 22.6103C26.1205 22.7063 26.2503 22.7607 26.386 22.7619C26.5217 22.7631 26.6524 22.7109 26.75 22.6166L27.4191 21.9476V23.5889L26.0183 24.9897C25.924 25.0873 25.8719 25.218 25.8731 25.3537C25.8742 25.4894 25.9287 25.6192 26.0246 25.7151C26.1205 25.811 26.2503 25.8655 26.386 25.8666C26.5217 25.8678 26.6524 25.8157 26.75 25.7214L27.4191 25.0524V27.4254C27.4191 27.5626 27.4736 27.6943 27.5706 27.7913C27.6677 27.8883 27.7993 27.9429 27.9365 27.9429C28.0738 27.9429 28.2054 27.8883 28.3024 27.7913C28.3995 27.6943 28.454 27.5626 28.454 27.4254V25.0524L29.1231 25.7214C29.2207 25.8157 29.3514 25.8678 29.4871 25.8666C29.6227 25.8655 29.7525 25.811 29.8485 25.7151C29.9444 25.6192 29.9988 25.4894 30 25.3537C30.0012 25.218 29.949 25.0873 29.8548 24.9897L28.454 23.5889V21.9476L29.1231 22.6166Z" fill="#9E2DFF"/>
<path d="M3.61587 25.873C3.71819 25.873 3.81822 25.8426 3.90329 25.7858C3.98837 25.7289 4.05468 25.6481 4.09383 25.5536C4.13299 25.459 4.14324 25.355 4.12328 25.2546C4.10332 25.1543 4.05406 25.0621 3.98171 24.9897L2.58094 23.5889V21.9476L3.25002 22.6166C3.34762 22.7109 3.47833 22.7631 3.614 22.7619C3.74968 22.7607 3.87947 22.7063 3.97541 22.6103C4.07135 22.5144 4.12577 22.3846 4.12695 22.2489C4.12813 22.1133 4.07597 21.9825 3.98171 21.8849L2.58094 20.4841V18.8428L3.25002 19.5119C3.34762 19.6061 3.47833 19.6583 3.614 19.6571C3.74968 19.6559 3.87947 19.6015 3.97541 19.5056C4.07135 19.4096 4.12577 19.2798 4.12695 19.1442C4.12813 19.0085 4.07597 18.8778 3.98171 18.7802L2.58094 17.3794V16.0413C2.58094 15.904 2.52643 15.7724 2.42938 15.6754C2.33234 15.5783 2.20072 15.5238 2.06348 15.5238C1.92624 15.5238 1.79463 15.5783 1.69758 15.6754C1.60054 15.7724 1.54602 15.904 1.54602 16.0413V17.3794L0.145257 18.7802C0.0509977 18.8778 -0.00115943 19.0085 1.95614e-05 19.1442C0.00119855 19.2798 0.0556193 19.4096 0.151561 19.5056C0.247502 19.6015 0.377288 19.6559 0.512964 19.6571C0.648641 19.6583 0.779352 19.6061 0.876946 19.5119L1.54602 18.8428V20.4841L0.145257 21.8849C0.0509977 21.9825 -0.00115943 22.1133 1.95614e-05 22.2489C0.00119855 22.3846 0.0556193 22.5144 0.151561 22.6103C0.247502 22.7063 0.377288 22.7607 0.512964 22.7619C0.648641 22.7631 0.779352 22.7109 0.876946 22.6166L1.54602 21.9476V23.5889L0.145257 24.9897C0.0509977 25.0873 -0.00115943 25.218 1.95614e-05 25.3537C0.00119855 25.4894 0.0556193 25.6192 0.151561 25.7151C0.247502 25.811 0.377288 25.8655 0.512964 25.8666C0.648641 25.8678 0.779352 25.8157 0.876946 25.7214L1.54602 25.0524V27.4254C1.54602 27.5626 1.60054 27.6943 1.69758 27.7913C1.79463 27.8883 1.92624 27.9429 2.06348 27.9429C2.20072 27.9429 2.33234 27.8883 2.42938 27.7913C2.52643 27.6943 2.58094 27.5626 2.58094 27.4254V25.0524L3.25002 25.7214C3.298 25.7695 3.35503 25.8077 3.41781 25.8337C3.4806 25.8597 3.5479 25.8731 3.61587 25.873Z" fill="#9E2DFF"/>
</svg>
