<svg width="290" height="355" viewBox="0 0 290 355" fill="none" xmlns="http://www.w3.org/2000/svg">
<path d="M265.368 353.883H149.427C140.177 353.883 132.761 346.387 132.761 337.217V16.6655C132.761 7.49549 140.257 0 149.427 0H265.288C274.538 0 281.953 7.49549 281.953 16.6655V337.138C282.033 346.387 274.538 353.883 265.368 353.883Z" fill="#4E3AE7"/>
<path d="M251.971 353.963H138.742C128.774 353.963 120.72 345.909 120.72 335.942V18.1008C120.72 8.13339 128.774 0.0797195 138.742 0.0797195H251.971C261.939 0.0797195 269.992 8.13339 269.992 18.1008V336.021C269.913 345.989 261.859 353.963 251.971 353.963Z" fill="#614CF8"/>
<path d="M247.426 5.82097H227.172C224.461 5.82097 222.228 8.5321 222.228 11.8812V16.2668C222.228 19.6159 219.996 22.327 217.285 22.327L177.734 22.2473C175.023 22.2473 172.79 19.5361 172.79 16.1073V11.7217C172.79 8.37262 170.557 5.58175 167.846 5.58175H160.75H142.968C134.117 5.58175 127.02 14.0341 127.02 24.48L127.179 327.649C127.179 338.095 134.356 346.547 143.127 346.547L247.506 346.706C256.357 346.706 263.454 338.254 263.454 327.808L263.374 24.7192C263.374 14.2733 256.277 5.82097 247.426 5.82097Z" fill="#FAFAFA"/>
<path d="M217.205 253.332L236.901 260.588V257.239L217.205 250.062V253.332Z" fill="#F5F5F5"/>
<path d="M237.379 250.062L217.205 257.877V261.385L237.379 253.013V250.062Z" fill="#EBEBEB"/>
<path d="M237.299 253.332L256.995 260.588V257.239L237.299 250.062V253.332Z" fill="#F5F5F5"/>
<path d="M257.553 250.062L237.299 257.877V261.385L257.553 253.013V250.062Z" fill="#EBEBEB"/>
<path d="M195.197 253.332L214.972 260.588V257.239L195.197 250.062V253.332Z" fill="#F5F5F5"/>
<path d="M215.451 250.062L195.197 257.877V261.385L215.451 253.013V250.062Z" fill="#EBEBEB"/>
<path d="M208.354 214.818L212.819 243.125H255.48V215.535H262.975V212.505L194.719 209.076V212.665L208.354 214.818Z" fill="#EBEBEB"/>
<path d="M146.955 264.176L187.462 248.707H259.786V243.125H186.824L134.196 264.176H146.955Z" fill="#E0E0E0"/>
<path d="M197.191 248.707H194.081V263.379H197.191V248.707Z" fill="#E0E0E0"/>
<path d="M218.082 248.707H214.972V263.379H218.082V248.707Z" fill="#E0E0E0"/>
<path d="M238.894 248.707H235.784V263.379H238.894V248.707Z" fill="#E0E0E0"/>
<path d="M259.307 248.707H256.198V263.379H259.307V248.707Z" fill="#E0E0E0"/>
<path d="M225.578 216.971H213.378V231.483H225.578V216.971Z" fill="#F5F5F5"/>
<path d="M240.011 217.21H227.81V231.722H240.011V217.21Z" fill="#F5F5F5"/>
<path d="M235.784 186.749H233.87V211.07L235.784 211.628V186.749Z" fill="#E0E0E0"/>
<path d="M235.784 186.749C235.784 186.749 240.888 186.111 243.679 189.939C247.347 194.963 254.443 193.208 254.443 193.208V202.538C254.443 202.538 247.666 204.85 242.483 202.538C239.213 201.023 238.655 197.355 235.784 198.471V186.749Z" fill="#EBEBEB"/>
<path d="M193.602 231.483H192.406V244.481H193.602V231.483Z" fill="#E0E0E0"/>
<path d="M174.382 235.753L173.264 236.179L177.893 248.325L179.011 247.899L174.382 235.753Z" fill="#E0E0E0"/>
<path d="M159.388 241.449L158.27 241.875L163.152 254.692L164.27 254.266L159.388 241.449Z" fill="#E0E0E0"/>
<path d="M144.531 247.37L143.413 247.796L148.523 261.208L149.641 260.783L144.531 247.37Z" fill="#E0E0E0"/>
<path d="M205.723 231.483H204.527V244.481H205.723V231.483Z" fill="#E0E0E0"/>
<path d="M217.843 231.483H216.647V244.481H217.843V231.483Z" fill="#E0E0E0"/>
<path d="M229.963 231.483H228.767V244.481H229.963V231.483Z" fill="#E0E0E0"/>
<path d="M242.163 231.483H240.967V244.481H242.163V231.483Z" fill="#E0E0E0"/>
<path d="M129.093 253.651L182.997 232.6H243.28V230.766H182.997L128.296 252.295L129.093 253.651Z" fill="#E0E0E0"/>
<path d="M252.848 217.21H243.28V243.205H252.848V217.21Z" fill="#F5F5F5"/>
<path d="M259.068 265.851C259.068 265.931 241.446 266.09 219.757 266.09C198.068 266.09 180.445 266.01 180.445 265.851C180.445 265.771 198.068 265.612 219.757 265.612C241.525 265.691 259.068 265.771 259.068 265.851Z" fill="#E0E0E0"/>
<path d="M263.135 284.031C263.135 284.031 263.135 284.191 263.135 284.43C263.135 284.59 263.135 284.749 263.055 284.908C263.055 284.988 262.975 285.068 262.975 285.227C262.896 285.307 262.896 285.467 262.816 285.546C262.577 286.025 262.098 286.503 261.46 286.822C260.822 287.221 259.945 287.46 258.988 287.54C258.031 287.62 256.915 287.54 255.799 287.061C254.682 286.663 253.646 285.865 252.529 285.068C251.413 284.271 250.297 283.314 248.941 282.596C248.224 282.277 247.506 281.958 246.708 281.799C246.31 281.719 245.911 281.719 245.512 281.719H244.874L244.237 281.799C242.562 282.118 240.967 283.074 239.452 284.111C237.937 285.227 236.422 286.503 234.668 287.54C233.791 288.018 232.834 288.497 231.797 288.816C230.761 289.055 229.644 289.135 228.528 288.816C226.295 288.258 224.621 286.742 222.787 285.307C221.91 284.59 220.953 283.872 219.996 283.393C219.757 283.234 219.517 283.154 219.198 283.074C218.959 282.995 218.64 282.835 218.401 282.835C218.242 282.835 218.162 282.756 218.002 282.756L217.604 282.676C217.285 282.676 217.045 282.596 216.727 282.596C215.53 282.676 214.414 282.915 213.298 283.393C212.181 283.872 211.145 284.51 210.108 285.227C208.035 286.583 206.041 288.178 203.729 289.294C202.533 289.852 201.257 290.171 199.902 290.171L198.865 290.092C198.546 290.092 198.227 289.932 197.908 289.852C197.589 289.773 197.27 289.613 196.951 289.454C196.632 289.294 196.313 289.135 196.074 288.975C193.762 287.62 192.007 285.626 189.775 284.43C188.658 283.872 187.382 283.553 186.186 283.712C184.99 283.872 183.874 284.43 182.837 285.068C181.801 285.706 180.764 286.424 179.727 287.061C178.611 287.62 177.495 288.098 176.219 288.178C175.023 288.258 173.747 288.018 172.631 287.62C171.514 287.221 170.478 286.663 169.441 286.184C167.448 285.068 165.534 283.952 163.461 283.314C162.424 282.995 161.387 282.835 160.351 282.915C159.314 282.995 158.357 283.234 157.4 283.712C155.566 284.59 154.051 285.786 152.457 286.822C150.942 287.859 149.347 288.895 147.593 289.294L146.955 289.454L146.317 289.533C146.078 289.533 145.918 289.533 145.679 289.533C145.44 289.533 145.28 289.533 145.041 289.454C144.243 289.374 143.446 289.135 142.728 288.816C141.293 288.178 140.097 287.38 138.901 286.583C137.785 285.865 136.748 285.068 135.632 284.59C134.595 284.111 133.558 283.792 132.602 283.712C130.688 283.473 129.173 283.872 128.375 284.51C127.578 285.148 127.339 285.626 127.259 285.626C127.259 285.626 127.339 285.546 127.498 285.307C127.578 285.227 127.658 285.068 127.817 284.908C127.977 284.749 128.136 284.59 128.296 284.43C129.093 283.792 130.608 283.314 132.602 283.553C133.558 283.712 134.595 283.952 135.711 284.43C136.828 284.909 137.864 285.626 138.981 286.424C140.097 287.141 141.373 288.018 142.728 288.576C143.446 288.895 144.164 289.135 144.961 289.214C145.121 289.214 145.36 289.294 145.599 289.294C145.838 289.294 145.998 289.294 146.237 289.294L146.875 289.214L147.513 289.055C149.187 288.656 150.702 287.699 152.217 286.583C153.732 285.467 155.327 284.271 157.161 283.393C158.118 282.995 159.155 282.676 160.191 282.596C161.228 282.516 162.344 282.676 163.381 282.995C165.454 283.633 167.448 284.829 169.441 285.865C170.478 286.424 171.435 286.902 172.551 287.301C173.667 287.699 174.784 287.859 175.98 287.779C177.176 287.699 178.292 287.301 179.329 286.663C180.365 286.105 181.402 285.387 182.439 284.669C183.475 284.031 184.671 283.393 185.947 283.234C187.223 283.075 188.579 283.393 189.775 283.952C192.087 285.148 193.921 287.141 196.154 288.497C196.393 288.656 196.712 288.816 197.031 288.975C197.35 289.135 197.589 289.214 197.908 289.294C198.227 289.374 198.546 289.454 198.865 289.533L199.822 289.613C201.098 289.613 202.294 289.294 203.49 288.816C205.802 287.779 207.796 286.184 209.869 284.829C210.906 284.111 211.942 283.473 213.058 282.995C214.175 282.516 215.371 282.197 216.647 282.118C216.966 282.118 217.285 282.197 217.524 282.197L218.002 282.277C218.162 282.277 218.321 282.357 218.481 282.357C218.8 282.437 219.039 282.516 219.358 282.676C219.677 282.756 219.916 282.915 220.155 283.074C221.192 283.633 222.149 284.35 223.026 285.068C224.78 286.503 226.534 288.018 228.608 288.497C229.644 288.736 230.681 288.656 231.718 288.497C232.674 288.258 233.631 287.779 234.508 287.301C236.263 286.264 237.698 284.988 239.293 283.872C240.808 282.756 242.403 281.799 244.157 281.48L244.795 281.4H245.433C245.831 281.4 246.31 281.4 246.708 281.48C247.506 281.639 248.303 281.958 249.021 282.277C250.376 282.995 251.573 283.952 252.689 284.749C253.805 285.546 254.842 286.344 255.878 286.743C256.995 287.141 258.031 287.301 258.988 287.221C260.902 287.141 262.337 286.264 262.736 285.307C262.816 285.227 262.816 285.068 262.896 284.988C262.896 284.908 262.975 284.749 262.975 284.669C263.055 284.51 263.055 284.35 263.055 284.191C263.135 284.111 263.135 284.031 263.135 284.031Z" fill="#5846DE"/>
<path d="M232.276 113.15C232.276 113.15 253.088 210.91 233.791 288.018C231.478 289.852 228.209 289.852 225.897 288.098L220.076 283.792C217.923 282.437 215.212 282.357 212.979 283.553L210.347 284.988C210.347 284.988 229.006 207.88 227.013 159.957C225.019 112.034 225.019 112.034 225.019 112.034L232.276 113.15Z" fill="#5846DE"/>
<path d="M173.269 125.829C177.256 115.064 186.665 106.213 197.908 104.06C209.151 101.907 221.83 107.329 227.013 117.615L225.897 117.934C217.365 123.436 207.317 126.546 197.191 126.865C197.828 125.43 198.546 123.915 199.184 122.48C191.051 125.988 181.96 127.184 173.269 125.829Z" fill="#7366D3"/>
<path d="M263.534 96.8832C255.958 95.6074 247.905 96.8832 241.446 100.95C234.987 105.096 230.362 112.273 230.043 119.928L232.196 117.376C243.36 120.247 253.008 119.848 263.534 115.143V96.8832Z" fill="#7366D3"/>
<path d="M263.454 144.009C261.301 142.175 260.743 138.906 261.062 136.035C260.025 138.188 259.387 140.58 259.148 142.973C250.377 136.833 241.605 130.772 232.834 124.632C230.362 122.878 229.405 122.161 227.013 121.363L230.681 116.579C239.213 112.034 249.34 114.665 257.952 118.971L263.534 122.081L263.454 144.009Z" fill="#7366D3"/>
<path d="M199.503 137.949C201.576 133.803 205.005 130.533 208.593 127.503C211.384 125.111 214.255 122.798 217.604 121.283C220.953 119.768 224.78 119.051 228.369 120.167L227.571 120.406C230.442 131.729 222.548 144.886 214.016 152.94C212.501 152.541 211.145 151.505 210.268 150.149C211.304 151.744 212.341 153.418 213.378 155.013C209.71 158.92 205.802 162.509 201.576 165.778C199.822 161.313 198.147 156.767 197.51 151.983C197.031 147.278 197.35 142.255 199.503 137.949Z" fill="#7366D3"/>
<path d="M220.953 118.971L226.375 118.333C236.661 120.327 245.034 128.859 247.984 138.906C250.935 148.953 248.862 160.116 243.439 169.047C239.532 164.662 235.625 160.196 232.515 155.173C231.638 153.737 230.761 152.143 230.522 150.388C230.362 149.033 230.681 147.518 231.478 146.481C230.282 147.518 228.767 148.395 227.412 147.597C226.854 147.278 226.455 146.64 226.056 146.082C223.425 142.016 220.873 137.71 219.677 133.005C218.401 128.38 218.561 123.197 220.953 118.971Z" fill="#7366D3"/>
<path d="M221.192 90.4243C223.265 80.9353 229.007 72.3235 236.901 66.662C237.539 66.1836 238.336 65.7051 239.133 66.0241C239.771 66.2633 240.09 66.9012 240.409 67.4594C244.556 75.832 245.832 85.5602 243.998 94.7302C242.164 103.9 235.386 116.419 228.289 122.48L224.302 120.087C219.518 111.475 219.119 99.9133 221.192 90.4243Z" fill="#7366D3"/>
<path d="M227.093 119.928C227.093 119.928 227.172 119.928 227.252 119.928C227.332 119.928 227.491 119.928 227.651 120.008C227.81 120.008 228.05 120.087 228.368 120.087C228.608 120.087 228.927 120.167 229.325 120.247C230.681 120.566 232.674 121.363 234.668 122.878C235.704 123.676 236.661 124.633 237.618 125.749C238.575 126.865 239.452 128.221 240.17 129.736C241.685 132.766 242.722 136.274 243.439 140.102C244.954 147.757 244.954 154.854 244.476 159.877C244.237 162.429 243.997 164.422 243.758 165.858C243.678 166.575 243.519 167.134 243.519 167.453C243.519 167.612 243.439 167.771 243.439 167.851C243.439 167.931 243.439 168.011 243.439 168.011C243.439 168.011 243.439 167.931 243.519 167.851C243.519 167.771 243.599 167.612 243.599 167.453C243.678 167.054 243.838 166.575 243.918 165.858C244.157 164.422 244.476 162.429 244.715 159.877C245.193 154.774 245.193 147.677 243.678 140.022C242.961 136.195 241.924 132.606 240.409 129.576C239.612 128.061 238.735 126.706 237.778 125.589C236.821 124.473 235.784 123.436 234.748 122.719C232.674 121.204 230.681 120.486 229.325 120.167C227.89 119.928 227.093 119.928 227.093 119.928Z" fill="#7366D3"/>
<path d="M225.897 117.855C225.897 117.855 226.056 117.934 226.295 117.934C226.614 118.014 227.013 118.094 227.491 118.174C228.528 118.413 230.043 118.891 231.877 119.689C232.754 120.087 233.711 120.566 234.668 121.204C235.625 121.842 236.661 122.479 237.618 123.357C239.612 125.031 241.526 127.104 243.12 129.576C244.795 132.048 246.071 134.6 247.028 136.992C247.506 138.188 247.905 139.384 248.144 140.501C248.383 141.617 248.622 142.654 248.702 143.61C248.941 145.524 248.862 147.119 248.782 148.235C248.782 148.793 248.622 149.192 248.622 149.511C248.622 149.83 248.543 149.91 248.543 149.99C248.543 149.99 248.622 149.83 248.622 149.591C248.702 149.272 248.782 148.873 248.862 148.315C249.021 147.199 249.101 145.604 248.862 143.69C248.782 142.733 248.543 141.617 248.303 140.501C247.984 139.384 247.665 138.188 247.187 136.992C246.23 134.6 244.875 132.048 243.28 129.497C241.605 127.025 239.692 124.872 237.698 123.197C236.741 122.32 235.705 121.682 234.668 121.044C233.631 120.486 232.754 119.928 231.797 119.529C229.963 118.732 228.448 118.333 227.332 118.094C226.774 117.934 226.375 117.934 226.056 117.855H225.897Z" fill="#7366D3"/>
<path d="M220.474 122.4C220.474 122.4 220.395 122.639 220.235 123.197C220.155 123.436 220.076 123.755 219.996 124.154C219.916 124.553 219.836 124.951 219.757 125.43C219.677 125.908 219.597 126.387 219.597 126.945C219.517 127.503 219.597 128.061 219.597 128.699C219.597 129.975 219.757 131.331 220.076 132.766C220.395 134.201 220.793 135.477 221.272 136.673C221.511 137.231 221.75 137.789 221.989 138.268C222.229 138.746 222.468 139.225 222.707 139.623C222.946 140.022 223.185 140.421 223.425 140.74C223.664 141.059 223.823 141.298 223.983 141.537C224.302 141.936 224.461 142.175 224.541 142.175C224.541 142.175 224.382 141.936 224.063 141.457C223.903 141.218 223.744 140.979 223.504 140.66C223.345 140.341 223.106 140.022 222.867 139.544C222.627 139.145 222.388 138.667 222.149 138.188C221.91 137.71 221.67 137.152 221.431 136.593C221.033 135.397 220.554 134.121 220.315 132.686C220.076 131.251 219.916 129.895 219.836 128.699C219.836 128.061 219.836 127.503 219.836 126.945C219.836 126.387 219.916 125.908 219.916 125.43C219.916 124.951 219.996 124.553 220.076 124.154C220.155 123.755 220.155 123.436 220.235 123.197C220.395 122.719 220.474 122.48 220.474 122.4Z" fill="#7366D3"/>
<path d="M202.533 164.901C202.533 164.901 202.533 164.821 202.533 164.741C202.533 164.662 202.453 164.502 202.453 164.422C202.374 164.103 202.214 163.705 202.134 163.067C201.895 161.95 201.576 160.196 201.337 158.123C201.098 156.05 201.098 153.498 201.417 150.707C201.736 147.916 202.374 144.886 203.41 141.936C204.526 138.906 205.962 136.195 207.557 133.882C209.151 131.57 210.826 129.656 212.341 128.221C213.856 126.785 215.212 125.669 216.168 124.951C216.647 124.553 217.046 124.313 217.285 124.154C217.365 124.074 217.524 123.995 217.604 123.915C217.683 123.835 217.683 123.835 217.683 123.835C217.683 123.835 217.683 123.835 217.604 123.915C217.524 123.995 217.444 123.995 217.285 124.074C217.046 124.234 216.647 124.473 216.168 124.872C215.212 125.51 213.856 126.626 212.341 128.061C210.826 129.497 209.072 131.41 207.477 133.723C205.882 136.035 204.367 138.746 203.251 141.776C202.134 144.806 201.496 147.837 201.257 150.627C201.018 153.418 201.018 155.97 201.257 158.043C201.496 160.116 201.815 161.871 202.134 162.987C202.294 163.545 202.453 164.024 202.533 164.263C202.613 164.422 202.613 164.502 202.613 164.582C202.533 164.821 202.533 164.901 202.533 164.901Z" fill="#7366D3"/>
<path d="M174.225 125.111C174.225 125.111 174.225 125.111 174.305 125.031C174.385 124.951 174.465 124.792 174.624 124.712C174.863 124.393 175.182 123.995 175.661 123.436C176.618 122.32 177.973 120.725 179.887 118.891C180.844 118.014 181.88 117.057 183.077 116.021C184.273 115.064 185.548 114.027 187.063 113.15C189.934 111.316 193.443 109.641 197.27 108.605C199.184 108.126 201.177 107.887 203.011 107.807C204.925 107.728 206.679 107.887 208.434 108.126C211.862 108.685 214.813 109.721 217.125 110.997C218.242 111.635 219.278 112.273 220.076 112.911C220.474 113.23 220.873 113.549 221.192 113.868C221.511 114.187 221.83 114.426 222.069 114.745C222.308 114.984 222.547 115.223 222.707 115.462C222.866 115.702 223.026 115.861 223.185 116.021C223.345 116.18 223.425 116.26 223.504 116.34C223.584 116.419 223.584 116.419 223.584 116.419C223.584 116.419 223.584 116.34 223.504 116.26C223.425 116.18 223.345 116.021 223.265 115.941C223.106 115.781 223.026 115.622 222.787 115.383C222.627 115.143 222.388 114.904 222.149 114.665C221.91 114.426 221.591 114.107 221.272 113.788C220.953 113.469 220.554 113.15 220.155 112.831C219.358 112.193 218.321 111.475 217.205 110.838C214.892 109.482 211.942 108.445 208.513 107.887C206.759 107.648 204.925 107.488 203.091 107.568C201.177 107.648 199.264 107.887 197.27 108.366C193.363 109.402 189.854 111.077 186.984 112.911C185.548 113.868 184.193 114.825 182.997 115.781C181.801 116.738 180.764 117.775 179.807 118.652C177.973 120.486 176.538 122.081 175.661 123.277C175.182 123.835 174.863 124.313 174.624 124.632C174.544 124.792 174.465 124.872 174.385 124.951C174.225 125.031 174.225 125.111 174.225 125.111Z" fill="#7366D3"/>
<path d="M239.054 65.4659C239.054 65.4659 239.054 65.4659 238.974 65.5457C238.894 65.6254 238.814 65.7849 238.735 65.8646C238.575 66.1836 238.336 66.662 237.937 67.2202C237.618 67.7784 237.22 68.496 236.821 69.3732C236.422 70.2503 235.864 71.2072 235.386 72.2438C235.146 72.8019 234.827 73.3601 234.588 73.9183C234.349 74.4765 234.03 75.1144 233.791 75.7523C233.233 77.0281 232.674 78.4634 232.116 79.8987C231 82.8491 229.884 86.1981 228.847 89.7067C227.89 93.2152 227.172 96.644 226.534 99.7538C226.295 101.349 226.056 102.784 225.817 104.219C225.737 104.937 225.657 105.575 225.578 106.213C225.498 106.851 225.418 107.489 225.418 108.047C225.259 109.243 225.259 110.359 225.179 111.236C225.099 112.193 225.099 112.991 225.099 113.708C225.099 114.346 225.099 114.904 225.019 115.223C225.019 115.383 225.019 115.542 225.019 115.622C225.019 115.702 225.019 115.781 225.019 115.781C225.019 115.781 225.019 115.702 225.019 115.622C225.019 115.542 225.019 115.383 225.019 115.223C225.019 114.825 225.099 114.346 225.099 113.708C225.099 113.07 225.179 112.193 225.259 111.236C225.338 110.279 225.418 109.243 225.578 108.047C225.657 107.489 225.737 106.851 225.817 106.213C225.897 105.575 225.976 104.857 226.056 104.219C226.216 102.784 226.534 101.349 226.774 99.7538C227.332 96.644 228.129 93.2152 229.086 89.7067C230.043 86.1981 231.159 82.9288 232.276 79.8987C232.834 78.4634 233.392 77.0281 233.95 75.7523C234.269 75.1144 234.508 74.4765 234.748 73.9183C234.987 73.3601 235.306 72.7222 235.545 72.2438C236.023 71.1274 236.502 70.1705 236.98 69.3732C237.379 68.496 237.778 67.7784 238.097 67.2202C238.416 66.662 238.655 66.1836 238.814 65.8646C238.894 65.7051 238.974 65.6254 238.974 65.4659C239.054 65.5457 239.054 65.4659 239.054 65.4659Z" fill="#7366D3"/>
<path d="M246.23 98.797C246.23 98.797 246.15 98.797 245.991 98.8767C245.752 98.9565 245.512 99.0362 245.193 99.1957C244.556 99.5147 243.599 99.9133 242.403 100.472C240.09 101.588 236.98 103.262 233.711 105.495C232.116 106.611 230.601 107.648 229.325 108.844C228.05 109.96 227.093 111.157 226.455 112.273C225.817 113.389 225.498 114.426 225.418 115.144C225.338 115.463 225.338 115.781 225.338 115.941C225.338 116.1 225.338 116.26 225.338 116.26C225.338 116.26 225.338 116.18 225.418 115.941C225.418 115.781 225.498 115.463 225.578 115.144C225.737 114.426 226.056 113.469 226.694 112.353C227.332 111.236 228.368 110.12 229.565 109.004C230.84 107.887 232.355 106.771 233.95 105.734C237.22 103.581 240.25 101.827 242.562 100.711C243.678 100.153 244.635 99.6741 245.273 99.3552C245.592 99.1957 245.831 99.116 245.991 99.0362C246.15 98.8767 246.23 98.797 246.23 98.797Z" fill="#7366D3"/>
<path d="M209.55 126.785C209.55 126.785 209.789 126.626 210.108 126.387C210.427 126.068 210.985 125.669 211.623 125.191C212.899 124.234 214.653 122.878 216.806 121.602C218.88 120.327 220.873 119.29 222.308 118.572C223.026 118.253 223.584 117.934 224.063 117.775C224.461 117.615 224.701 117.456 224.701 117.456C224.701 117.456 224.461 117.536 224.063 117.695C223.664 117.855 223.026 118.094 222.308 118.413C220.873 119.051 218.8 120.087 216.727 121.363C214.653 122.639 212.819 123.995 211.623 125.031C210.985 125.51 210.507 125.988 210.188 126.307C209.71 126.626 209.55 126.785 209.55 126.785Z" fill="#7366D3"/>
<path d="M263.055 102.385C263.055 102.385 262.896 102.385 262.656 102.385C262.337 102.385 261.939 102.385 261.46 102.385C260.982 102.385 260.344 102.385 259.547 102.385C258.829 102.385 257.952 102.385 257.075 102.465C256.118 102.545 255.161 102.624 254.045 102.784C252.928 102.864 251.812 103.103 250.616 103.342C248.224 103.821 245.672 104.458 242.961 105.415C240.329 106.372 237.857 107.489 235.705 108.685C234.668 109.323 233.631 109.881 232.754 110.439C231.797 110.997 231 111.555 230.282 112.113C229.485 112.592 228.847 113.15 228.289 113.628C227.731 114.107 227.252 114.506 226.853 114.825C226.455 115.143 226.216 115.383 225.976 115.622C225.737 115.781 225.657 115.861 225.657 115.861C225.657 115.861 227.252 114.187 230.202 111.954C230.92 111.396 231.797 110.838 232.674 110.2C233.552 109.562 234.588 109.004 235.625 108.445C237.778 107.249 240.25 106.133 242.881 105.176C245.512 104.219 248.144 103.581 250.536 103.103C251.732 102.864 252.848 102.704 253.965 102.624C255.081 102.465 256.038 102.385 256.995 102.385C260.743 102.066 263.055 102.385 263.055 102.385Z" fill="#5846DE"/>
<path d="M264.171 122.4C264.171 122.4 264.012 122.32 263.853 122.24C263.613 122.081 263.294 121.921 262.896 121.682C262.497 121.443 261.939 121.124 261.301 120.805C260.663 120.486 260.025 120.087 259.228 119.768C258.43 119.37 257.553 118.971 256.596 118.652C255.639 118.253 254.603 117.934 253.486 117.536C251.254 116.898 248.782 116.26 246.15 115.941C243.519 115.622 240.967 115.462 238.655 115.542C237.539 115.622 236.422 115.622 235.386 115.781C234.349 115.861 233.392 116.021 232.515 116.18C231.638 116.26 230.84 116.499 230.203 116.579C229.485 116.738 228.927 116.818 228.448 116.977C228.05 117.057 227.651 117.217 227.332 117.217C227.093 117.296 226.933 117.296 226.933 117.296C226.933 117.296 229.006 116.499 232.435 115.941C233.312 115.781 234.269 115.622 235.306 115.542C236.342 115.383 237.459 115.383 238.575 115.303C240.888 115.223 243.439 115.383 246.071 115.702C248.702 116.1 251.174 116.659 253.407 117.376C254.523 117.775 255.56 118.094 256.516 118.493C257.473 118.891 258.351 119.29 259.148 119.609C262.417 121.124 264.171 122.4 264.171 122.4Z" fill="#5846DE"/>
<path d="M259.626 131.41C259.626 131.41 259.547 131.331 259.387 131.171C259.148 130.932 258.909 130.693 258.669 130.374C258.35 130.055 257.952 129.656 257.473 129.178C256.995 128.699 256.516 128.221 255.879 127.663C255.241 127.104 254.603 126.546 253.805 125.988C253.088 125.35 252.211 124.792 251.333 124.234C249.499 123.038 247.506 121.842 245.193 120.805C242.961 119.768 240.728 118.971 238.655 118.413C237.618 118.174 236.661 117.855 235.705 117.695C234.748 117.456 233.87 117.376 233.073 117.217C232.276 117.057 231.558 117.057 230.92 116.978C230.282 116.898 229.724 116.898 229.246 116.898C228.847 116.898 228.448 116.818 228.209 116.818C227.97 116.818 227.81 116.818 227.81 116.818C227.81 116.818 229.804 116.738 233.073 117.137C233.87 117.217 234.748 117.376 235.705 117.536C236.661 117.695 237.618 117.934 238.735 118.253C240.808 118.812 243.041 119.609 245.353 120.646C247.586 121.682 249.659 122.878 251.493 124.074C252.37 124.712 253.247 125.27 253.965 125.908C254.762 126.466 255.4 127.104 256.038 127.663C258.43 129.816 259.626 131.41 259.626 131.41Z" fill="#5846DE"/>
<path d="M247.426 5.82093C247.426 5.82093 247.665 5.82093 248.064 5.82093C248.463 5.82093 249.101 5.82093 249.898 5.98041C251.493 6.21963 253.885 7.01702 256.357 8.93076C257.553 9.96737 258.829 11.2432 259.945 12.838C261.062 14.4328 262.018 16.4263 262.656 18.659C262.975 19.7753 263.214 20.9714 263.374 22.1675C263.533 23.4433 263.533 24.7191 263.533 25.995C263.533 28.6264 263.533 31.497 263.533 34.4473C263.533 58.4489 263.613 93.1355 263.613 136.035C263.613 178.935 263.693 230.048 263.693 286.742C263.693 293.839 263.693 301.016 263.693 308.272C263.693 311.94 263.693 315.528 263.693 319.196C263.693 321.03 263.693 322.864 263.693 324.698C263.693 326.532 263.773 328.366 263.533 330.28C263.374 332.114 262.896 333.948 262.178 335.702C261.859 336.579 261.38 337.457 260.982 338.254C260.503 339.051 260.025 339.849 259.387 340.566C258.191 342.081 256.835 343.357 255.241 344.394C253.646 345.431 251.812 346.148 249.898 346.467C247.984 346.786 246.071 346.627 244.157 346.706C242.243 346.706 240.329 346.706 238.416 346.706C234.588 346.706 230.761 346.706 226.853 346.706C211.384 346.706 195.755 346.627 179.807 346.627C171.833 346.627 163.78 346.627 155.726 346.627C151.659 346.627 147.592 346.627 143.526 346.627C141.453 346.627 139.379 346.228 137.466 345.431C135.552 344.633 133.877 343.357 132.442 341.842C129.571 338.892 127.817 334.905 127.179 330.838C126.86 328.765 126.94 326.772 126.94 324.698C126.94 322.705 126.94 320.632 126.94 318.638C126.94 310.584 126.94 302.531 126.94 294.557C126.94 278.609 126.94 262.9 126.94 247.431C126.94 216.572 126.94 186.749 126.94 158.442C126.94 130.055 126.94 103.103 126.94 77.9052C126.94 65.3064 126.94 53.1063 126.94 41.3847C126.94 35.5637 126.94 29.8225 126.94 24.161C126.94 21.3701 127.498 18.5792 128.535 16.0276C129.571 13.4759 131.086 11.1635 133.16 9.32946C135.153 7.49546 137.545 6.13989 140.177 5.66145C140.815 5.58171 141.453 5.42223 142.17 5.42223C142.808 5.3425 143.446 5.34249 144.084 5.34249C145.36 5.34249 146.636 5.34249 147.911 5.34249C153.015 5.34249 157.959 5.34249 162.823 5.34249C164.019 5.34249 165.215 5.34249 166.411 5.34249C167.049 5.34249 167.607 5.34249 168.165 5.34249C168.803 5.42223 169.361 5.58171 169.92 5.90067C170.956 6.45885 171.754 7.49546 172.232 8.53207C172.71 9.56868 172.95 10.7648 172.87 11.9609C172.87 13.0772 172.87 14.1936 172.87 15.3099C172.87 16.4263 172.95 17.5426 173.348 18.4995C173.747 19.5361 174.385 20.4132 175.262 21.0511C175.661 21.3701 176.139 21.6093 176.697 21.7688C177.176 21.9283 177.734 21.9283 178.292 21.9283C186.824 21.9283 194.718 21.9283 202.054 22.008C205.722 22.008 209.231 22.008 212.5 22.008C214.175 22.008 215.77 22.008 217.364 22.008C218.959 22.008 220.315 20.9714 221.112 19.6956C221.91 18.4197 222.228 16.9844 222.149 15.5491C222.149 14.1138 222.149 12.7582 222.149 11.4027C222.149 10.0471 222.547 8.77128 223.265 7.73467C223.983 6.69806 224.94 5.90067 226.136 5.58171C226.694 5.42223 227.252 5.42223 227.81 5.42223C228.368 5.42223 228.927 5.42223 229.405 5.42223C230.442 5.42223 231.478 5.42223 232.435 5.42223C234.349 5.42223 236.183 5.42223 237.698 5.42223C240.887 5.42223 243.28 5.42223 244.874 5.42223C246.629 5.74119 247.426 5.82093 247.426 5.82093C247.426 5.82093 246.629 5.82093 244.954 5.82093C243.359 5.82093 240.887 5.82093 237.778 5.82093C236.183 5.82093 234.429 5.82093 232.515 5.82093C231.558 5.82093 230.521 5.82093 229.485 5.82093C228.927 5.82093 228.448 5.82093 227.89 5.82093C227.332 5.82093 226.774 5.82093 226.215 5.98041C225.099 6.29937 224.142 7.09676 223.425 8.05363C222.787 9.09024 222.388 10.3661 222.388 11.6419C222.388 12.9975 222.388 14.353 222.388 15.7883C222.468 17.2236 222.149 18.7387 221.351 20.0145C220.554 21.2904 219.119 22.327 217.524 22.4067C215.929 22.4067 214.334 22.4067 212.66 22.4067C209.311 22.4067 205.802 22.4067 202.214 22.4067C194.878 22.4067 186.984 22.4067 178.452 22.4067C177.893 22.4067 177.335 22.4067 176.857 22.2472C176.299 22.0877 175.82 21.8485 175.342 21.5296C174.465 20.8917 173.747 19.9348 173.348 18.8982C172.95 17.8616 172.79 16.6655 172.87 15.5491C172.87 14.4328 172.87 13.3164 172.87 12.2001C172.87 11.0837 172.71 9.96737 172.232 8.93076C171.754 7.89415 171.036 7.01702 169.999 6.45885C169.521 6.21963 168.963 5.98041 168.404 5.98041C167.846 5.98041 167.208 5.98041 166.65 5.98041C165.454 5.98041 164.258 5.98041 163.062 5.98041C158.198 5.98041 153.254 5.98041 148.151 5.98041C146.875 5.98041 145.599 5.98041 144.323 5.98041C143.685 5.98041 143.047 5.98041 142.409 6.06015C141.772 6.06015 141.134 6.21963 140.496 6.29937C137.944 6.7778 135.552 8.13337 133.638 9.88763C131.645 11.6419 130.13 13.9543 129.093 16.506C128.056 19.0577 127.498 21.7688 127.498 24.5597C127.498 30.1414 127.498 35.8826 127.498 41.7833C127.498 53.505 127.498 65.7051 127.498 78.3039C127.498 103.502 127.498 130.453 127.578 158.841C127.578 187.228 127.578 216.971 127.658 247.83C127.658 263.299 127.658 279.008 127.658 294.956C127.658 302.93 127.658 310.983 127.658 319.037C127.658 321.03 127.658 323.104 127.658 325.097C127.658 327.091 127.578 329.164 127.897 331.157C128.535 335.144 130.209 338.972 133 341.922C134.436 343.357 136.03 344.553 137.864 345.431C139.698 346.228 141.692 346.627 143.685 346.627C147.752 346.627 151.819 346.627 155.885 346.627C163.939 346.627 171.993 346.627 179.967 346.627C195.914 346.627 211.623 346.706 227.013 346.706C230.84 346.706 234.748 346.706 238.575 346.706C240.489 346.706 242.403 346.706 244.316 346.706C246.23 346.706 248.144 346.786 249.978 346.467C251.812 346.148 253.566 345.51 255.161 344.474C256.756 343.437 258.111 342.161 259.228 340.726C259.786 340.008 260.264 339.211 260.822 338.413C261.221 337.616 261.699 336.739 262.018 335.942C262.656 334.187 263.135 332.433 263.374 330.599C263.613 328.765 263.533 326.931 263.533 325.097C263.533 323.263 263.533 321.429 263.533 319.595C263.533 315.927 263.533 312.259 263.533 308.671C263.533 301.414 263.533 294.238 263.533 287.141C263.533 230.446 263.533 179.334 263.533 136.434C263.533 93.5342 263.533 58.8476 263.533 34.846C263.533 31.8159 263.533 29.0251 263.533 26.3937C263.533 25.0381 263.533 23.7623 263.374 22.5662C263.214 21.3701 262.975 20.174 262.656 19.0577C262.018 16.825 261.141 14.9112 260.025 13.3164C258.909 11.7216 257.712 10.4458 256.516 9.4092C254.044 7.49546 251.652 6.69806 250.057 6.45885C249.26 6.29937 248.622 6.29937 248.223 6.21963C247.665 5.82093 247.426 5.82093 247.426 5.82093Z" fill="#5846DE"/>
<path d="M242.722 337.855C242.722 337.855 242.722 337.935 242.642 338.015C242.562 338.095 242.482 338.254 242.323 338.414C242.004 338.732 241.525 339.211 240.728 339.61C239.133 340.407 236.422 340.726 233.392 339.769C231.877 339.37 230.282 338.732 228.528 338.254C227.651 338.015 226.694 337.855 225.737 337.776C224.78 337.696 223.744 337.776 222.787 337.935C220.793 338.254 218.64 339.051 216.328 339.131C214.015 339.291 211.703 338.573 209.391 337.855C208.274 337.457 207.158 337.138 205.962 336.898C204.845 336.659 203.729 336.5 202.613 336.42C200.38 336.261 198.227 336.58 196.234 337.058C192.247 338.015 188.738 339.45 185.708 340.407C182.758 341.444 180.286 342.082 178.531 342.4C177.654 342.56 177.016 342.719 176.538 342.799C176.06 342.879 175.82 342.879 175.82 342.879C175.82 342.879 176.06 342.799 176.538 342.719C177.016 342.64 177.654 342.48 178.531 342.241C180.206 341.842 182.678 341.125 185.628 340.088C188.579 339.131 192.087 337.616 196.154 336.58C198.147 336.101 200.38 335.782 202.692 335.862C203.809 335.942 205.005 336.101 206.121 336.34C207.238 336.58 208.434 336.978 209.55 337.297C211.862 338.015 214.095 338.653 216.328 338.573C218.561 338.493 220.634 337.696 222.707 337.377C223.744 337.217 224.78 337.138 225.817 337.217C226.853 337.297 227.731 337.536 228.687 337.776C230.442 338.254 232.116 338.972 233.552 339.37C236.502 340.327 239.213 340.088 240.728 339.291C242.243 338.812 242.722 337.855 242.722 337.855Z" fill="#5846DE"/>
<path d="M257.234 37.9559C257.473 36.1219 254.922 34.6069 253.008 34.5271C252.051 34.4474 251.094 34.6069 250.297 34.2879C248.383 33.65 247.665 31.1781 245.831 30.3807C244.476 29.8225 242.881 30.301 241.526 31.0186C240.17 31.6565 238.894 32.5337 237.379 32.6134C236.103 32.6931 234.668 32.2147 233.552 32.8526C232.674 33.331 232.276 34.2879 231.478 34.8461C230.681 35.4043 229.724 35.5637 228.767 35.5637C227.81 35.6435 226.853 35.6435 225.976 36.0422C225.099 36.4409 224.382 37.318 224.621 38.2749L257.234 37.9559Z" fill="#E0E0E0"/>
<path d="M175.9 46.6475C176.139 44.8135 173.588 43.2985 171.674 43.2187C170.717 43.139 169.76 43.2985 168.963 42.9795C167.049 42.3416 166.331 39.8697 164.497 39.0723C163.142 38.5141 161.547 38.9925 160.191 39.7102C158.836 40.3481 157.56 41.2252 156.045 41.305C154.769 41.3847 153.334 40.9063 152.217 41.5442C151.34 42.0226 150.942 42.9795 150.144 43.5377C149.347 44.0959 148.39 44.2553 147.433 44.2553C146.476 44.3351 145.519 44.3351 144.642 44.7338C143.765 45.1325 143.047 46.0096 143.287 46.9665L175.9 46.6475Z" fill="#EBEBEB"/>
<path d="M198.068 99.6741C198.307 98.0793 196.074 96.8035 194.4 96.644C193.602 96.5643 192.805 96.7238 192.007 96.4048C190.333 95.8466 189.695 93.6937 188.1 93.0558C186.904 92.5773 185.549 92.976 184.352 93.6139C183.156 94.1721 182.04 94.9695 180.764 95.0493C179.648 95.129 178.372 94.7303 177.415 95.2885C176.698 95.6872 176.299 96.5643 175.581 97.0427C174.943 97.5212 174.066 97.6009 173.269 97.6807C172.471 97.7604 171.594 97.7604 170.877 98.0793C170.159 98.3983 169.521 99.1957 169.68 99.9931L198.068 99.6741Z" fill="#EBEBEB"/>
<path d="M197.43 72.9614C203.243 72.9614 207.955 68.249 207.955 62.4358C207.955 56.6227 203.243 51.9102 197.43 51.9102C191.616 51.9102 186.904 56.6227 186.904 62.4358C186.904 68.249 191.616 72.9614 197.43 72.9614Z" fill="#E0E0E0"/>
<path d="M195.914 85.8792C195.958 85.8792 195.994 83.9514 195.994 81.5733C195.994 79.1952 195.958 77.2674 195.914 77.2674C195.87 77.2674 195.835 79.1952 195.835 81.5733C195.835 83.9514 195.87 85.8792 195.914 85.8792Z" fill="#E0E0E0"/>
<path d="M187.581 78.8322C188.858 76.6202 189.863 74.8091 189.825 74.7871C189.786 74.7651 188.72 76.5404 187.443 78.7524C186.165 80.9644 185.161 82.7754 185.199 82.7974C185.237 82.8194 186.303 81.0441 187.581 78.8322Z" fill="#E0E0E0"/>
<path d="M181.119 73.04C182.498 71.9439 183.593 71.0275 183.566 70.993C183.539 70.9585 182.398 71.8191 181.02 72.9151C179.641 74.0112 178.545 74.9276 178.572 74.9621C178.6 74.9966 179.74 74.136 181.119 73.04Z" fill="#E0E0E0"/>
<path d="M206.36 81.653C206.36 81.653 206.201 81.2543 206.121 80.6164C205.962 79.9785 205.722 79.0216 205.483 78.0648C205.244 77.0282 204.925 76.151 204.765 75.5131C204.526 74.8752 204.447 74.4765 204.447 74.4765C204.447 74.4765 204.686 74.8752 204.925 75.5131C205.164 76.151 205.483 77.0282 205.722 78.0648C205.962 79.1014 206.201 79.9785 206.281 80.6962C206.36 81.2543 206.44 81.653 206.36 81.653Z" fill="#E0E0E0"/>
<path d="M213.97 71.5003C215.661 72.9784 217.055 74.1497 217.084 74.1165C217.113 74.0834 215.766 72.8583 214.075 71.3802C212.384 69.9021 210.99 68.7308 210.961 68.7639C210.932 68.7971 212.279 70.0222 213.97 71.5003Z" fill="#E0E0E0"/>
<path d="M221.112 63.7116C221.112 63.7116 220.634 63.6319 219.836 63.5522C219.039 63.3927 218.002 63.2332 216.806 63.1535C215.61 62.994 214.494 62.9143 213.696 62.9143C212.899 62.8345 212.42 62.8345 212.42 62.8345C212.42 62.8345 212.899 62.7548 213.696 62.7548C214.494 62.7548 215.61 62.8345 216.806 62.994C218.002 63.1535 219.119 63.3129 219.836 63.4724C220.634 63.5522 221.112 63.7116 221.112 63.7116Z" fill="#E0E0E0"/>
<path d="M216.026 54.7743C218.85 54.0863 221.13 53.4939 221.12 53.4511C221.11 53.4083 218.812 53.9313 215.988 54.6193C213.164 55.3073 210.883 55.8997 210.893 55.9425C210.904 55.9853 213.202 55.4623 216.026 54.7743Z" fill="#E0E0E0"/>
<path d="M206.785 45.4154C208.169 43.3214 209.261 41.6042 209.225 41.5799C209.188 41.5556 208.036 43.2335 206.652 45.3275C205.268 47.4215 204.176 49.1387 204.212 49.163C204.249 49.1873 205.401 47.5094 206.785 45.4154Z" fill="#E0E0E0"/>
<path d="M197.509 39.0722C197.509 39.0722 197.509 39.6304 197.509 40.5075C197.509 41.3847 197.509 42.6605 197.509 44.0161C197.509 45.3716 197.509 46.5677 197.509 47.5246C197.509 48.4017 197.509 48.9599 197.509 48.9599C197.509 48.9599 197.43 48.4017 197.35 47.5246C197.27 46.6475 197.27 45.3716 197.27 44.0161C197.27 42.6605 197.35 41.3847 197.35 40.5075C197.43 39.6304 197.429 39.0722 197.509 39.0722Z" fill="#E0E0E0"/>
<path d="M186.09 46.3751C187.399 48.517 188.49 50.2348 188.528 50.2119C188.565 50.1889 187.535 48.4339 186.226 46.2919C184.917 44.15 183.826 42.4322 183.788 42.4551C183.751 42.4781 184.781 44.2331 186.09 46.3751Z" fill="#E0E0E0"/>
<path d="M183.236 54.7012C183.236 54.7012 182.837 54.7012 182.119 54.5417C181.402 54.3822 180.525 54.143 179.488 53.9038C178.451 53.5848 177.574 53.2658 176.936 53.0266C176.298 52.7874 175.9 52.6279 175.9 52.5482C175.9 52.5482 176.298 52.6279 177.016 52.8672C177.654 53.1064 178.611 53.3456 179.648 53.6645C180.684 53.9835 181.561 54.2227 182.279 54.3822C182.837 54.6214 183.236 54.7012 183.236 54.7012Z" fill="#E0E0E0"/>
<path d="M177.501 63.235C179.342 63.0579 180.831 62.8789 180.827 62.8351C180.823 62.7912 179.327 62.8992 177.486 63.0762C175.644 63.2532 174.155 63.4323 174.159 63.4761C174.164 63.52 175.66 63.412 177.501 63.235Z" fill="#E0E0E0"/>
<path d="M217.205 193.049C217.205 193.049 216.647 192.889 215.69 192.65C214.733 192.411 213.218 192.251 211.464 192.491C209.709 192.73 207.556 193.448 205.722 194.963C203.888 196.478 202.294 198.71 201.656 201.421V201.501L201.576 201.98L201.416 201.581C200.38 199.029 198.546 197.036 196.552 195.68C194.559 194.404 192.406 193.846 190.652 193.687C188.818 193.527 187.382 193.846 186.425 194.085C185.469 194.325 184.91 194.564 184.91 194.564C184.91 194.564 185.07 194.484 185.309 194.404C185.548 194.325 185.947 194.165 186.425 194.006C187.382 193.687 188.897 193.448 190.731 193.527C192.565 193.607 194.718 194.165 196.792 195.521C198.865 196.797 200.699 198.87 201.815 201.501H201.496V201.421C202.134 198.631 203.809 196.318 205.643 194.803C207.556 193.288 209.709 192.57 211.543 192.331C213.377 192.092 214.892 192.331 215.849 192.57C216.328 192.73 216.726 192.81 216.966 192.889C217.045 192.969 217.205 193.049 217.205 193.049Z" fill="#5846DE"/>
<path d="M258.111 53.6646C258.111 53.6646 257.792 53.5849 257.234 53.5051C256.676 53.4254 255.878 53.2659 254.922 53.4254C253.965 53.5849 252.769 53.9835 251.812 54.7809C250.775 55.5783 249.978 56.8542 249.579 58.2895L249.499 58.7679L249.34 58.3692C248.782 57.0136 247.745 55.8973 246.708 55.1796C245.592 54.462 244.476 54.143 243.439 54.0633C242.482 53.9836 241.685 54.143 241.127 54.2228C240.568 54.3822 240.329 54.462 240.329 54.462C240.329 54.462 240.409 54.3822 240.489 54.3822C240.648 54.3025 240.808 54.2228 241.127 54.143C241.685 53.9836 242.482 53.8241 243.519 53.8241C244.555 53.9038 245.752 54.143 246.868 54.8607C247.984 55.5783 249.021 56.6947 249.659 58.2097H249.34V58.13C249.738 56.6149 250.616 55.3391 251.652 54.462C252.689 53.5849 253.885 53.1862 254.922 53.1064C255.958 53.0267 256.756 53.1064 257.314 53.2659C257.553 53.3456 257.792 53.4254 257.952 53.5051C258.031 53.6646 258.111 53.6646 258.111 53.6646Z" fill="#5846DE"/>
<path d="M190.492 150.468C190.492 150.468 190.173 150.787 189.695 151.425C189.137 151.983 188.419 152.94 187.701 154.136C186.186 156.528 184.671 160.276 184.751 164.662C184.751 164.741 184.751 164.741 184.751 164.821H184.432C184.113 162.668 183.395 160.755 182.518 159.16C181.641 157.565 180.604 156.209 179.568 155.173C178.611 154.136 177.654 153.498 177.016 153.02C176.378 152.541 175.98 152.382 175.98 152.302C175.98 152.302 176.059 152.302 176.299 152.462C176.458 152.541 176.777 152.701 177.096 152.94C177.734 153.339 178.691 154.056 179.727 155.013C180.764 155.97 181.801 157.326 182.757 159C183.714 160.675 184.432 162.588 184.751 164.821H184.432C184.432 164.741 184.432 164.741 184.432 164.662C184.352 160.276 185.947 156.369 187.542 154.056C188.339 152.86 189.057 151.983 189.615 151.425C189.854 151.106 190.093 150.947 190.253 150.787C190.412 150.548 190.492 150.468 190.492 150.468Z" fill="#5846DE"/>
<path d="M139.858 121.443C139.858 121.443 139.778 153.578 140.017 160.675C140.257 167.771 159.155 207.561 159.155 207.561L169.441 205.089L157.48 162.349L156.045 139.623L139.858 121.443Z" fill="#FFBE9D"/>
<path d="M169.282 204.292L175.98 214.259L177.814 224.626C177.814 224.626 175.182 225.981 174.066 221.835C174.066 221.835 173.827 223.988 172.87 224.227C171.833 224.386 171.435 223.669 171.435 223.669C171.435 223.669 171.036 225.423 169.601 225.024C168.165 224.626 168.006 224.067 167.926 223.828C167.846 223.589 167.049 224.227 166.012 223.828C164.976 223.509 164.976 222.552 164.976 222.552C164.976 222.552 163.461 222.951 162.902 222.632C162.424 222.233 161.946 221.197 161.946 221.197C161.946 221.197 160.829 218.645 161.068 218.167C161.308 217.688 162.185 217.688 162.185 217.688L161.627 215.774C161.627 215.774 159.793 213.143 159.553 211.947C159.314 210.751 158.995 205.488 158.995 205.488L169.282 204.292Z" fill="#FFBE9D"/>
<path d="M177.814 224.626C177.814 224.626 177.734 224.705 177.575 224.705C177.415 224.785 177.256 224.785 176.937 224.865C176.697 224.865 176.299 224.865 175.9 224.785C175.501 224.705 175.023 224.466 174.784 223.908C174.305 222.951 173.827 221.755 173.189 220.399C172.551 219.123 171.754 217.688 170.318 216.811C168.963 216.014 167.368 215.615 166.252 214.658C165.135 213.781 164.418 212.585 164.019 211.548C163.62 210.512 163.54 209.635 163.62 208.997C163.62 208.678 163.62 208.438 163.7 208.279C163.7 208.119 163.78 208.04 163.78 208.04C163.859 208.04 163.54 209.395 164.338 211.389C164.737 212.346 165.454 213.462 166.491 214.259C167.527 215.137 169.122 215.455 170.558 216.333C172.073 217.289 172.95 218.805 173.508 220.16C174.066 221.516 174.544 222.712 175.023 223.669C175.182 224.067 175.581 224.307 175.9 224.466C176.219 224.546 176.618 224.626 176.857 224.626C177.495 224.626 177.814 224.546 177.814 224.626Z" fill="#5846DE"/>
<path d="M171.594 223.828C171.514 223.828 171.116 223.35 170.478 222.552C170.159 222.154 169.84 221.595 169.441 221.037C169.282 220.718 169.042 220.399 168.883 220.08C168.724 219.761 168.484 219.363 168.564 218.805C168.724 218.326 169.202 218.087 169.68 218.007C170.079 218.007 170.478 218.167 170.797 218.326C171.435 218.725 171.754 219.363 171.993 219.761C172.471 220.718 172.87 221.197 172.87 221.197C172.79 221.276 172.312 220.798 171.754 219.921C171.435 219.522 171.116 218.964 170.637 218.645C170.398 218.486 170.079 218.326 169.76 218.406C169.441 218.406 169.122 218.645 169.042 218.884C168.963 219.123 169.122 219.522 169.282 219.841C169.441 220.16 169.601 220.479 169.84 220.798C170.159 221.356 170.478 221.914 170.797 222.393C171.275 223.19 171.674 223.748 171.594 223.828Z" fill="#5846DE"/>
<path d="M168.006 223.908C167.926 223.908 166.969 222.074 166.012 219.602C165.933 219.283 165.933 218.884 166.172 218.486C166.411 218.167 166.73 218.007 167.049 218.007C167.687 217.927 168.245 218.326 168.484 218.645C169.043 219.363 169.122 219.921 169.043 219.921C168.963 220.001 168.803 219.442 168.245 218.884C168.006 218.645 167.527 218.326 167.049 218.406C166.81 218.406 166.571 218.565 166.491 218.805C166.331 218.964 166.331 219.283 166.411 219.522C167.368 221.835 168.086 223.828 168.006 223.908Z" fill="#5846DE"/>
<path d="M166.172 219.363C166.092 219.363 165.933 218.884 165.454 218.326C165.215 218.087 164.816 217.768 164.338 217.848C163.859 217.848 163.461 218.326 163.62 218.805C164.497 221.037 165.215 222.951 165.056 223.031C164.976 223.031 164.099 221.277 163.222 218.964C163.142 218.645 163.142 218.167 163.461 217.927C163.7 217.688 164.019 217.529 164.338 217.529C164.976 217.529 165.454 217.927 165.693 218.246C166.172 218.805 166.172 219.283 166.172 219.363Z" fill="#5846DE"/>
<path d="M161.946 217.927C161.866 217.927 161.946 217.768 162.105 217.608C162.344 217.529 162.663 217.529 162.903 217.688C163.142 217.927 163.301 218.167 163.301 218.326C163.301 218.486 163.301 218.645 163.301 218.645C163.222 218.725 162.982 218.246 162.663 218.007C162.504 217.927 162.344 217.848 162.185 217.848C162.105 217.927 162.025 217.927 161.946 217.927Z" fill="#5846DE"/>
<path d="M51.6638 281.44L53.0751 282.183L87.7291 216.349L86.3178 215.606L51.6638 281.44Z" fill="#263238"/>
<path d="M21.4451 349.258C24.2195 349.258 26.4687 347.009 26.4687 344.234C26.4687 341.46 24.2195 339.211 21.4451 339.211C18.6706 339.211 16.4215 341.46 16.4215 344.234C16.4215 347.009 18.6706 349.258 21.4451 349.258Z" fill="#263238"/>
<path d="M18.4149 347.584C21.1894 347.584 23.4385 345.334 23.4385 342.56C23.4385 339.786 21.1894 337.536 18.4149 337.536C15.6405 337.536 13.3914 339.786 13.3914 342.56C13.3914 345.334 15.6405 347.584 18.4149 347.584Z" fill="#455A64"/>
<path d="M13.7901 335.623L29.8177 344.075C32.5288 345.51 35.9576 344.474 37.3929 341.763L77.2625 266.09C78.6978 263.379 77.6612 259.95 74.9501 258.515L58.9225 250.062C56.2114 248.627 52.7826 249.664 51.3473 252.375L11.4776 328.047C10.0423 330.838 11.0789 334.187 13.7901 335.623Z" fill="#FD1F6E"/>
<path d="M37.1538 311.382L37.8715 311.781C39.227 312.498 40.9813 311.94 41.6989 310.584L54.9357 285.467C55.6533 284.111 55.0951 282.357 53.7396 281.639L53.0219 281.24C51.6664 280.523 49.9121 281.081 49.1944 282.436L35.9577 307.554C35.3198 308.91 35.7982 310.664 37.1538 311.382Z" fill="#263238"/>
<path d="M21.764 340.008C21.6843 339.929 31.7314 320.711 44.1708 296.949C56.6898 273.266 66.8965 254.049 66.9762 254.129C67.0559 254.209 57.0088 273.426 44.5695 297.188C32.0504 320.871 21.8438 340.088 21.764 340.008Z" fill="#263238"/>
<path d="M64.1056 252.853L69.5278 255.724C70.0063 255.963 70.5645 255.804 70.8834 255.325L71.0429 255.086C71.2821 254.608 71.1226 254.049 70.6442 253.73L65.2219 250.86C64.7435 250.621 64.1853 250.78 63.8664 251.259L63.7069 251.498C63.3879 251.976 63.6271 252.534 64.1056 252.853Z" fill="#263238"/>
<path d="M114.979 81.8922C115.856 82.3706 117.132 81.7327 117.531 80.7758C117.929 79.819 117.77 78.7026 117.451 77.7457C117.132 76.7889 116.733 75.7522 116.654 74.7156C116.574 72.8019 117.85 70.9679 119.604 70.4097C117.85 68.9744 117.69 66.0241 119.285 64.4293C120.003 63.7116 121.039 63.3129 121.916 62.7547C122.395 62.4358 122.873 62.0371 123.272 61.6384C122.475 61.7979 121.677 61.8776 120.88 61.7181C119.604 61.4789 118.488 60.522 118.089 59.2462C117.69 57.9704 118.009 56.5351 118.966 55.6579C119.923 54.7808 121.438 54.5416 122.634 55.0998C123.75 55.7377 124.388 56.9338 124.947 58.1299C125.106 58.5286 125.265 58.8475 125.425 59.2462C127.02 57.0933 128.535 54.9403 131.007 54.2226C133.239 53.5847 135.632 54.3024 138.024 54.1429C139.698 53.9834 141.373 53.4252 143.047 53.186C144.722 53.0265 146.636 53.3455 147.672 54.7808C148.23 55.5782 148.47 56.6148 149.028 57.4122C150.224 59.0867 152.935 59.326 153.892 61.0802C154.689 62.5155 154.051 64.4293 154.45 66.0241C154.849 67.7783 156.284 69.1339 157.48 70.4895C158.676 71.845 159.713 73.7588 159.075 75.4333C158.517 76.9483 156.763 77.7457 156.204 79.2608C155.806 80.3771 156.125 81.5732 156.125 82.7693C156.125 83.9654 155.646 85.321 154.53 85.5602L141.532 88.989C137.067 90.823 132.442 92.657 127.578 92.657C122.714 92.657 117.611 90.3445 115.697 85.8791C116.414 85.8791 117.052 85.5602 117.531 85.0817C116.255 84.4438 115.298 83.2477 114.979 81.8922Z" fill="#263238"/>
<path d="M125.585 85.9588C124.548 82.6895 123.432 79.3404 122.953 75.9116C122.475 72.4829 122.555 68.8946 123.751 65.6253C123.91 65.1468 125.505 61.7978 125.983 61.8775C126.382 61.8775 125.425 64.9874 125.585 65.3063C127.419 68.4162 127.897 72.1639 127.578 75.6724C127.419 79.3404 126.621 82.53 125.585 85.9588Z" fill="#263238"/>
<path d="M137.067 114.824C131.724 114.745 125.585 102.943 125.585 102.943L125.266 72.8018C124.947 64.1102 129.811 56.6944 138.502 56.6944L139.3 56.7742C147.353 57.1729 153.812 63.7912 153.972 71.8449C154.211 79.3404 154.291 87.713 154.051 91.7C153.493 99.9929 145.121 100.87 145.121 100.87C145.121 100.87 145.041 102.784 145.041 105.256C144.961 110.678 139.22 114.984 137.067 114.824Z" fill="#FFBE9D"/>
<path d="M145.121 100.79C145.121 100.79 139.858 100.79 134.436 96.9628C134.436 96.9628 136.748 103.182 145.121 102.863V100.79Z" fill="#5846DE"/>
<path d="M151.819 77.4267C151.819 78.0646 151.261 78.5431 150.623 78.5431C149.985 78.5431 149.427 78.0646 149.427 77.4267C149.427 76.7888 149.985 76.3104 150.623 76.3104C151.341 76.3104 151.819 76.7888 151.819 77.4267Z" fill="#263238"/>
<path d="M152.058 75.1143C151.899 75.2737 151.022 74.5561 149.746 74.4764C148.47 74.3966 147.513 75.0345 147.354 74.8751C147.274 74.7953 147.433 74.5561 147.912 74.2371C148.31 73.9979 149.028 73.679 149.825 73.7587C150.623 73.8384 151.261 74.1574 151.659 74.4764C151.978 74.7953 152.138 75.0345 152.058 75.1143Z" fill="#263238"/>
<path d="M140.097 77.8254C140.097 78.4633 139.539 78.9418 138.901 78.9418C138.263 78.9418 137.705 78.4633 137.705 77.8254C137.705 77.1875 138.263 76.7091 138.901 76.7091C139.539 76.7091 140.097 77.1875 140.097 77.8254Z" fill="#263238"/>
<path d="M139.459 74.9548C139.3 75.1143 138.423 74.3966 137.147 74.3169C135.871 74.2372 134.914 74.8751 134.755 74.7156C134.675 74.6359 134.834 74.3966 135.313 74.0777C135.712 73.8385 136.429 73.5195 137.227 73.5992C138.024 73.679 138.662 73.9979 139.061 74.3169C139.459 74.6359 139.539 74.8751 139.459 74.9548Z" fill="#263238"/>
<path d="M143.526 85.0817C143.526 85.002 144.323 84.9222 145.599 84.8425C145.918 84.8425 146.237 84.7627 146.317 84.5235C146.397 84.2843 146.317 83.9654 146.157 83.5667C145.918 82.7693 145.599 81.8921 145.36 81.015C144.244 77.4267 143.367 74.3966 143.526 74.3966C143.685 74.3169 144.722 77.2673 145.838 80.8555C146.078 81.7327 146.397 82.6098 146.636 83.4072C146.716 83.8059 146.955 84.2046 146.716 84.683C146.636 84.9222 146.397 85.0817 146.157 85.1614C145.918 85.2412 145.759 85.2412 145.599 85.2412C144.323 85.1614 143.526 85.1614 143.526 85.0817Z" fill="#263238"/>
<path d="M139.699 85.7196C139.938 85.7196 139.858 87.0751 140.974 88.1915C142.091 89.2281 143.606 89.1483 143.606 89.3876C143.606 89.4673 143.287 89.6268 142.649 89.6268C142.011 89.6268 141.134 89.3876 140.416 88.7497C139.699 88.1117 139.459 87.3143 139.459 86.6764C139.459 86.0385 139.619 85.7196 139.699 85.7196Z" fill="#263238"/>
<path d="M139.699 69.7717C139.539 70.0907 138.263 69.8515 136.748 70.011C135.233 70.0907 134.037 70.4894 133.798 70.1704C133.718 70.011 133.957 69.692 134.436 69.373C134.914 69.0541 135.712 68.8149 136.669 68.7351C137.546 68.6554 138.423 68.8946 138.901 69.1338C139.459 69.2933 139.778 69.6123 139.699 69.7717Z" fill="#263238"/>
<path d="M151.739 70.8083C151.5 71.0475 150.623 70.7286 149.586 70.6488C148.55 70.5691 147.593 70.7286 147.433 70.4096C147.354 70.2501 147.513 70.0109 147.912 69.692C148.311 69.4527 148.948 69.2135 149.666 69.2933C150.384 69.373 151.022 69.692 151.341 69.9312C151.739 70.4096 151.819 70.7286 151.739 70.8083Z" fill="#263238"/>
<path d="M125.585 78.9417C125.425 78.862 119.923 76.9483 119.844 82.6097C119.684 88.351 125.505 87.2346 125.505 87.0751C125.505 86.9954 125.585 78.9417 125.585 78.9417Z" fill="#FFBE9D"/>
<path d="M123.83 84.9222C123.83 84.9222 123.751 85.0019 123.591 85.0817C123.432 85.1614 123.113 85.1614 122.874 85.0817C122.315 84.8424 121.757 83.8856 121.757 82.849C121.757 82.2908 121.837 81.8124 122.076 81.4137C122.236 81.015 122.555 80.696 122.874 80.696C123.193 80.6163 123.352 80.8555 123.432 81.015C123.511 81.1744 123.432 81.2542 123.511 81.3339C123.511 81.3339 123.671 81.2542 123.591 81.015C123.591 80.9352 123.511 80.7757 123.352 80.6163C123.193 80.5365 123.033 80.4568 122.794 80.4568C122.315 80.4568 121.917 80.8555 121.757 81.3339C121.518 81.8124 121.359 82.3705 121.359 82.9287C121.359 84.0451 121.917 85.1614 122.794 85.4006C123.193 85.4804 123.512 85.4006 123.671 85.2411C123.83 85.0817 123.83 85.0019 123.83 84.9222Z" fill="#5846DE"/>
<path d="M150.463 62.2762C151.42 61.7978 148.629 58.7677 146.397 57.7311C142.968 56.1363 137.785 55.0997 134.595 55.9768C130.768 57.0134 127.578 58.8475 125.664 62.2762C123.671 65.705 122.953 69.7717 123.033 73.679C123.033 74.8751 123.193 76.1509 123.83 77.1875C124.628 78.4633 126.143 79.2607 126.063 81.015C126.063 81.6529 126.223 82.2908 126.621 82.7692C127.658 83.8856 128.934 82.849 129.572 81.8124C130.847 79.5797 131.007 76.9483 131.166 74.3966C131.246 72.5626 131.406 70.7286 130.847 68.9743C130.608 68.0175 130.13 67.1403 129.891 66.1835C129.651 65.2266 129.731 64.1102 130.369 63.3129C130.449 63.1534 130.608 62.9939 130.847 62.8344C132.442 61.3991 134.755 61.0802 136.748 61.7978C139.938 62.9939 145.44 64.7482 146.875 63.7116C148.948 62.1965 149.427 61.1599 149.427 61.1599L150.463 62.2762Z" fill="#263238"/>
<path d="M134.914 55.0997C138.024 54.0631 141.612 54.2226 144.562 55.7376C146.078 56.535 147.513 57.8906 147.991 59.5651C148.47 61.2397 147.672 63.3129 146.078 63.9508L145.998 64.0305C143.526 64.8279 142.011 64.509 139.539 63.6318C137.545 62.9142 135.711 61.6384 133.638 60.9207C131.485 60.1233 129.093 60.0436 126.86 60.6017C129.013 58.2096 131.724 56.1363 134.914 55.0997Z" fill="#263238"/>
<path d="M124.07 60.7613C124.149 60.8411 124.548 60.2829 125.505 59.645C125.983 59.326 126.542 59.0071 127.259 58.6881C127.977 58.4489 128.774 58.2097 129.572 58.2894C131.246 58.4489 132.681 59.2463 133.559 59.9639C134.436 60.6816 134.834 61.2398 134.914 61.2398C134.914 61.2398 134.834 61.0803 134.675 60.7613C134.515 60.5221 134.196 60.1234 133.718 59.7247C132.841 58.9273 131.406 58.0502 129.572 57.8907C128.694 57.811 127.817 58.0502 127.1 58.3691C126.382 58.6881 125.824 59.0868 125.345 59.4058C124.389 60.1234 123.99 60.7613 124.07 60.7613Z" fill="#455A64"/>
<path d="M123.431 62.8345C123.352 62.8345 123.511 63.4724 123.83 64.4293C124.229 65.3862 124.947 66.662 125.983 67.8581C127.02 69.0542 128.216 69.9313 129.173 70.4097C130.13 70.8882 130.688 71.0476 130.767 71.0476C130.847 70.9679 128.375 70.011 126.302 67.6189C124.229 65.3064 123.591 62.7548 123.431 62.8345Z" fill="#455A64"/>
<path d="M121.119 63.7116C121.119 63.7116 121.039 63.9509 121.119 64.3496C121.119 64.7482 121.199 65.3862 121.358 66.1038C121.677 67.5391 122.475 69.5326 123.99 71.2869C125.505 73.0411 127.339 74.0777 128.774 74.6359C129.492 74.8751 130.05 75.0346 130.449 75.1144C130.847 75.1941 131.086 75.1941 131.086 75.1941C131.086 75.1144 130.209 74.9549 128.854 74.3967C127.498 73.8385 125.744 72.8019 124.229 71.0477C122.794 69.3731 121.916 67.4594 121.597 66.0241C121.279 64.6685 121.199 63.7116 121.119 63.7116Z" fill="#455A64"/>
<path d="M141.453 54.6214C141.453 54.7011 142.011 54.8606 142.968 55.1795C143.925 55.5782 145.121 56.2161 146.237 57.0933C147.433 58.0501 148.23 59.1665 148.789 59.9639C149.347 60.7613 149.586 61.3992 149.666 61.3195C149.666 61.3195 149.506 60.6815 149.028 59.8044C148.549 58.9273 147.672 57.7312 146.476 56.7743C145.28 55.8174 144.004 55.1795 143.047 54.8606C142.091 54.6214 141.453 54.5416 141.453 54.6214Z" fill="#455A64"/>
<path d="M119.365 55.339C119.285 55.339 119.524 57.0135 120.8 58.5285C122.076 60.0436 123.671 60.6018 123.671 60.522C123.75 60.4423 122.315 59.7246 121.119 58.2893C119.843 56.854 119.444 55.2592 119.365 55.339Z" fill="#455A64"/>
<path d="M87.1501 193.128C87.1501 193.128 77.0233 197.115 70.1657 194.564C63.3081 192.092 61.5538 187.068 61.5538 187.068C60.6767 172.954 62.6702 158.841 67.4545 145.524L72.0794 132.447C72.0794 132.447 86.0338 111.316 95.2836 106.532C104.454 101.747 113.145 104.299 112.348 105.096C111.55 105.973 99.0313 182.603 99.0313 182.603L87.1501 193.128Z" fill="#455A64"/>
<path d="M87.5486 169.845C87.5486 169.845 87.1499 169.765 86.3525 169.685C85.4754 169.605 84.2793 169.446 82.7643 169.286C79.5747 168.967 75.1093 168.489 69.687 167.931H69.4478V168.17C69.0491 170.961 68.6504 174.071 68.172 177.26C67.9328 178.855 67.6935 180.53 67.5341 182.284C67.2948 183.958 66.9759 185.792 67.2151 187.626C67.3746 188.982 67.9327 190.338 69.0491 191.135C70.1654 192.012 71.521 192.172 72.7171 192.251C73.9929 192.251 75.189 192.172 76.3851 192.092C77.5812 191.932 78.7773 191.693 79.8139 191.215C80.8505 190.656 81.6479 189.779 82.2061 188.822C82.7643 187.866 83.0832 186.909 83.4819 185.952C84.1198 184.038 84.678 182.284 85.0767 180.609C85.9538 177.34 86.5918 174.629 86.9904 172.795C87.1499 171.918 87.3094 171.2 87.4689 170.642C87.5486 170.084 87.5486 169.845 87.5486 169.845C87.5486 169.845 87.4689 170.084 87.3094 170.562C87.1499 171.12 86.9904 171.758 86.7512 172.635C86.2728 174.469 85.5551 177.101 84.678 180.37C84.1996 181.965 83.7211 183.799 83.0035 185.633C82.6845 186.59 82.2858 187.547 81.8074 188.424C81.2492 189.301 80.5316 190.098 79.5747 190.577C78.6178 191.055 77.5015 191.294 76.3851 191.454C75.2688 191.534 73.9929 191.613 72.7968 191.613C71.6008 191.534 70.4047 191.374 69.4478 190.656C68.4909 189.939 68.0125 188.743 67.853 187.547C67.6138 185.792 67.9328 184.038 68.0922 182.364C68.3314 180.609 68.5707 178.935 68.7301 177.34C69.1288 174.071 69.5275 171.041 69.9262 168.17L69.687 168.409C75.0295 168.888 79.4152 169.207 82.6048 169.526C84.1198 169.605 85.3956 169.765 86.2728 169.845C86.6715 169.845 86.9904 169.924 87.2297 169.924C87.3891 169.845 87.5486 169.845 87.5486 169.845Z" fill="#263238"/>
<path d="M90.3396 110.2C90.2599 110.359 93.3697 111.077 97.1175 112.193C98.9515 112.751 100.626 113.389 101.822 113.947C102.938 114.505 103.497 115.064 103.576 114.984C103.656 114.904 103.178 114.266 101.982 113.549C100.865 112.911 99.1907 112.193 97.277 111.635C95.3632 111.077 93.609 110.678 92.4129 110.439C91.137 110.2 90.3396 110.12 90.3396 110.2Z" fill="#263238"/>
<path d="M78.7775 156.927C78.7775 156.927 78.937 156.289 79.0964 155.013C79.1762 154.375 79.2559 153.658 79.4154 152.78C79.5749 151.903 79.7343 150.946 79.9736 149.83C80.452 147.677 81.1696 145.125 82.0468 142.335C83.0037 139.544 84.12 136.514 85.4756 133.484C88.1867 127.264 91.0573 121.842 93.29 118.014C94.4064 116.1 95.2835 114.506 95.9214 113.469C96.5593 112.432 96.8783 111.794 96.8783 111.794C96.8783 111.794 96.4796 112.353 95.7619 113.389C95.0443 114.426 94.0874 115.941 92.9711 117.855C90.6586 121.682 87.7083 127.025 84.9971 133.244C83.6416 136.354 82.5252 139.384 81.6481 142.175C80.771 144.966 80.0533 147.518 79.6546 149.75C79.4154 150.867 79.2559 151.824 79.1762 152.701C79.0167 153.578 78.937 154.295 78.937 154.933C78.937 155.492 78.8572 155.97 78.8572 156.369C78.7775 156.767 78.7775 156.927 78.7775 156.927Z" fill="#263238"/>
<path d="M72.5922 168.487L82.6755 169.431L83.2401 163.396L73.1567 162.453L72.5922 168.487Z" fill="#EBEBEB"/>
<path d="M72.9565 161.073C73.1957 160.037 77.5016 159.08 77.5016 159.08L77.6611 157.326L80.133 157.565L79.9736 159.319C79.9736 159.319 83.2429 161.153 83.6416 161.791C84.0403 162.429 83.1631 164.582 83.1631 164.582L72.7173 163.625C72.7173 163.625 72.7173 162.19 72.9565 161.073Z" fill="#263238"/>
<path d="M77.8046 166.78C74.9982 166.518 72.7099 166.447 72.6935 166.622C72.6771 166.798 74.9388 167.153 77.7452 167.415C80.5515 167.678 82.8398 167.749 82.8563 167.573C82.8727 167.398 80.611 167.043 77.8046 166.78Z" fill="#E0E0E0"/>
<path d="M73.116 161.073C73.116 161.233 75.4284 161.791 78.3788 162.11C81.3291 162.429 83.801 162.269 83.801 162.19C83.801 162.03 81.4089 161.871 78.4585 161.552C75.5081 161.233 73.116 160.914 73.116 161.073Z" fill="#455A64"/>
<path d="M77.5016 159.08C77.3421 159.16 77.8206 159.797 78.618 159.957C79.4951 160.037 80.0533 159.558 79.9735 159.399C79.8938 159.239 79.3356 159.478 78.6977 159.399C78.0598 159.319 77.5814 159 77.5016 159.08Z" fill="#455A64"/>
<path d="M71.84 132.527C71.84 132.686 74.6308 133.165 77.9799 134.042C81.3289 134.839 84.0401 135.716 84.1198 135.557C84.1996 135.397 81.4884 134.361 78.1394 133.483C74.7106 132.686 71.84 132.367 71.84 132.527Z" fill="#263238"/>
<path d="M64.5838 153.658C64.6635 153.737 65.6204 152.541 67.2151 150.707C68.8099 148.873 71.1224 146.401 73.8335 143.85C76.5446 141.298 79.176 139.225 81.0898 137.71C83.0035 136.274 84.2794 135.397 84.1996 135.318C84.1996 135.318 83.8807 135.477 83.2428 135.796C82.6846 136.115 81.8074 136.673 80.8506 137.391C78.8571 138.826 76.1459 140.899 73.4348 143.451C70.7237 146.003 68.4112 148.554 66.8962 150.468C66.0988 151.425 65.5406 152.222 65.1419 152.78C64.7432 153.259 64.504 153.578 64.5838 153.658Z" fill="#263238"/>
<path d="M64.6636 153.418C64.5838 153.578 67.295 154.933 70.8832 156.129C74.4715 157.325 77.4219 157.804 77.5016 157.644C77.5016 157.485 74.631 156.767 71.1225 155.571C67.5342 154.455 64.7433 153.259 64.6636 153.418Z" fill="#263238"/>
<path d="M71.4414 132.527C71.4414 132.527 71.3617 132.925 71.2819 133.563C71.2022 134.201 71.1224 135.158 71.1224 136.354C71.1224 138.746 71.3617 142.016 72.3185 145.524C73.2754 149.033 74.631 152.063 75.827 154.136C76.3852 155.173 76.9434 155.97 77.3421 156.528C77.7408 157.086 77.98 157.326 77.98 157.326C78.0597 157.246 77.2624 156.05 76.146 153.977C75.0297 151.903 73.7538 148.873 72.797 145.444C71.8401 141.936 71.5211 138.746 71.4414 136.354C71.4414 133.962 71.6009 132.527 71.4414 132.527Z" fill="#263238"/>
<path d="M158.915 259.153L171.195 322.067L157.959 325.177C157.959 325.177 143.605 287.779 141.771 281.878C139.937 275.978 137.864 260.03 137.864 260.03L158.915 259.153Z" fill="#FFBE9D"/>
<path d="M171.594 321.588L174.624 335.623C174.624 335.623 189.615 336.26 190.412 338.732L163.7 346.627L157.48 325.097L171.594 321.588Z" fill="#FD1F6E"/>
<g opacity="0.6">
<g opacity="0.6">
<g opacity="0.6">
<g opacity="0.6">
<g opacity="0.6">
<g opacity="0.6">
<g opacity="0.6">
<g opacity="0.6">
<path opacity="0.6" d="M166.012 336.5C165.534 336.739 165.294 337.457 165.534 337.935C165.773 338.413 166.49 338.653 166.969 338.413C167.447 338.174 167.766 337.377 167.447 336.898C167.128 336.42 166.331 336.181 165.932 336.579" fill="white"/>
</g>
</g>
</g>
</g>
</g>
</g>
</g>
</g>
<path d="M163.779 346.627L163.221 344.474L189.296 337.776C189.296 337.776 190.253 337.935 190.731 338.972L163.779 346.627Z" fill="#263238"/>
<path d="M175.023 335.304C175.023 335.463 174.385 335.702 173.906 336.261C173.348 336.819 173.189 337.457 173.029 337.457C172.87 337.457 172.87 336.659 173.587 335.942C174.225 335.224 175.023 335.224 175.023 335.304Z" fill="#263238"/>
<path d="M178.133 335.782C178.212 335.942 177.654 336.26 177.415 336.978C177.096 337.616 177.096 338.254 177.016 338.334C176.936 338.413 176.618 337.616 177.016 336.819C177.335 335.942 178.133 335.623 178.133 335.782Z" fill="#263238"/>
<path d="M180.604 338.732C180.525 338.812 180.126 338.174 180.285 337.377C180.445 336.579 181.003 336.101 181.083 336.261C181.163 336.34 180.923 336.819 180.764 337.536C180.684 338.174 180.764 338.732 180.604 338.732Z" fill="#263238"/>
<path d="M173.986 332.194C173.986 332.353 173.348 332.274 172.551 332.513C171.833 332.752 171.275 333.151 171.195 333.071C171.115 332.991 171.514 332.353 172.391 332.114C173.268 331.795 174.066 332.114 173.986 332.194Z" fill="#263238"/>
<path d="M173.348 329.403C173.348 329.483 172.87 329.642 171.993 329.722C171.594 329.722 171.036 329.722 170.478 329.642C170.159 329.562 169.919 329.562 169.6 329.403C169.441 329.323 169.281 329.323 169.122 329.164C168.963 329.084 168.803 328.765 168.883 328.446C168.963 328.207 169.202 328.047 169.361 327.968C169.521 327.888 169.76 327.888 169.919 327.888C170.238 327.888 170.557 327.888 170.797 327.968C171.355 328.047 171.833 328.287 172.232 328.446C173.029 328.845 173.348 329.323 173.268 329.323C173.189 329.403 172.79 329.084 172.072 328.765C171.674 328.606 171.195 328.446 170.717 328.366C170.478 328.366 170.159 328.287 169.919 328.287C169.6 328.287 169.361 328.366 169.361 328.526C169.361 328.606 169.361 328.606 169.441 328.685C169.521 328.765 169.68 328.765 169.84 328.845C170.079 328.924 170.398 329.004 170.637 329.084C171.195 329.164 171.674 329.243 172.072 329.243C172.79 329.403 173.268 329.323 173.348 329.403Z" fill="#263238"/>
<path d="M173.189 329.642C173.109 329.642 172.79 329.243 172.471 328.446C172.312 328.047 172.232 327.489 172.312 326.931C172.312 326.612 172.391 326.373 172.471 326.054C172.551 325.735 172.63 325.336 173.189 325.177C173.428 325.097 173.747 325.256 173.827 325.416C173.986 325.575 173.986 325.735 174.066 325.894C174.225 326.213 174.305 326.532 174.305 326.772C174.385 327.33 174.225 327.888 174.066 328.287C173.747 329.084 173.189 329.403 173.189 329.403C173.109 329.323 173.508 329.004 173.747 328.207C173.827 327.808 173.906 327.33 173.827 326.851C173.827 326.612 173.747 326.293 173.587 326.054C173.508 325.815 173.268 325.575 173.189 325.655C173.029 325.655 172.87 325.974 172.79 326.213C172.71 326.453 172.631 326.772 172.631 327.011C172.551 327.569 172.631 328.047 172.71 328.446C173.029 329.164 173.268 329.562 173.189 329.642Z" fill="#263238"/>
<path d="M113.464 264.256L89.1437 334.426L77.103 333.071C77.103 333.071 79.4155 291.208 82.5253 283.553C85.6351 275.978 91.3764 262.183 91.3764 262.183L113.464 264.256Z" fill="#FFBE9D"/>
<path d="M91.2169 329.722L88.0273 343.676C88.0273 343.676 101.344 350.613 101.025 353.245L73.5148 349.019L77.0233 326.931L91.2169 329.722Z" fill="#FD1F6E"/>
<g opacity="0.6">
<g opacity="0.6">
<g opacity="0.6">
<g opacity="0.6">
<g opacity="0.6">
<g opacity="0.6">
<g opacity="0.6">
<g opacity="0.6">
<path opacity="0.6" d="M79.8142 340.885C79.256 340.965 78.7776 341.443 78.7776 342.002C78.7776 342.56 79.3358 343.038 79.8939 343.038C80.4521 343.038 81.0103 342.4 80.9306 341.842C80.8508 341.284 80.2129 340.726 79.6547 340.885" fill="white"/>
</g>
</g>
</g>
</g>
</g>
</g>
</g>
</g>
<path d="M73.5148 349.098L73.9135 346.866L100.307 351.889C100.307 351.889 101.105 352.447 101.105 353.564L73.5148 349.098Z" fill="#263238"/>
<path d="M88.5058 343.676C88.5058 343.836 87.7881 343.756 87.0705 344.075C86.3528 344.394 85.8744 344.872 85.7946 344.792C85.7149 344.713 86.0339 343.995 86.911 343.596C87.7881 343.198 88.5855 343.517 88.5058 343.676Z" fill="#263238"/>
<path d="M91.1371 345.43C91.1371 345.59 90.4992 345.67 89.941 346.148C89.3829 346.626 89.1437 347.185 88.9842 347.185C88.8247 347.185 88.9044 346.387 89.6221 345.829C90.4195 345.191 91.2169 345.271 91.1371 345.43Z" fill="#263238"/>
<path d="M92.1736 349.178C92.0142 349.178 92.0141 348.461 92.4926 347.823C92.971 347.185 93.6887 347.025 93.6887 347.105C93.7684 347.264 93.29 347.583 92.8913 348.062C92.4128 348.62 92.2534 349.178 92.1736 349.178Z" fill="#263238"/>
<path d="M88.9044 340.407C88.8247 340.487 88.2665 340.247 87.4691 340.088C86.6717 340.008 86.0338 340.088 86.0338 340.008C85.954 339.928 86.6717 339.53 87.5488 339.609C88.4259 339.769 88.9841 340.327 88.9044 340.407Z" fill="#263238"/>
<path d="M89.4626 337.536C89.4626 337.616 88.9045 337.536 88.1071 337.297C87.7084 337.137 87.2299 336.898 86.7515 336.579C86.5123 336.42 86.2731 336.26 86.0339 336.021C85.9541 335.941 85.7946 335.782 85.7149 335.622C85.5554 335.463 85.5554 335.064 85.7946 334.905C85.9541 334.745 86.2731 334.666 86.4326 334.745C86.6718 334.745 86.7515 334.825 86.911 334.905C87.23 335.064 87.4692 335.224 87.7084 335.383C88.1868 335.702 88.5855 336.101 88.8247 336.42C89.3829 337.137 89.4627 337.696 89.3829 337.696C89.3032 337.696 89.064 337.217 88.5058 336.659C88.2666 336.34 87.8679 336.021 87.3894 335.702C87.1502 335.543 86.911 335.463 86.6718 335.303C86.4325 335.144 86.1136 335.144 86.0339 335.224C86.0339 335.303 85.9541 335.303 86.0339 335.383C86.1136 335.463 86.1933 335.543 86.2731 335.702C86.5123 335.941 86.6718 336.101 86.911 336.26C87.3097 336.579 87.7881 336.819 88.1071 337.058C88.9842 337.377 89.5424 337.456 89.4626 337.536Z" fill="#263238"/>
<path d="M89.3031 337.696C89.2234 337.696 89.0639 337.217 89.2234 336.34C89.3031 335.941 89.4626 335.383 89.7018 334.905C89.8613 334.666 90.0208 334.426 90.1803 334.107C90.4195 333.868 90.6587 333.549 91.2169 333.549C91.4561 333.629 91.6953 333.868 91.6953 334.028C91.775 334.267 91.7751 334.426 91.7751 334.586C91.7751 334.905 91.6953 335.224 91.6156 335.543C91.4561 336.101 91.0574 336.579 90.7384 336.819C90.1005 337.457 89.4626 337.457 89.4626 337.457C89.4626 337.377 89.941 337.217 90.4992 336.579C90.7384 336.26 91.0574 335.862 91.2169 335.383C91.2966 335.144 91.3764 334.905 91.3764 334.586C91.3764 334.267 91.2966 334.028 91.2169 334.028C91.0574 334.028 90.8182 334.187 90.6587 334.347C90.4992 334.586 90.3397 334.825 90.1803 334.985C89.9411 335.463 89.7816 335.941 89.6221 336.26C89.3031 337.217 89.3829 337.696 89.3031 337.696Z" fill="#263238"/>
<path d="M150.064 194.883L114.261 193.527C114.261 193.527 113.384 215.296 113.464 221.037C113.544 226.779 124.787 243.524 124.787 243.524L135.392 268.562L164.178 259.95L158.676 220.798C158.676 220.798 151.42 199.827 150.304 195.6C150.144 195.122 150.064 194.883 150.064 194.883Z" fill="#263238"/>
<path d="M131.405 231.005C131.326 231.084 113.464 269.359 113.464 269.359L85.4756 261.944L96.8783 226.938C96.8783 226.938 97.9149 209.156 98.5528 205.089C99.1908 201.023 99.2705 200.225 99.2705 200.225L115.617 191.294L141.453 196.876C141.532 196.797 135.153 222.951 131.405 231.005Z" fill="#263238"/>
<path d="M135.312 222.552C135.233 222.552 134.595 223.748 133.558 225.822C132.522 227.895 131.166 230.686 129.731 233.875C128.295 237.065 126.94 239.935 126.063 242.009C125.106 244.082 124.627 245.437 124.707 245.437C124.787 245.437 125.425 244.241 126.461 242.168C127.498 240.095 128.854 237.304 130.289 234.115C131.724 230.925 133.08 228.054 133.957 225.981C134.834 223.908 135.392 222.552 135.312 222.552Z" fill="#455A64"/>
<path d="M94.5658 234.115C94.486 234.274 97.4364 235.55 101.184 236.905C104.932 238.181 108.042 238.979 108.121 238.819C108.201 238.66 105.091 237.623 101.344 236.347C97.5959 235.071 94.6455 233.955 94.5658 234.115Z" fill="#455A64"/>
<path d="M93.2102 239.776C93.2102 239.856 94.0873 240.414 95.7619 241.211C97.3567 242.009 99.6691 242.966 102.3 243.683C102.938 243.843 103.576 244.082 104.214 244.241C104.533 244.321 104.852 244.401 105.171 244.481C105.49 244.56 105.809 244.64 106.208 244.481C106.606 244.321 106.846 244.082 106.925 243.763C107.085 243.524 107.165 243.205 107.244 242.966C107.404 242.487 107.563 242.009 107.723 241.53C108.121 239.776 108.121 238.66 108.042 238.66C107.962 238.66 107.882 239.776 107.324 241.451C107.165 241.849 107.005 242.328 106.846 242.806C106.686 243.285 106.447 243.843 105.968 243.922C105.57 244.082 104.932 243.763 104.294 243.683C103.656 243.524 103.018 243.364 102.38 243.125C99.7488 242.407 97.4364 241.451 95.8416 240.813C94.2468 240.175 93.2102 239.776 93.2102 239.776Z" fill="#455A64"/>
<path d="M88.5853 254.847C88.5853 254.847 88.8245 255.086 89.303 255.485C89.7814 255.883 90.4991 256.362 91.4559 256.92C92.4128 257.478 93.6089 258.036 95.0442 258.276C96.4795 258.515 98.2338 258.196 99.6691 257.239C101.104 256.282 102.141 255.006 102.859 253.73C103.576 252.455 103.975 251.179 104.294 250.142C104.613 249.106 104.772 248.228 104.852 247.67C104.932 247.112 105.012 246.713 104.932 246.713C104.852 246.713 104.533 247.989 103.895 250.062C103.576 251.099 103.098 252.295 102.46 253.491C101.742 254.687 100.785 255.883 99.4299 256.761C98.0743 257.638 96.5592 257.957 95.1239 257.717C93.7684 257.558 92.5723 257 91.6154 256.521C89.7017 255.644 88.5853 254.767 88.5853 254.847Z" fill="#455A64"/>
<path d="M137.625 216.333C137.705 216.333 138.024 215.456 138.343 213.94C138.741 212.425 139.14 210.432 139.379 208.12C139.619 205.807 139.698 203.734 139.698 202.219C139.698 200.704 139.539 199.747 139.539 199.747C139.459 199.747 139.459 200.704 139.379 202.219C139.3 203.734 139.14 205.807 138.901 208.12C138.662 210.432 138.343 212.505 138.024 213.94C137.705 215.376 137.545 216.333 137.625 216.333Z" fill="#263238"/>
<path d="M101.423 202.777C101.344 202.777 101.264 203.574 101.663 204.77C102.061 205.967 103.098 207.561 104.852 208.438C106.607 209.316 108.52 209.236 109.716 208.837C110.912 208.438 111.55 207.88 111.471 207.88C111.391 207.801 110.753 208.199 109.637 208.518C108.52 208.837 106.766 208.837 105.092 208.04C103.497 207.242 102.46 205.807 101.982 204.691C101.583 203.574 101.503 202.777 101.423 202.777Z" fill="#455A64"/>
<path d="M146.715 199.747C146.636 199.747 146.715 200.783 147.114 202.299C147.513 203.814 148.39 205.967 149.745 207.96C151.101 210.033 152.775 211.548 154.051 212.505C155.327 213.462 156.284 213.861 156.284 213.861C156.364 213.701 152.855 211.708 150.144 207.721C147.433 203.654 146.875 199.667 146.715 199.747Z" fill="#455A64"/>
<path d="M135.632 200.624C135.632 200.624 135.472 200.544 135.233 200.624C134.994 200.704 134.595 200.863 134.276 201.182C134.037 201.581 133.718 202.139 133.957 202.857C134.196 203.495 134.834 203.973 135.632 204.053C136.429 204.053 137.067 203.415 137.226 202.857C137.466 202.219 137.226 201.581 136.907 201.262C136.269 200.385 135.552 200.544 135.632 200.624C135.632 200.704 136.19 200.704 136.668 201.421C136.907 201.74 136.987 202.219 136.828 202.618C136.668 203.096 136.19 203.495 135.632 203.495C135.153 203.495 134.595 203.096 134.435 202.697C134.276 202.299 134.356 201.82 134.595 201.501C134.994 200.704 135.632 200.704 135.632 200.624Z" fill="#455A64"/>
<path d="M144.881 106.771C144.881 106.771 155.247 113.389 156.523 117.536C157.799 121.682 160.829 143.212 160.829 143.212L145.758 148.235C145.758 148.315 144.562 106.213 144.881 106.771Z" fill="#FD1F6E"/>
<path d="M144.881 106.771C144.881 106.771 149.746 124.553 150.064 131.33C150.383 138.108 149.108 165.22 149.108 165.22C149.108 165.22 147.114 176.622 147.912 178.775C148.709 180.928 152.855 192.012 152.696 198.152H138.343C138.343 198.152 124.947 197.036 112.188 196.637C105.012 196.398 97.9947 200.943 97.9947 200.943C97.9947 200.943 95.5228 191.853 97.9947 180.29C100.467 168.728 99.8287 155.81 99.8287 155.81C99.749 160.993 101.344 141.138 103.736 113.07C104.374 105.654 105.809 98.4779 113.065 97.9995H125.266C132.442 104.937 140.177 109.641 144.881 106.771Z" fill="#FD1F6E"/>
<path d="M147.433 108.525C151.5 106.691 153.573 109.721 153.892 110.439C154.211 111.077 154.291 111.874 154.37 112.592C154.849 119.29 152.297 135.636 150.304 142.016L149.586 110.2L147.433 108.525Z" fill="#455A64"/>
<g opacity="0.3">
<path opacity="0.3" d="M125.425 123.675C122.953 130.374 120.401 137.151 115.856 142.574C113.624 145.205 110.992 147.438 109.158 150.308C107.484 152.86 106.607 155.81 105.331 158.601C104.135 161.392 102.46 164.103 99.8287 165.698L99.9882 149.511L108.52 129.576L125.425 123.675Z" fill="black"/>
</g>
<path d="M147.593 174.15C147.593 174.15 147.593 173.991 147.593 173.672C147.593 173.353 147.672 172.875 147.752 172.396C147.912 171.28 148.071 169.685 148.31 167.612C148.709 163.625 149.267 158.043 149.506 151.903C149.825 145.763 149.825 140.182 149.825 136.115C149.825 134.121 149.746 132.447 149.746 131.33C149.746 130.772 149.746 130.374 149.746 130.055C149.746 129.736 149.746 129.576 149.746 129.576C149.746 129.576 149.746 129.736 149.825 130.055C149.825 130.374 149.905 130.852 149.905 131.33C149.985 132.447 150.065 134.121 150.144 136.115C150.304 140.182 150.304 145.763 149.985 151.903C149.666 158.043 149.187 163.625 148.629 167.692C148.39 169.685 148.151 171.36 147.991 172.476C147.912 173.034 147.832 173.433 147.752 173.752C147.672 173.991 147.593 174.15 147.593 174.15Z" fill="#263238"/>
<path d="M115.537 170.642C115.537 170.642 115.936 170.722 116.494 171.041C117.212 171.36 118.089 171.758 119.126 172.157C121.358 173.114 124.388 174.39 127.897 175.506C131.405 176.702 134.595 177.579 136.907 178.137C138.024 178.377 138.901 178.616 139.698 178.775C140.336 178.935 140.735 179.015 140.735 179.094C140.735 179.094 140.336 179.094 139.698 178.935C139.06 178.855 138.104 178.616 136.907 178.377C134.515 177.898 131.326 177.021 127.817 175.905C124.309 174.709 121.279 173.433 119.046 172.396C117.93 171.918 117.052 171.439 116.494 171.12C115.856 170.881 115.537 170.642 115.537 170.642Z" fill="#263238"/>
<path d="M110.354 96.2451C112.587 95.1288 115.218 94.8098 117.69 95.2085C120.083 95.6072 123.192 96.7236 125.106 99.5942C128.694 104.857 130.688 110.837 127.498 119.609C123.591 130.453 109.158 144.886 109.158 144.886L120.96 121.682C123.352 117.057 123.99 111.635 122.634 106.611C121.598 102.704 119.365 99.1158 114.82 98.7968C111.63 97.9994 108.52 99.1955 105.49 101.907C105.729 100.232 107.165 97.8399 110.354 96.2451Z" fill="#455A64"/>
<path opacity="0.7" d="M132.283 142.733C132.203 143.132 131.964 143.371 131.645 143.531C130.289 144.248 128.296 144.089 128.056 144.169C127.578 144.248 128.615 145.046 129.332 145.205C130.13 145.444 130.768 145.524 131.645 145.046C132.123 144.727 132.203 144.408 132.841 144.408C133.558 144.408 133 145.444 131.964 145.444C131.645 145.444 130.927 145.444 130.528 145.524C130.369 145.604 130.289 145.684 130.449 145.763C131.007 146.321 131.565 146.481 131.804 146.561C133.957 146.88 134.515 144.408 134.994 143.212C135.074 142.893 135.153 142.574 135.153 142.255C135.791 139.065 136.349 136.115 136.828 134.042C137.306 131.968 137.625 130.693 137.705 130.693C137.785 130.693 137.625 132.048 137.306 134.121C136.987 136.195 136.429 139.145 135.871 142.335C135.632 143.451 135.472 144.567 135.153 145.604C135.153 145.684 135.153 145.684 135.153 145.763C135.472 146.88 136.429 147.518 137.147 147.757C137.227 147.757 137.306 147.837 137.386 147.837C138.662 148.076 139.061 147.757 139.539 147.199C139.619 147.119 139.539 146.959 139.459 146.959C138.901 146.959 138.423 147.119 137.785 146.401C137.226 145.763 136.987 144.567 137.466 144.647C138.582 144.727 138.981 146.401 140.416 146.88C141.134 147.119 141.692 146.959 142.25 146.481C142.41 146.401 142.489 146.242 142.569 146.082C142.808 145.684 142.41 145.923 141.453 145.684C140.576 145.444 140.177 145.046 139.778 144.487C138.981 143.291 138.343 143.212 138.582 143.052C138.981 142.813 140.017 143.77 141.134 143.929C142.011 144.089 143.047 143.929 143.606 143.371C143.845 143.132 143.925 142.893 144.084 142.414C144.323 141.776 144.164 141.138 143.925 140.501C143.845 140.341 143.685 140.421 143.685 140.501C143.606 140.899 143.207 141.537 142.649 141.936C141.772 142.574 139.619 142.494 139.061 141.378C138.901 141.059 139.22 140.899 139.619 140.819C140.815 140.66 141.612 141.298 143.685 140.182C144.403 139.783 144.961 139.225 145.2 138.427C145.28 138.188 145.36 137.789 145.36 137.55C145.36 137.391 145.121 137.391 144.961 137.391C144.403 137.55 144.084 137.869 143.287 138.427C142.808 138.746 141.851 139.384 141.213 139.623C140.416 139.942 139.379 139.384 139.778 139.065C140.655 138.348 141.532 138.746 142.649 138.188C143.925 137.63 145.121 136.514 145.2 135.158C145.2 134.68 145.121 134.042 145.121 133.563C145.121 133.324 144.961 133.324 144.881 133.404C144.722 133.563 144.722 133.802 143.207 134.999C142.808 135.317 142.489 135.716 142.091 136.274C140.815 137.869 138.981 137.55 139.3 136.912C139.938 135.557 143.845 135.557 144.004 132.287C144.004 131.968 143.925 130.374 143.606 130.772C143.526 130.852 143.526 130.852 143.526 130.932C143.127 131.41 143.207 131.49 142.489 131.889C140.974 132.766 141.054 133.244 140.177 134.52C139.858 134.999 139.3 135.158 138.901 135.078C138.502 135.078 138.662 134.6 138.901 134.281C139.778 133.005 142.649 132.367 142.649 129.736C142.649 129.257 142.41 128.061 142.091 128.54C141.931 128.779 141.772 129.736 140.576 130.533C140.177 130.772 139.858 130.932 139.379 131.649C139.3 131.809 139.06 132.128 138.901 132.048C138.742 131.968 138.821 131.809 138.901 131.41C138.981 131.091 139.858 130.214 140.177 129.895C140.735 129.337 141.134 128.938 141.373 128.141C141.612 127.344 141.054 126.626 140.894 127.025C140.735 127.583 140.416 129.257 139.3 129.576C139.22 129.576 139.14 129.576 139.14 129.496C138.901 129.257 139.061 129.018 139.22 128.699C139.619 128.061 140.017 127.662 140.017 125.908C140.017 125.749 140.017 125.589 139.698 125.589C138.423 125.828 137.545 125.35 137.227 126.706C136.908 128.221 137.705 128.938 137.386 129.576C137.306 129.656 137.227 129.736 137.147 129.656C136.987 129.576 136.908 129.497 136.748 129.337C136.27 128.619 136.11 127.503 136.11 126.626C136.11 125.988 136.11 126.068 136.19 125.908C136.19 125.828 136.27 125.828 136.19 125.749C136.03 125.589 135.153 126.147 134.994 127.184C134.914 127.663 134.994 128.54 135.153 129.337C135.392 130.134 135.392 130.214 135.871 131.251C136.03 131.57 136.03 132.208 135.711 132.048C134.595 131.809 134.196 129.815 133.877 128.779C133.638 127.981 133.479 127.902 133.16 126.706C133.16 126.626 133.16 126.626 133.16 126.546C133 126.068 132.522 127.264 132.362 127.742C132.203 128.221 132.283 129.018 132.442 129.496C133 132.367 134.515 132.846 134.914 134.281C134.994 134.44 134.914 134.6 134.755 134.6C134.356 134.68 133.957 134.44 133.558 134.201C131.724 132.925 131.166 130.932 131.166 128.699C131.166 127.981 129.173 129.656 129.572 131.251C129.97 132.766 130.688 133.563 132.203 135.158C132.602 135.636 132.841 135.716 133 136.115C133.08 136.274 133.08 136.434 132.921 136.434C131.485 136.354 131.087 134.6 130.369 133.643C129.572 132.606 129.253 132.367 129.173 131.889C129.093 131.251 128.296 132.128 128.136 132.766C127.817 133.643 128.056 134.44 128.615 135.158C130.608 137.71 131.884 137.55 132.203 138.348C132.283 138.427 132.203 138.507 132.123 138.507C131.406 138.587 131.007 138.188 130.209 138.029C130.05 137.949 129.811 137.949 129.651 137.869C128.136 137.311 127.419 134.44 126.94 134.999C126.86 135.078 126.621 135.557 126.541 135.796C126.143 136.833 127.1 138.268 128.056 138.985C128.455 139.304 128.934 139.384 129.492 139.623C130.369 139.863 130.05 139.703 131.326 140.341C131.645 140.501 131.964 140.74 131.724 140.899C131.326 141.218 131.007 141.378 130.13 141.298C129.97 141.298 129.731 141.218 129.572 141.138C128.694 140.74 128.296 140.182 127.339 139.623C127.179 139.544 126.94 139.464 126.781 139.384C126.781 139.384 126.701 139.384 126.621 139.384C126.382 139.384 126.382 139.464 126.382 139.623C126.382 140.102 126.621 140.74 126.781 141.059C127.02 141.457 127.339 141.856 127.658 142.095C128.056 142.335 128.455 142.494 128.934 142.574C129.173 142.653 129.412 142.653 129.651 142.653C130.927 142.733 132.362 141.856 132.283 142.733ZM137.785 140.979C137.864 141.059 138.024 141.218 137.864 141.378C137.625 141.617 137.067 141.457 136.908 141.298C136.509 140.979 137.147 140.66 137.785 140.979ZM137.785 139.065C137.864 139.145 138.024 139.145 138.104 139.225C138.343 139.384 138.662 139.703 138.343 140.022C137.785 140.501 136.349 140.022 136.828 139.304C137.067 139.065 137.466 139.065 137.785 139.065ZM138.423 137.63C138.662 137.789 138.582 138.108 138.343 138.188C137.944 138.348 137.705 138.348 137.386 138.268C136.748 138.029 137.545 137.072 138.423 137.63ZM138.662 135.796C138.423 136.115 138.024 136.274 137.625 136.195C137.227 136.115 137.466 135.557 138.183 135.477C138.423 135.397 138.742 135.557 138.662 135.796ZM135.552 136.673C133.957 136.434 134.356 134.759 135.711 136.035C135.791 136.115 135.871 136.274 135.871 136.434C135.871 136.593 135.632 136.673 135.552 136.673ZM133.798 138.029C133.399 137.63 133.718 137.151 134.196 137.231C134.755 137.311 135.791 137.949 135.472 138.427C135.074 138.906 134.196 138.507 133.798 138.029ZM133.638 139.942C133.558 139.942 133.558 139.863 133.479 139.783C133.399 139.703 133.399 139.623 133.319 139.544C133.24 139.225 133.558 139.145 133.798 139.225C134.276 139.304 134.595 139.384 134.994 139.783C135.153 139.942 135.074 140.182 134.914 140.261C134.595 140.341 134.117 140.261 133.638 139.942ZM133 140.74C133.16 140.66 133.319 140.74 133.479 140.74C134.356 140.899 134.515 141.457 134.196 141.617C133.877 141.776 133.319 141.537 133 141.298C132.761 141.138 132.841 140.899 133 140.74Z" fill="white"/>
<path d="M120.72 149.352C120.72 149.272 121.438 149.91 123.033 150.149C123.83 150.229 124.787 150.229 125.824 149.91C126.302 149.75 126.94 149.511 127.179 149.033C127.259 148.793 127.259 148.474 127.099 148.235C126.94 147.996 126.621 148.076 126.382 148.235C126.143 148.395 125.983 148.714 125.903 149.033C125.824 149.352 125.824 149.75 125.903 150.069C126.063 150.787 126.462 151.505 127.02 151.983C127.578 152.461 128.455 152.701 129.252 152.701C130.05 152.621 130.927 152.222 131.405 151.505C131.645 151.186 131.804 150.707 131.645 150.308C131.565 149.91 131.246 149.511 130.847 149.431C130.449 149.272 130.05 149.431 129.811 149.83C129.571 150.229 129.492 150.707 129.571 151.186C129.89 153.02 131.485 154.933 133.558 154.933C134.515 154.933 135.552 154.375 136.11 153.578C136.429 153.179 136.588 152.701 136.588 152.222C136.588 151.744 136.509 151.265 136.19 150.946C135.871 150.627 135.472 150.627 135.233 150.946C134.994 151.265 134.914 151.744 134.914 152.222C134.834 153.179 135.073 154.056 135.472 154.854C136.349 156.448 138.343 157.007 139.778 156.289C141.213 155.571 141.612 153.657 140.815 152.621C140.496 152.063 139.778 151.744 139.22 151.903C138.662 151.983 138.422 152.621 138.422 153.179C138.422 153.737 138.582 154.216 138.821 154.614C139.06 155.013 139.3 155.412 139.539 155.651C140.575 156.847 141.453 157.086 141.453 157.086C141.453 157.086 141.373 157.086 141.293 157.007C141.213 157.007 141.054 156.927 140.894 156.847C140.496 156.688 140.017 156.289 139.459 155.731C139.22 155.412 138.901 155.093 138.662 154.614C138.422 154.216 138.263 153.658 138.183 153.099C138.183 152.78 138.263 152.461 138.343 152.222C138.502 151.903 138.821 151.664 139.14 151.584C139.858 151.425 140.575 151.823 140.974 152.461C141.851 153.658 141.453 155.81 139.778 156.608C138.183 157.405 135.951 156.767 134.994 155.013C134.515 154.216 134.276 153.179 134.356 152.142C134.356 151.664 134.435 151.106 134.754 150.627C134.914 150.388 135.233 150.149 135.552 150.149C135.871 150.149 136.19 150.308 136.349 150.548C137.147 151.425 136.907 152.78 136.269 153.658C135.632 154.535 134.595 155.173 133.399 155.173C132.283 155.173 131.166 154.614 130.449 153.817C129.731 153.02 129.173 152.063 129.013 151.026C128.933 150.468 129.013 149.91 129.332 149.431C129.651 148.953 130.289 148.714 130.847 148.873C131.405 149.112 131.724 149.511 131.884 150.069C131.964 150.627 131.804 151.106 131.565 151.584C131.007 152.382 130.05 152.86 129.093 152.86C128.136 152.94 127.259 152.621 126.621 152.063C125.983 151.505 125.505 150.707 125.425 149.91C125.345 149.511 125.345 149.112 125.425 148.714C125.505 148.315 125.744 147.996 126.063 147.757C126.222 147.597 126.382 147.518 126.621 147.518C126.86 147.518 127.02 147.597 127.179 147.757C127.418 148.076 127.418 148.474 127.259 148.793C126.86 149.431 126.222 149.591 125.744 149.83C124.628 150.149 123.671 150.149 122.873 149.99C122.076 149.83 121.518 149.591 121.119 149.431C120.88 149.511 120.72 149.352 120.72 149.352Z" fill="white"/>
<path d="M116.016 123.994C115.776 124.553 98.2338 158.043 98.2338 158.043L93.6089 206.844L83.0833 205.488C83.0833 205.488 79.6545 161.552 81.967 154.854C84.2794 148.155 95.9213 118.173 95.9213 118.173C95.9213 118.173 106.048 96.8034 112.826 98.9563C119.604 101.03 121.996 110.12 116.016 123.994Z" fill="#FFBE9D"/>
<path d="M117.371 99.1956C117.371 99.1956 122.873 105.256 123.033 112.034C123.192 118.811 109.158 144.886 109.158 144.886L86.1931 132.527C86.1931 132.606 104.533 89.9458 117.371 99.1956Z" fill="#FD1F6E"/>
<path d="M93.7684 205.967L96.3998 217.608L94.4063 227.975C94.4063 227.975 91.4559 228.054 92.0938 225.901C92.0938 225.901 90.5788 227.018 89.7814 226.46C88.984 225.822 88.7448 224.785 88.7448 224.785C88.7448 224.785 87.7879 226.22 86.5121 225.423C85.316 224.546 85.3957 223.988 85.3957 223.669C85.3957 223.429 84.4389 223.669 83.6415 223.031C82.8441 222.393 83.163 221.436 83.163 221.436C83.163 221.436 81.5682 221.276 81.2493 220.718C80.9303 220.16 80.8506 219.044 80.8506 219.044C80.8506 219.044 80.6911 216.253 81.1695 215.934C81.5682 215.615 82.3656 215.854 82.3656 215.854L82.5251 213.861C82.5251 213.861 81.7277 210.751 81.9669 209.555C82.1264 208.359 83.7212 203.335 83.7212 203.335L93.7684 205.967Z" fill="#FFBE9D"/>
<path d="M93.9511 224.296C94.9949 223.162 95.7623 222.17 95.6651 222.081C95.5679 221.991 94.6429 222.838 93.5991 223.972C92.5553 225.107 91.7879 226.098 91.8851 226.188C91.9823 226.277 92.9073 225.431 93.9511 224.296Z" fill="#5846DE"/>
<path d="M92.4924 220.479C92.333 220.399 91.5356 221.516 90.4192 222.792C89.3029 224.067 88.1865 224.944 88.2662 225.104C88.346 225.184 89.6218 224.466 90.8179 223.19C92.014 221.835 92.6519 220.559 92.4924 220.479Z" fill="#5846DE"/>
<path d="M89.3028 220.001C89.1433 219.921 88.3459 220.878 87.2296 221.914C86.1132 223.031 85.1564 223.828 85.2361 223.988C85.3158 224.067 86.4322 223.429 87.5485 222.313C88.7446 221.197 89.3825 220.08 89.3028 220.001Z" fill="#5846DE"/>
<path d="M87.0701 217.608C86.9106 217.529 86.1133 218.486 84.9969 219.522C83.8806 220.639 82.9237 221.436 83.0034 221.595C83.0832 221.675 84.1995 221.037 85.3159 219.921C86.512 218.805 87.2296 217.688 87.0701 217.608Z" fill="#5846DE"/>
<path d="M82.6845 219.044C82.844 219.044 83.0034 218.246 82.844 217.21C82.7642 216.173 82.3655 215.455 82.2858 215.535C82.1263 215.615 82.206 216.333 82.3655 217.289C82.4453 218.326 82.525 219.044 82.6845 219.044Z" fill="#5846DE"/>
<path d="M121.837 119.609C121.837 119.609 121.757 119.768 121.597 120.087C121.438 120.486 121.199 120.964 120.959 121.523C120.322 122.798 119.444 124.553 118.408 126.785C116.175 131.251 113.145 137.311 109.796 144.009C109.636 144.328 109.477 144.727 109.318 145.046L109.238 145.205L109.078 145.125C102.699 141.697 97.0376 138.587 92.8115 136.354C90.818 135.238 89.1435 134.361 87.9474 133.643C87.3892 133.324 86.9905 133.085 86.6715 132.925C86.3526 132.766 86.1931 132.686 86.1931 132.606C86.1931 132.606 86.3526 132.686 86.6715 132.846C86.9905 133.005 87.4689 133.244 88.0271 133.563C89.2232 134.201 90.8977 135.078 92.971 136.115C97.1971 138.348 102.859 141.378 109.238 144.806L108.919 144.886C109.078 144.567 109.238 144.248 109.397 143.85C112.746 137.151 115.856 131.171 118.089 126.706C119.205 124.553 120.082 122.798 120.8 121.523C121.119 120.964 121.358 120.486 121.518 120.087C121.757 119.768 121.837 119.609 121.837 119.609Z" fill="#263238"/>
<path d="M82.5253 213.861L76.7043 211.309C75.9069 210.99 75.0298 211.309 74.7109 212.027C74.3122 212.824 74.7109 213.781 75.5082 214.1L83.0037 217.369L82.5253 213.861Z" fill="#263238"/>
<path d="M235.784 304.444C235.784 304.444 235.625 304.604 235.386 305.003C235.067 305.322 234.668 305.8 234.03 306.438C233.392 307.076 232.674 307.793 231.718 308.511C230.761 309.229 229.565 310.026 228.05 310.505C226.614 310.983 224.78 311.063 223.026 310.345C221.351 309.627 219.916 308.192 218.242 307.156C217.444 306.597 216.487 306.119 215.451 306.039C214.414 305.959 213.378 306.119 212.421 306.597C210.427 307.475 208.832 309.149 206.919 310.505C205.962 311.143 204.925 311.78 203.729 312.02C203.171 312.099 202.533 312.099 201.975 312.02C201.417 311.94 200.858 311.701 200.38 311.461C198.387 310.265 197.19 308.431 195.516 307.395C194.719 306.837 193.762 306.597 192.805 306.597C191.848 306.597 190.971 306.916 190.253 307.315C188.658 308.112 187.462 309.309 186.266 310.265C185.07 311.222 183.874 312.02 182.678 312.418C181.482 312.737 180.365 312.737 179.568 312.498C178.691 312.259 178.213 311.78 177.894 311.461C177.734 311.302 177.654 311.143 177.575 311.063C177.495 310.983 177.495 310.903 177.495 310.903C177.495 310.903 177.654 311.143 177.973 311.461C178.292 311.78 178.85 312.179 179.648 312.418C180.445 312.658 181.562 312.658 182.678 312.339C183.794 311.94 184.99 311.143 186.107 310.186C187.303 309.229 188.499 308.033 190.094 307.156C190.891 306.757 191.848 306.438 192.805 306.358C193.841 306.278 194.798 306.597 195.675 307.156C197.43 308.272 198.706 310.106 200.54 311.222C201.018 311.461 201.496 311.701 202.055 311.78C202.613 311.86 203.091 311.86 203.649 311.78C204.686 311.541 205.723 310.983 206.679 310.345C208.593 309.069 210.188 307.395 212.261 306.438C213.298 305.959 214.414 305.72 215.53 305.88C216.647 306.039 217.604 306.518 218.481 307.076C220.155 308.192 221.591 309.548 223.185 310.265C224.78 310.983 226.535 310.903 227.97 310.505C229.405 310.026 230.601 309.309 231.558 308.591C232.515 307.873 233.312 307.156 233.95 306.597C234.588 306.039 235.067 305.561 235.386 305.242C235.625 304.524 235.784 304.365 235.784 304.444Z" fill="#E0E0E0"/>
<path d="M283.707 329.722C280.279 346.786 263.613 357.711 246.629 354.282C229.564 350.853 218.64 334.187 222.069 317.203C225.498 300.139 242.243 288.656 259.148 292.643C275.813 296.551 287.216 312.658 283.707 329.722Z" fill="#9E2DFF"/>
<path d="M224.86 315.369C224.86 315.369 224.86 315.289 224.939 315.05C225.019 314.811 225.099 314.492 225.179 314.093C225.258 313.694 225.418 313.216 225.657 312.578C225.737 312.259 225.896 312.02 225.976 311.701C226.135 311.382 226.295 311.063 226.454 310.744C227.092 309.389 228.129 307.794 229.405 306.199C230.681 304.604 232.196 303.009 233.95 301.415C235.704 299.9 237.538 298.544 239.213 297.507C240.967 296.471 242.562 295.594 243.997 295.035C244.316 294.876 244.715 294.717 245.034 294.637C245.353 294.557 245.672 294.398 245.991 294.318C246.549 294.158 247.027 293.919 247.506 293.839C247.904 293.76 248.223 293.68 248.462 293.6C248.702 293.52 248.781 293.52 248.781 293.52C248.781 293.52 248.702 293.6 248.462 293.68C248.223 293.76 247.904 293.839 247.506 293.999C247.107 294.079 246.628 294.318 246.07 294.477C245.751 294.557 245.512 294.717 245.193 294.796C244.874 294.956 244.555 295.115 244.236 295.275C242.801 295.833 241.286 296.79 239.532 297.826C237.857 298.943 236.023 300.219 234.269 301.734C232.515 303.249 231 304.843 229.724 306.438C228.448 308.033 227.491 309.548 226.773 310.904C225.179 313.535 224.939 315.369 224.86 315.369Z" fill="white"/>
<path d="M223.513 319.134C223.444 319.835 223.46 320.411 223.548 320.419C223.636 320.428 223.762 319.866 223.83 319.165C223.898 318.463 223.883 317.888 223.795 317.879C223.707 317.871 223.581 318.433 223.513 319.134Z" fill="white"/>
<path d="M256.437 347.026C256.437 347.026 256.516 346.946 256.676 346.707C256.835 346.467 257.075 346.228 257.314 345.909C257.473 345.75 257.633 345.511 257.792 345.351C257.952 345.112 258.111 344.873 258.271 344.633C258.59 344.155 259.068 343.517 259.467 342.879C259.706 342.56 259.865 342.161 260.105 341.843C260.344 341.444 260.503 341.045 260.743 340.646C261.141 339.849 261.54 338.892 261.939 337.935C262.656 336.022 263.294 333.789 263.613 331.397C263.932 329.004 263.932 326.692 263.852 324.699C263.773 323.662 263.693 322.705 263.454 321.748C263.374 321.27 263.294 320.871 263.214 320.472C263.135 320.074 262.975 319.675 262.896 319.276C262.736 318.479 262.497 317.841 262.258 317.283C262.178 316.964 262.098 316.725 261.939 316.485C261.859 316.246 261.779 316.007 261.62 315.847C261.46 315.449 261.38 315.13 261.221 314.891C261.141 314.651 261.062 314.572 261.141 314.572C261.141 314.572 261.221 314.651 261.301 314.891C261.38 315.13 261.54 315.449 261.779 315.768C261.859 316.007 262.018 316.166 262.098 316.406C262.178 316.645 262.258 316.964 262.417 317.203C262.656 317.761 262.896 318.479 263.055 319.197C263.135 319.595 263.294 319.994 263.374 320.393C263.454 320.791 263.533 321.27 263.613 321.748C263.852 322.625 263.932 323.662 264.012 324.699C264.171 326.772 264.171 329.084 263.852 331.476C263.533 333.869 262.896 336.101 262.098 338.095C261.699 339.052 261.301 340.008 260.902 340.806C260.663 341.205 260.503 341.603 260.264 342.002C260.025 342.401 259.786 342.72 259.626 343.039C259.228 343.756 258.749 344.314 258.43 344.793C258.271 345.032 258.111 345.271 257.872 345.51C257.712 345.67 257.553 345.909 257.394 346.069C257.154 346.388 256.915 346.627 256.676 346.786C256.516 346.946 256.437 347.105 256.437 347.026Z" fill="#263238"/>
<path d="M281.475 315.369C281.395 315.449 280.518 314.731 278.923 313.854C278.126 313.455 277.089 312.977 275.973 312.578C274.856 312.179 273.581 311.86 272.145 311.621C270.79 311.462 269.434 311.382 268.238 311.462C267.042 311.541 265.926 311.701 265.048 311.86C263.294 312.259 262.178 312.658 262.178 312.578C262.178 312.578 262.417 312.419 262.896 312.259C263.135 312.179 263.454 312.02 263.773 311.94C264.092 311.86 264.49 311.701 264.969 311.621C265.846 311.382 266.962 311.223 268.158 311.143C269.354 311.063 270.71 311.143 272.145 311.302C273.581 311.541 274.856 311.86 275.973 312.259C277.089 312.658 278.126 313.136 278.923 313.615C279.322 313.854 279.641 314.093 279.96 314.253C280.279 314.412 280.518 314.651 280.757 314.811C281.315 315.13 281.555 315.289 281.475 315.369Z" fill="#263238"/>
<path d="M258.829 295.673C258.829 295.673 258.988 295.833 259.148 296.152C259.307 296.471 259.626 297.029 259.866 297.667C260.424 298.943 260.902 300.856 261.062 303.009C261.221 305.162 260.982 307.076 260.663 308.432C260.503 309.149 260.344 309.628 260.184 310.026C260.025 310.425 259.945 310.585 259.945 310.585C259.866 310.585 260.185 309.787 260.424 308.432C260.663 307.076 260.902 305.162 260.743 303.089C260.583 301.016 260.105 299.102 259.626 297.826C259.148 296.471 258.749 295.753 258.829 295.673Z" fill="#263238"/>
<path d="M231.558 320.871C231.558 320.871 231.797 320.552 232.276 319.994C232.515 319.675 232.834 319.356 233.233 319.037C233.631 318.638 234.03 318.24 234.508 317.841C234.748 317.602 235.067 317.442 235.306 317.203C235.625 316.964 235.864 316.804 236.183 316.565C236.821 316.087 237.538 315.688 238.256 315.21C239.771 314.332 241.525 313.535 243.439 312.977C245.353 312.419 247.267 312.1 249.021 311.94C249.898 311.861 250.695 311.861 251.493 311.861C251.892 311.861 252.29 311.861 252.609 311.861C252.928 311.861 253.327 311.94 253.646 311.94C254.284 312.02 254.922 312.1 255.4 312.179C255.958 312.259 256.357 312.339 256.676 312.498C257.394 312.658 257.792 312.817 257.792 312.817C257.792 312.897 256.197 312.419 253.566 312.179C253.247 312.179 252.928 312.1 252.529 312.1C252.21 312.1 251.812 312.1 251.413 312.1C250.616 312.1 249.818 312.179 248.941 312.179C247.187 312.339 245.353 312.658 243.439 313.216C241.525 313.774 239.771 314.572 238.256 315.369C237.538 315.847 236.821 316.166 236.183 316.645C235.864 316.884 235.545 317.044 235.306 317.283C235.067 317.522 234.748 317.681 234.508 317.921C232.674 319.675 231.638 320.951 231.558 320.871Z" fill="#263238"/>
<path d="M250.217 329.244C250.217 329.164 251.014 328.606 252.131 327.41C253.327 326.293 254.762 324.539 256.038 322.386C257.314 320.233 258.111 318.08 258.51 316.485C258.908 314.891 259.068 313.934 259.148 313.934C259.148 313.934 259.148 314.173 259.068 314.651C258.988 315.13 258.909 315.768 258.749 316.565C258.35 318.16 257.633 320.393 256.357 322.546C255.081 324.699 253.566 326.453 252.29 327.569C251.652 328.127 251.174 328.526 250.775 328.845C250.456 329.164 250.297 329.244 250.217 329.244Z" fill="#263238"/>
<path d="M266.085 305.162C266.165 305.242 264.65 306.358 263.215 308.033C261.779 309.707 260.902 311.302 260.743 311.222C260.663 311.222 261.381 309.468 262.896 307.794C264.49 306.039 266.085 305.083 266.085 305.162Z" fill="#263238"/>
<path d="M267.52 317.522C267.441 317.602 266.484 316.246 264.889 315.05C263.294 313.854 261.699 313.455 261.699 313.376C261.699 313.296 263.374 313.535 265.128 314.731C266.723 316.007 267.6 317.522 267.52 317.522Z" fill="#263238"/>
<path d="M249.42 301.016C249.42 301.016 249.579 301.096 249.898 301.255C250.217 301.415 250.695 301.734 251.174 302.053C252.29 302.77 253.646 303.966 255.001 305.481C256.357 306.996 257.393 308.511 257.952 309.628C258.271 310.186 258.51 310.664 258.669 310.983C258.829 311.302 258.909 311.542 258.829 311.542C258.749 311.542 258.43 310.824 257.712 309.708C256.995 308.591 256.038 307.076 254.682 305.641C253.327 304.206 251.971 303.009 250.935 302.212C250.057 301.494 249.42 301.016 249.42 301.016Z" fill="#263238"/>
<path d="M259.626 310.824C258.749 311.143 258.271 312.339 258.59 313.216C258.909 314.093 260.025 314.572 260.982 314.253C261.859 313.934 262.337 312.817 262.018 311.94C261.699 310.983 260.583 310.505 259.626 310.824Z" fill="white"/>
<g opacity="0.5">
<path d="M290 353.911C290 353.578 225.078 352.911 145 352.911C64.8768 352.911 0 353.244 0 353.911C0 354.244 64.922 354.911 145 354.911C225.078 354.578 290 354.244 290 353.911Z" fill="#263238"/>
</g>
</svg>
