<svg width="10" height="13" viewBox="0 0 10 13" fill="none" xmlns="http://www.w3.org/2000/svg">
<path d="M4.875 0C2.18284 0 0 2.18357 0 4.875C0 8.00598 3.51116 11.9136 4.0625 12.5112C4.29029 12.7588 4.48226 13 4.875 13C5.26789 13 5.45899 12.7588 5.6875 12.5112C6.23971 11.9136 9.75 8.00598 9.75 4.875C9.75 2.18357 7.56643 0 4.875 0ZM4.875 7.71882C3.30474 7.71882 2.03118 6.4454 2.03118 4.875C2.03118 3.3046 3.30474 2.03118 4.875 2.03118C6.44526 2.03118 7.71882 3.3046 7.71882 4.875C7.71882 6.4454 6.44526 7.71882 4.875 7.71882Z" fill="#9E2DFF"/>
</svg>
