<svg width="181" height="182" viewBox="0 0 181 182" fill="none" xmlns="http://www.w3.org/2000/svg">
<path d="M90.5 182C140.48 182 181 141.257 181 90.9995C181 40.7417 140.48 0 90.5 0C40.52 0 0 40.7417 0 90.9995C0 141.257 40.52 182 90.5 182Z" fill="#26485F"/>
<path d="M90.5 182C140.48 182 181 141.257 181 90.9995C181 40.7417 140.48 0 90.5 0C40.52 0 0 40.7417 0 90.9995C0 141.257 40.52 182 90.5 182Z" fill="#E2F3FE"/>
<path d="M123.896 91C123.896 91 127.418 44.6048 93.3883 41.24C59.3588 37.8753 60.0008 70.9972 60.0008 70.9972L66.0001 70.6907C66.0001 70.6907 63.5723 46.8109 87.0579 45.1432C110.955 43.4452 117.977 63.3421 117.526 91H123.896Z" fill="#24ABFF"/>
<path d="M123.774 93H117.437C116.867 93 116.327 92.7693 115.928 92.365C115.528 91.9566 115.308 91.4078 115.318 90.836C115.468 81.8159 114.778 74.1241 113.259 67.9693C111.639 61.3529 109.01 56.2776 105.452 52.8846C100.984 48.6219 95.0162 46.8161 87.2194 47.3709C80.952 47.8143 76.1441 49.9973 72.9155 53.8588C67.2678 60.6266 68.1774 70.352 68.1874 70.4483C68.2474 71.0282 68.0672 71.608 67.6974 72.0514C67.3175 72.4958 66.7778 72.7617 66.198 72.7928L60.2205 73.0978C59.6407 73.1279 59.0911 72.9232 58.6713 72.529C58.2515 72.1347 58.0114 71.5889 58.0014 71.0141C57.9914 70.3931 57.8216 55.6977 67.8575 46.3496C74.0649 40.5669 82.7214 38.1782 93.5869 39.2487C108.391 40.7104 118.667 50.2361 123.325 66.7985C126.753 78.9808 125.924 90.5531 125.884 91.0387C125.794 92.1422 124.884 93 123.774 93ZM119.566 88.7423H121.745C121.825 85.0052 121.675 76.4787 119.226 67.8519C116.557 58.3884 112.029 51.6256 105.732 47.6257C106.651 48.2808 107.531 49.0011 108.361 49.7947C115.928 57.0149 119.606 69.7691 119.566 88.7423ZM80.4324 44.2448C76.6439 45.238 73.4151 46.9736 70.7462 49.4486C64.2289 55.5061 62.6896 64.5794 62.3397 68.7237L63.8991 68.6425C63.9191 64.8904 64.6289 57.1645 69.6868 51.1149C72.4257 47.8314 76.0342 45.5319 80.4324 44.2448Z" fill="#24ABFF"/>
<path d="M120.291 153H60.709C53.7205 153 48 147.241 48 140.203V92.7956C48 85.7582 53.7205 80 60.709 80H120.291C127.279 80 133 85.7582 133 92.7956V140.203C133 147.241 127.279 153 120.291 153Z" fill="#009DFF"/>
<path d="M122.299 153H65.7006C58.7068 153 53 147.241 53 140.203V92.7956C53 85.7582 58.7068 80 65.7006 80H122.299C129.283 80 135 85.7582 135 92.7956V140.203C135.01 147.241 129.283 153 122.299 153Z" fill="#24ABFF"/>
<path d="M94.4999 140C105.821 140 115 130.821 115 119.5C115 108.178 105.821 99 94.4999 99C83.1691 99 74 108.178 74 119.5C74 130.821 83.1691 140 94.4999 140Z" fill="#D0ECFF"/>
<path d="M91.9999 140C103.045 140 112 130.821 112 119.5C112 108.178 103.045 99 91.9999 99C80.9454 99 72 108.178 72 119.5C72 130.821 80.9454 140 91.9999 140Z" fill="white"/>
<path d="M143.707 35.8588L145.172 35.0553C145.509 34.8732 145.889 35.1674 145.826 35.5525L145.552 37.254C145.52 37.4071 145.573 37.5636 145.678 37.6724L146.859 38.8767C147.133 39.1498 146.985 39.6259 146.616 39.6825L144.972 39.9312C144.835 39.9534 144.698 40.0499 144.634 40.1886L143.907 41.7369C143.739 42.0877 143.264 42.0877 143.096 41.7369L142.358 40.1886C142.295 40.0499 142.168 39.9534 142.021 39.9312L140.387 39.6825C140.018 39.6259 139.87 39.1509 140.134 38.8767L141.325 37.6724C141.43 37.5636 141.472 37.4071 141.451 37.254L141.167 35.5525C141.103 35.1674 141.494 34.8732 141.831 35.0553L143.285 35.8588C143.422 35.931 143.581 35.931 143.707 35.8588Z" fill="#24ABFF"/>
<path d="M30.5 147C28.5745 147 27 145.205 27 143C27 140.795 28.5745 139 30.5 139C32.4255 139 34 140.795 34 143C34 145.205 32.435 147 30.5 147ZM30.5 140.1C29.0962 140.1 27.9675 141.401 27.9675 143C27.9675 144.599 29.1057 145.899 30.5 145.899C31.8943 145.899 33.0327 144.599 33.0327 143C33.0327 141.401 31.8943 140.1 30.5 140.1Z" fill="#24ABFF"/>
<path d="M32.4168 144.414C33.1944 143.633 33.1944 142.367 32.4168 141.586C31.6285 140.805 30.3609 140.805 29.5832 141.586C28.8056 142.367 28.8056 143.633 29.5832 144.414C30.3609 145.195 31.6285 145.195 32.4168 144.414Z" fill="#24ABFF"/>
<path d="M106.994 165C108.103 165 109 164.329 109 163.5C109 162.671 108.103 162 106.994 162C105.897 162 105 162.671 105 163.5C105 164.329 105.897 165 106.994 165Z" fill="#24ABFF"/>
<path d="M79.0001 31C80.106 31 81 30.3278 81 29.4996C81 28.6713 80.106 28 79.0001 28C77.8943 28 77 28.6713 77 29.4996C77 30.3278 77.8943 31 79.0001 31Z" fill="#24ABFF"/>
</svg>
