<svg width="181" height="182" viewBox="0 0 181 182" fill="none" xmlns="http://www.w3.org/2000/svg">
<path d="M90.5 182C140.48 182 181 141.257 181 90.9995C181 40.7417 140.48 0 90.5 0C40.52 0 0 40.7417 0 90.9995C0 141.257 40.52 182 90.5 182Z" fill="#26485F"/>
<path d="M90.5 182C140.48 182 181 141.257 181 90.9995C181 40.7417 140.48 0 90.5 0C40.52 0 0 40.7417 0 90.9995C0 141.257 40.52 182 90.5 182Z" fill="#E2F3FE"/>
<path d="M152 77.9428V133.057C152 133.123 152 133.191 151.99 133.261C151.99 133.293 151.99 133.325 151.99 133.357C151.99 133.385 151.98 133.418 151.98 133.45C151.98 133.462 151.98 133.475 151.98 133.488C151.97 133.51 151.97 133.53 151.97 133.548C151.96 133.596 151.95 133.644 151.95 133.692C151.94 133.737 151.93 133.785 151.92 133.829C151.92 133.852 151.91 133.875 151.91 133.896C151.91 133.912 151.9 133.931 151.9 133.947C151.89 133.97 151.89 133.992 151.88 134.014C151.87 134.055 151.86 134.097 151.85 134.136C151.85 134.142 151.84 134.151 151.84 134.157C151.821 134.228 151.801 134.299 151.771 134.365C151.771 134.368 151.771 134.372 151.771 134.375C151.761 134.41 151.741 134.445 151.731 134.478C151.721 134.509 151.701 134.538 151.701 134.567C151.691 134.576 151.691 134.586 151.691 134.592C151.651 134.679 151.611 134.768 151.562 134.851C151.552 134.877 151.532 134.909 151.522 134.937C151.502 134.966 151.482 134.992 151.472 135.02C151.452 135.046 151.442 135.075 151.422 135.1C151.392 135.155 151.352 135.209 151.312 135.259C151.292 135.295 151.272 135.324 151.253 135.355C151.193 135.425 151.143 135.496 151.083 135.563C151.043 135.613 151.003 135.662 150.963 135.706C150.914 135.755 150.874 135.799 150.824 135.844C150.804 135.866 150.784 135.885 150.764 135.908C150.744 135.927 150.724 135.945 150.704 135.961C150.674 135.984 150.655 136.007 150.625 136.028C150.615 136.034 150.605 136.041 150.605 136.047C150.535 136.102 150.475 136.153 150.405 136.201C150.405 136.204 150.395 136.21 150.395 136.217C150.336 136.252 150.286 136.29 150.236 136.326C150.216 136.339 150.196 136.352 150.176 136.361C150.146 136.379 150.126 136.399 150.096 136.415C150.066 136.431 150.047 136.444 150.017 136.456C149.997 136.473 149.967 136.489 149.947 136.502C149.757 136.604 149.568 136.69 149.369 136.761C149.359 136.764 149.349 136.77 149.339 136.774C149.319 136.777 149.309 136.783 149.289 136.786C149.249 136.802 149.199 136.818 149.15 136.831C149.07 136.857 148.99 136.875 148.91 136.894C148.871 136.904 148.831 136.914 148.781 136.924C148.761 136.93 148.731 136.934 148.701 136.937C148.671 136.943 148.631 136.95 148.601 136.956C148.591 136.956 148.591 136.956 148.591 136.958C148.562 136.961 148.542 136.964 148.512 136.968C148.492 136.968 148.482 136.971 148.472 136.971C148.452 136.974 148.422 136.977 148.402 136.98C148.382 136.98 148.372 136.984 148.352 136.984C148.312 136.987 148.253 136.99 148.203 136.993C148.133 136.997 148.063 137 147.993 137H49.0065C48.9368 137 48.8669 136.997 48.7972 136.993C48.7473 136.99 48.6976 136.987 48.6478 136.984C48.588 136.98 48.5381 136.974 48.4783 136.964C48.4484 136.962 48.4185 136.959 48.3886 136.952C48.3089 136.942 48.2292 136.926 48.1594 136.91C48.1295 136.907 48.1095 136.9 48.0896 136.894C48.0098 136.875 47.9301 136.856 47.8504 136.83C47.8006 136.814 47.7507 136.801 47.7109 136.786C47.4916 136.712 47.2823 136.619 47.083 136.515C47.0331 136.486 46.9833 136.456 46.9334 136.428C46.8736 136.396 46.8239 136.361 46.7741 136.326C46.4452 136.111 46.1661 135.856 45.917 135.562C45.8572 135.496 45.8073 135.424 45.7475 135.351C45.5681 135.109 45.4185 134.847 45.3089 134.567C45.279 134.502 45.2591 134.432 45.2292 134.365C45.1993 134.299 45.1794 134.228 45.1595 134.157C45.1396 134.087 45.1196 134.017 45.1096 133.947C45.0897 133.881 45.0797 133.816 45.0597 133.749C45.0597 133.74 45.0597 133.727 45.0597 133.717C45.0498 133.653 45.0399 133.586 45.0299 133.523C45.0299 133.52 45.0299 133.513 45.0299 133.507C45.02 133.456 45.0199 133.408 45.01 133.357C45 133.258 45 133.159 45 133.057V77.9428C45 77.4704 45.0897 77.0166 45.2392 76.5956C45.4883 75.9274 45.9169 75.3433 46.465 74.9005C46.465 74.8935 46.475 74.8876 46.485 74.8807L46.6943 74.7245C47.352 74.2678 48.1494 74 49.0065 74H147.993C148.093 74 148.183 74.003 148.273 74.0128C148.292 74.0099 148.312 74.0128 148.332 74.0158C148.422 74.0217 148.512 74.0316 148.601 74.0445C148.621 74.0474 148.641 74.0504 148.661 74.0544C148.741 74.0672 148.821 74.083 148.89 74.1028C148.91 74.1058 148.93 74.1087 148.95 74.1156C149.05 74.1374 149.14 74.1631 149.229 74.1917C149.309 74.2174 149.399 74.2491 149.478 74.2817C149.598 74.3262 149.708 74.3805 149.817 74.4379C149.887 74.4665 149.947 74.4981 150.007 74.5337C150.106 74.5911 150.206 74.6553 150.306 74.7255C150.306 74.7216 150.306 74.7255 150.306 74.7255L150.515 74.8816C150.525 74.8886 150.535 74.8945 150.535 74.9005C150.595 74.942 150.645 74.9874 150.694 75.0309C150.734 75.0635 150.764 75.0981 150.804 75.1337C150.914 75.2395 151.013 75.3512 151.113 75.4727C151.163 75.5261 151.203 75.5805 151.243 75.6348C151.412 75.8612 151.552 76.1073 151.661 76.3692C151.701 76.4404 151.731 76.5126 151.761 76.5867C151.761 76.5897 151.761 76.5926 151.761 76.5966C151.801 76.7142 151.841 76.8358 151.87 76.9574C151.89 77.0177 151.9 77.0759 151.92 77.1362C151.93 77.1837 151.94 77.2282 151.94 77.2766C151.95 77.3241 151.96 77.3725 151.96 77.42C151.97 77.4773 151.98 77.5346 151.98 77.5919C151.99 77.6403 151.99 77.6908 151.99 77.7392C152 77.8054 152 77.8756 152 77.9428Z" fill="#DFE5EA"/>
<path d="M152 76H45C45.2503 75.324 45.6807 74.733 46.2314 74.285C46.2314 74.278 46.2414 74.272 46.2514 74.265L46.4616 74.107L96.0372 36.8235C97.4888 35.7255 99.5112 35.7255 100.963 36.8235L150.538 74.107C150.538 74.104 150.538 74.107 150.538 74.107L150.749 74.265C150.759 74.272 150.769 74.278 150.779 74.285C150.829 74.327 150.879 74.372 150.929 74.417C150.969 74.449 150.999 74.485 151.039 74.52C151.149 74.627 151.249 74.74 151.349 74.863C151.399 74.918 151.439 74.973 151.479 75.028C151.65 75.257 151.79 75.506 151.91 75.771C151.94 75.842 151.97 75.916 152 75.9901C152 75.993 152 75.997 152 76Z" fill="#24ABFF"/>
<path d="M144 134H51V50.1345C51 46.1951 54.2206 43 58.1791 43H136.821C140.789 43 144 46.1941 144 50.1345V134Z" fill="white"/>
<path d="M132.25 63H63.7395C62.7798 63 62 62.2577 62 61.3506V60.6494C62 59.7423 62.7798 59 63.7395 59H132.25C133.21 59 134 59.7423 134 60.6494V61.3506C134 62.2577 133.21 63 132.25 63Z" fill="#E4ECF9"/>
<path d="M132.25 72H63.7395C62.7798 72 62 71.2579 62 70.351V69.6489C62 68.742 62.7798 68 63.7395 68H132.25C133.21 68 134 68.742 134 69.6489V70.351C134 71.2569 133.21 72 132.25 72Z" fill="#E4ECF9"/>
<path d="M132.25 81H63.7395C62.7798 81 62 80.2579 62 79.351V78.6489C62 77.742 62.7798 77 63.7395 77H132.25C133.21 77 134 77.742 134 78.6489V79.351C134 80.2569 133.21 81 132.25 81Z" fill="#E4ECF9"/>
<path d="M132.25 90H63.7395C62.7798 90 62 89.2572 62 88.3505V87.6495C62 86.7419 62.7798 86 63.7395 86H132.25C133.21 86 134 86.7419 134 87.6495V88.3505C134 89.2572 133.21 90 132.25 90Z" fill="#E4ECF9"/>
<path d="M132.25 99H63.7395C62.7798 99 62 98.2579 62 97.3501V96.649C62 95.7421 62.7798 95 63.7395 95H132.25C133.21 95 134 95.7421 134 96.649V97.3501C134 98.2579 133.21 99 132.25 99Z" fill="#E4ECF9"/>
<path d="M98.3441 106.978V106.981C98.1951 107.148 98.0063 107.3 97.7976 107.428L49.2135 137H48.9949C48.5974 137 48.1998 136.942 47.8421 136.83C47.7825 136.814 47.7327 136.798 47.6831 136.783C47.0471 136.565 46.4806 136.192 46.0434 135.706C45.9937 135.662 45.954 135.613 45.9143 135.563C45.7851 135.42 45.6757 135.262 45.5763 135.099C45.5465 135.046 45.5167 134.991 45.4869 134.937C45.4571 134.879 45.4174 134.823 45.3975 134.764C45.1391 134.247 45 133.669 45 133.056V77.9428C45 77.4704 45.0795 77.0166 45.2385 76.5956C45.4869 75.9274 45.9142 75.3433 46.4608 74.9005C46.4608 74.8935 46.4707 74.8876 46.4807 74.8807L46.6893 74.7245C47.3452 74.2678 48.1403 74 48.9949 74H49.909L54.1722 76.5956L93.4947 100.532L94.9754 101.433L97.7976 103.151C98.0063 103.278 98.1951 103.431 98.3441 103.597V103.6C99.2186 104.548 99.2186 106.033 98.3441 106.978Z" fill="#009DFF"/>
<path d="M152 77.9437V133.057C152 133.124 152 133.191 151.99 133.261C151.99 133.294 151.99 133.325 151.99 133.357C151.99 133.385 151.98 133.418 151.98 133.45C151.98 133.463 151.98 133.475 151.98 133.488C151.97 133.51 151.97 133.53 151.97 133.548C151.96 133.596 151.95 133.644 151.95 133.692C151.94 133.737 151.93 133.785 151.921 133.829C151.921 133.836 151.921 133.845 151.921 133.852C151.921 133.865 151.911 133.881 151.911 133.896C151.911 133.912 151.901 133.931 151.901 133.948C151.891 133.97 151.891 133.992 151.881 134.014C151.871 134.056 151.861 134.094 151.851 134.136C151.851 134.142 151.841 134.151 151.841 134.157C151.821 134.229 151.801 134.299 151.771 134.365C151.771 134.368 151.771 134.372 151.771 134.375C151.762 134.41 151.752 134.442 151.732 134.478C151.722 134.506 151.712 134.535 151.702 134.567C151.692 134.573 151.692 134.583 151.692 134.592C151.652 134.679 151.612 134.768 151.563 134.851C151.553 134.877 151.533 134.909 151.523 134.937C151.503 134.966 151.483 134.992 151.473 135.02C151.453 135.046 151.444 135.075 151.424 135.1C151.394 135.155 151.354 135.209 151.314 135.259C151.295 135.295 151.275 135.324 151.255 135.355C151.195 135.429 151.145 135.496 151.086 135.563C151.046 135.614 151.006 135.662 150.966 135.706C150.917 135.755 150.877 135.799 150.827 135.844C150.807 135.866 150.788 135.885 150.768 135.908C150.748 135.927 150.728 135.945 150.708 135.962C150.678 135.984 150.658 136.007 150.629 136.028C150.619 136.034 150.609 136.041 150.609 136.047C150.539 136.102 150.48 136.153 150.41 136.201C150.41 136.204 150.4 136.211 150.4 136.217C150.34 136.252 150.291 136.29 150.241 136.326C150.221 136.339 150.201 136.352 150.181 136.361C150.152 136.379 150.132 136.399 150.102 136.415C150.072 136.431 150.052 136.444 150.022 136.456C150.003 136.473 149.973 136.489 149.953 136.502C149.764 136.604 149.575 136.69 149.377 136.761C149.367 136.764 149.357 136.771 149.347 136.774C149.327 136.777 149.317 136.784 149.297 136.787C149.257 136.802 149.208 136.818 149.158 136.831C149.078 136.857 148.999 136.876 148.919 136.895C148.88 136.904 148.84 136.914 148.79 136.924C148.77 136.93 148.74 136.934 148.711 136.937C148.681 136.943 148.641 136.95 148.611 136.956H148.601C148.572 136.959 148.542 136.965 148.522 136.968C148.502 136.968 148.492 136.971 148.482 136.971C148.462 136.974 148.432 136.977 148.413 136.98C148.393 136.98 148.383 136.984 148.363 136.984C148.323 136.987 148.263 136.99 148.214 136.993C148.144 136.997 148.075 137 148.005 137H147.787L99.2025 107.429C98.9938 107.301 98.8149 107.148 98.6559 106.981V106.978C97.7814 106.03 97.7814 104.552 98.6559 103.6V103.597C98.8149 103.432 98.9938 103.279 99.2025 103.15L102.025 101.432L103.505 100.533L142.828 76.5965L147.091 74H148.005C148.105 74 148.194 74.004 148.283 74.0128C148.303 74.0099 148.323 74.0128 148.343 74.0168C148.432 74.0227 148.522 74.0326 148.611 74.0454C148.631 74.0484 148.651 74.0514 148.671 74.0553C148.75 74.0682 148.83 74.084 148.9 74.1028C148.919 74.1058 148.939 74.1087 148.959 74.1156C149.058 74.1374 149.148 74.164 149.237 74.1927C149.317 74.2184 149.406 74.25 149.486 74.2817C149.605 74.3271 149.714 74.3805 149.824 74.4388C149.893 74.4675 149.953 74.4991 150.013 74.5337C150.112 74.592 150.211 74.6553 150.311 74.7254C150.311 74.7225 150.311 74.7254 150.311 74.7254L150.519 74.8816C150.529 74.8885 150.539 74.8945 150.539 74.9014C150.599 74.9429 150.648 74.9874 150.698 75.0318C150.738 75.0635 150.768 75.0991 150.808 75.1346C150.917 75.2394 151.016 75.3511 151.116 75.4727C151.165 75.5271 151.205 75.5814 151.245 75.6358C151.414 75.8621 151.553 76.1082 151.662 76.3701C151.702 76.4403 151.732 76.5135 151.762 76.5867C151.762 76.5906 151.762 76.5935 151.762 76.5965C151.801 76.7151 151.841 76.8357 151.871 76.9573C151.891 77.0186 151.901 77.0759 151.921 77.1362C151.93 77.1836 151.94 77.2291 151.94 77.2766C151.95 77.325 151.96 77.3724 151.96 77.4198C151.97 77.4782 151.98 77.5355 151.98 77.5928C151.99 77.6403 151.99 77.6917 151.99 77.7391C152 77.8063 152 77.8765 152 77.9437Z" fill="#009DFF"/>
<path opacity="0.29" d="M152 132.239V132.821C152 135.128 150.206 137 147.993 137H49.0065C46.794 137 45 135.128 45 132.821V132.239L95.9087 98.7791C97.4934 97.7403 99.5066 97.7403 101.081 98.7791L152 132.239Z" fill="#474747"/>
<path d="M152 132.483V133.035C152 135.225 150.206 137 147.993 137H49.0065C46.794 137 45 135.224 45 133.035V132.483L95.9087 100.739C97.4934 99.7537 99.5066 99.7537 101.081 100.739L152 132.483Z" fill="#3AB4FF"/>
<path d="M93.2699 54H63.7202C62.7711 54 62 53.2577 62 52.3506V51.6494C62 50.7413 62.7711 50 63.7202 50H93.2699C94.219 50 95 50.7413 95 51.6494V52.3506C95 53.2577 94.219 54 93.2699 54Z" fill="#24ABFF"/>
<path d="M135.707 23.8588L137.172 23.0553C137.509 22.8732 137.889 23.1674 137.826 23.5525L137.552 25.254C137.52 25.4071 137.573 25.5636 137.678 25.6724L138.859 26.8767C139.133 27.1498 138.985 27.6259 138.616 27.6825L136.972 27.9312C136.835 27.9534 136.698 28.0499 136.635 28.1886L135.907 29.7369C135.739 30.0877 135.264 30.0877 135.096 29.7369L134.358 28.1886C134.295 28.0499 134.168 27.9534 134.021 27.9312L132.387 27.6825C132.018 27.6259 131.87 27.1509 132.134 26.8767L133.325 25.6724C133.43 25.5636 133.472 25.4071 133.451 25.254L133.167 23.5525C133.104 23.1674 133.494 22.8732 133.831 23.0553L135.285 23.8588C135.422 23.931 135.581 23.931 135.707 23.8588Z" fill="#24ABFF"/>
<path d="M22.4999 135C20.5745 135 19 133.205 19 131C19 128.795 20.5745 127 22.4999 127C24.4254 127 26 128.795 26 131C26 133.205 24.4349 135 22.4999 135ZM22.4999 128.1C21.0961 128.1 19.9675 129.401 19.9675 131C19.9675 132.599 21.1056 133.899 22.4999 133.899C23.8943 133.899 25.0325 132.599 25.0325 131C25.0325 129.401 23.8943 128.1 22.4999 128.1Z" fill="#24ABFF"/>
<path d="M24.4168 132.414C25.1944 131.633 25.1944 130.367 24.4168 129.586C23.6285 128.805 22.3608 128.805 21.5832 129.586C20.8056 130.367 20.8056 131.633 21.5832 132.414C22.3608 133.195 23.6285 133.195 24.4168 132.414Z" fill="#24ABFF"/>
<path d="M98.994 153C100.103 153 101 152.329 101 151.5C101 150.671 100.103 150 98.994 150C97.8967 150 97 150.671 97 151.5C97 152.329 97.8967 153 98.994 153Z" fill="#24ABFF"/>
<path d="M70.9999 19C72.1058 19 73 18.3278 73 17.4996C73 16.6713 72.1058 16 70.9999 16C69.8941 16 69 16.6713 69 17.4996C69 18.3278 69.8941 19 70.9999 19Z" fill="#24ABFF"/>
</svg>
