<svg width="184" height="299" viewBox="0 0 184 299" fill="none" xmlns="http://www.w3.org/2000/svg">
<path d="M131.251 67.8954C131.251 67.8954 131.17 99.8426 131.413 106.898C131.656 113.953 150.88 153.511 150.88 153.511L161.344 151.053L149.177 108.563L147.717 85.9698L131.251 67.8954Z" fill="#FFBE9D"/>
<path d="M161.182 150.261L167.996 160.17L169.861 170.475C169.861 170.475 167.184 171.823 166.049 167.701C166.049 167.701 165.805 169.841 164.832 170.079C163.778 170.238 163.372 169.524 163.372 169.524C163.372 169.524 162.966 171.268 161.506 170.872C160.046 170.475 159.884 169.921 159.803 169.683C159.722 169.445 158.911 170.079 157.856 169.683C156.802 169.366 156.802 168.414 156.802 168.414C156.802 168.414 155.261 168.811 154.693 168.494C154.206 168.097 153.719 167.067 153.719 167.067C153.719 167.067 152.584 164.53 152.827 164.054C153.071 163.579 153.963 163.579 153.963 163.579L153.395 161.676C153.395 161.676 151.529 159.06 151.286 157.871C151.043 156.682 150.718 151.45 150.718 151.45L161.182 150.261Z" fill="#FFBE9D"/>
<path d="M169.861 170.475C169.861 170.475 169.78 170.555 169.618 170.555C169.456 170.634 169.293 170.634 168.969 170.713C168.726 170.713 168.32 170.713 167.914 170.634C167.509 170.555 167.022 170.317 166.779 169.762C166.292 168.811 165.805 167.622 165.156 166.274C164.508 165.006 163.696 163.579 162.236 162.707C160.857 161.914 159.235 161.518 158.1 160.566C156.964 159.694 156.234 158.505 155.828 157.475C155.423 156.444 155.342 155.572 155.423 154.938C155.423 154.621 155.423 154.383 155.504 154.224C155.504 154.066 155.585 153.987 155.585 153.987C155.666 153.987 155.342 155.334 156.153 157.316C156.558 158.267 157.288 159.377 158.343 160.17C159.397 161.042 161.02 161.359 162.48 162.231C164.021 163.182 164.913 164.688 165.481 166.036C166.049 167.384 166.535 168.573 167.022 169.524C167.184 169.921 167.59 170.158 167.914 170.317C168.239 170.396 168.644 170.475 168.888 170.475C169.537 170.475 169.861 170.396 169.861 170.475Z" fill="#5846DE"/>
<path d="M163.534 169.683C163.453 169.683 163.047 169.207 162.398 168.414C162.074 168.018 161.749 167.463 161.344 166.908C161.182 166.591 160.938 166.274 160.776 165.957C160.614 165.64 160.371 165.243 160.452 164.688C160.614 164.213 161.101 163.975 161.587 163.896C161.993 163.896 162.398 164.054 162.723 164.213C163.372 164.609 163.696 165.243 163.94 165.64C164.426 166.591 164.832 167.067 164.832 167.067C164.751 167.146 164.264 166.67 163.696 165.798C163.372 165.402 163.047 164.847 162.561 164.53C162.317 164.371 161.993 164.213 161.668 164.292C161.344 164.292 161.019 164.53 160.938 164.768C160.857 165.006 161.019 165.402 161.182 165.719C161.344 166.036 161.506 166.353 161.749 166.67C162.074 167.225 162.398 167.78 162.723 168.256C163.21 169.049 163.615 169.603 163.534 169.683Z" fill="#5846DE"/>
<path d="M159.884 169.762C159.803 169.762 158.829 167.939 157.856 165.481C157.775 165.164 157.775 164.768 158.018 164.371C158.262 164.054 158.586 163.896 158.911 163.896C159.56 163.816 160.127 164.213 160.371 164.53C160.938 165.243 161.02 165.798 160.938 165.798C160.857 165.878 160.695 165.323 160.127 164.768C159.884 164.53 159.397 164.213 158.911 164.292C158.667 164.292 158.424 164.451 158.343 164.688C158.181 164.847 158.181 165.164 158.262 165.402C159.235 167.701 159.965 169.683 159.884 169.762Z" fill="#5846DE"/>
<path d="M158.018 165.243C157.937 165.243 157.775 164.768 157.288 164.213C157.045 163.975 156.64 163.658 156.153 163.737C155.666 163.737 155.261 164.213 155.423 164.688C156.315 166.908 157.045 168.811 156.883 168.89C156.802 168.89 155.909 167.146 155.017 164.847C154.936 164.53 154.936 164.054 155.261 163.816C155.504 163.579 155.828 163.42 156.153 163.42C156.802 163.42 157.288 163.816 157.532 164.134C158.018 164.689 158.018 165.164 158.018 165.243Z" fill="#5846DE"/>
<path d="M153.719 163.816C153.638 163.816 153.719 163.658 153.882 163.499C154.125 163.42 154.449 163.42 154.693 163.579C154.936 163.816 155.098 164.054 155.098 164.213C155.098 164.371 155.098 164.53 155.098 164.53C155.017 164.609 154.774 164.134 154.449 163.896C154.287 163.816 154.125 163.737 153.963 163.737C153.882 163.816 153.8 163.816 153.719 163.816Z" fill="#5846DE"/>
<path d="M41.5361 226.958L42.9717 227.697L78.2232 162.247L76.7876 161.509L41.5361 226.958Z" fill="#263238"/>
<path d="M10.7967 294.38C13.619 294.38 15.9069 292.144 15.9069 289.386C15.9069 286.628 13.619 284.392 10.7967 284.392C7.97444 284.392 5.68652 286.628 5.68652 289.386C5.68652 292.144 7.97444 294.38 10.7967 294.38Z" fill="#263238"/>
<path d="M7.71419 292.715C10.5365 292.715 12.8244 290.479 12.8244 287.721C12.8244 284.963 10.5365 282.727 7.71419 282.727C4.89192 282.727 2.604 284.963 2.604 287.721C2.604 290.479 4.89192 292.715 7.71419 292.715Z" fill="#455A64"/>
<path d="M3.00953 280.824L19.3135 289.227C22.0713 290.654 25.5592 289.624 27.0193 286.928L67.5764 211.698C69.0364 209.002 67.9819 205.594 65.2241 204.167L48.9201 195.764C46.1622 194.337 42.6743 195.367 41.2143 198.063L0.657221 273.293C-0.802833 276.068 0.251646 279.397 3.00953 280.824Z" fill="#BDBDBD"/>
<path d="M26.7762 256.725L27.5062 257.122C28.8851 257.835 30.6696 257.28 31.3997 255.932L44.8646 230.961C45.5946 229.614 45.0268 227.87 43.6479 227.156L42.9179 226.76C41.5389 226.046 39.7544 226.601 39.0244 227.949L25.5594 252.92C24.9105 254.268 25.3972 256.012 26.7762 256.725Z" fill="#263238"/>
<path d="M11.1211 285.184C11.04 285.105 21.2604 266 33.9142 242.377C46.6491 218.832 57.0317 199.727 57.1128 199.807C57.1939 199.886 46.9735 218.991 34.3197 242.614C21.5848 266.159 11.2022 285.264 11.1211 285.184Z" fill="#263238"/>
<path d="M54.1925 198.538L59.7082 201.392C60.1949 201.63 60.7627 201.472 61.0872 200.996L61.2494 200.758C61.4927 200.282 61.3305 199.728 60.8438 199.41L55.3281 196.557C54.8414 196.319 54.2736 196.477 53.9491 196.953L53.7869 197.191C53.4624 197.666 53.7058 198.221 54.1925 198.538Z" fill="#263238"/>
<path d="M105.943 28.5756C106.836 29.0513 108.133 28.4171 108.539 27.4658C108.945 26.5145 108.782 25.4047 108.458 24.4534C108.133 23.5021 107.728 22.4716 107.647 21.441C107.566 19.5384 108.863 17.7151 110.648 17.1602C108.863 15.7333 108.701 12.8002 110.324 11.2147C111.054 10.5012 112.108 10.1049 113 9.54995C113.487 9.23286 113.974 8.83649 114.379 8.44012C113.568 8.59867 112.757 8.67794 111.946 8.5194C110.648 8.28158 109.512 7.33029 109.107 6.06192C108.701 4.79354 109.026 3.36661 109.999 2.4946C110.972 1.62259 112.514 1.38477 113.73 1.93968C114.866 2.57387 115.515 3.76298 116.083 4.95208C116.245 5.34845 116.407 5.66555 116.569 6.06192C118.192 3.92153 119.733 1.78114 122.247 1.06767C124.518 0.433485 126.952 1.14695 129.385 0.988402C131.089 0.829855 132.792 0.274936 134.496 0.0371148C136.199 -0.121432 138.146 0.195662 139.2 1.62259C139.768 2.41532 140.011 3.44588 140.579 4.23862C141.796 5.90337 144.554 6.14119 145.527 7.88521C146.338 9.31213 145.689 11.2147 146.095 12.8002C146.5 14.5442 147.96 15.8918 149.177 17.2395C150.394 18.5871 151.448 20.4897 150.799 22.1545C150.232 23.6607 148.447 24.4534 147.879 25.9596C147.474 27.0694 147.798 28.2585 147.798 29.4476C147.798 30.6367 147.312 31.9844 146.176 32.2222L132.954 35.631C128.412 37.4543 123.707 39.2776 118.759 39.2776C113.811 39.2776 108.62 36.9786 106.673 32.5393C107.403 32.5393 108.052 32.2222 108.539 31.7466C107.241 31.1124 106.268 29.9233 105.943 28.5756Z" fill="#263238"/>
<path d="M116.732 32.6185C115.678 29.3683 114.542 26.0388 114.055 22.63C113.569 19.2213 113.65 15.654 114.866 12.4037C115.029 11.9281 116.651 8.59859 117.138 8.67787C117.543 8.67787 116.57 11.7695 116.732 12.0866C118.598 15.1783 119.084 18.9042 118.76 22.3922C118.598 26.0388 117.787 29.2097 116.732 32.6185Z" fill="#263238"/>
<path d="M128.412 61.3155C122.978 61.2362 116.732 49.5038 116.732 49.5038L116.408 19.5383C116.083 10.8975 121.031 3.52504 129.873 3.52504L130.684 3.60432C138.876 4.00068 145.446 10.5804 145.609 18.587C145.852 26.0388 145.933 34.3625 145.69 38.3262C145.122 46.5706 136.605 47.4426 136.605 47.4426C136.605 47.4426 136.524 49.3452 136.524 51.8027C136.443 57.1933 130.603 61.4741 128.412 61.3155Z" fill="#FFBE9D"/>
<path d="M136.605 47.3634C136.605 47.3634 131.252 47.3634 125.736 43.5582C125.736 43.5582 128.088 49.7416 136.605 49.4245V47.3634Z" fill="#5846DE"/>
<path d="M143.419 24.1363C143.419 24.7705 142.851 25.2461 142.202 25.2461C141.553 25.2461 140.985 24.7705 140.985 24.1363C140.985 23.5021 141.553 23.0264 142.202 23.0264C142.932 23.0264 143.419 23.5021 143.419 24.1363Z" fill="#263238"/>
<path d="M143.662 21.8373C143.5 21.9958 142.608 21.2824 141.31 21.2031C140.012 21.1238 139.039 21.758 138.876 21.5995C138.795 21.5202 138.957 21.2824 139.444 20.9653C139.85 20.7275 140.58 20.4104 141.391 20.4896C142.202 20.5689 142.851 20.886 143.257 21.2031C143.581 21.5202 143.743 21.758 143.662 21.8373Z" fill="#263238"/>
<path d="M131.495 24.5326C131.495 25.1668 130.927 25.6425 130.278 25.6425C129.629 25.6425 129.062 25.1668 129.062 24.5326C129.062 23.8984 129.629 23.4228 130.278 23.4228C130.927 23.4228 131.495 23.8984 131.495 24.5326Z" fill="#263238"/>
<path d="M130.846 21.6788C130.683 21.8373 129.791 21.1239 128.493 21.0446C127.196 20.9653 126.222 21.5995 126.06 21.441C125.979 21.3617 126.141 21.1239 126.628 20.8068C127.033 20.569 127.763 20.2519 128.575 20.3311C129.386 20.4104 130.035 20.7275 130.44 21.0446C130.846 21.3617 130.927 21.5995 130.846 21.6788Z" fill="#263238"/>
<path d="M134.982 31.7465C134.982 31.6673 135.794 31.588 137.091 31.5087C137.416 31.5087 137.74 31.4294 137.821 31.1916C137.903 30.9538 137.821 30.6367 137.659 30.2403C137.416 29.4476 137.091 28.5756 136.848 27.7036C135.713 24.1363 134.82 21.1239 134.982 21.1239C135.145 21.0446 136.199 23.9777 137.335 27.545C137.578 28.417 137.903 29.2891 138.146 30.0818C138.227 30.4782 138.47 30.8745 138.227 31.3502C138.146 31.588 137.903 31.7465 137.659 31.8258C137.416 31.9051 137.254 31.9051 137.091 31.9051C135.794 31.8258 134.982 31.8258 134.982 31.7465Z" fill="#263238"/>
<path d="M131.09 32.3807C131.333 32.3807 131.252 33.7283 132.387 34.8381C133.523 35.8687 135.064 35.7894 135.064 36.0272C135.064 36.1065 134.74 36.2651 134.091 36.2651C133.442 36.2651 132.55 36.0273 131.82 35.3931C131.09 34.7589 130.846 33.9661 130.846 33.3319C130.846 32.6978 131.008 32.3807 131.09 32.3807Z" fill="#263238"/>
<path d="M131.09 16.526C130.927 16.8431 129.63 16.6052 128.088 16.7638C126.547 16.8431 125.33 17.2394 125.087 16.9223C125.006 16.7638 125.249 16.4467 125.736 16.1296C126.223 15.8125 127.034 15.5747 128.007 15.4954C128.9 15.4161 129.792 15.654 130.278 15.8918C130.846 16.0503 131.171 16.3674 131.09 16.526Z" fill="#263238"/>
<path d="M143.337 17.5565C143.094 17.7943 142.202 17.4772 141.147 17.3979C140.093 17.3187 139.12 17.4772 138.957 17.1601C138.876 17.0016 139.038 16.7637 139.444 16.4467C139.85 16.2088 140.498 15.971 141.228 16.0503C141.959 16.1296 142.607 16.4467 142.932 16.6845C143.337 17.1601 143.419 17.4772 143.337 17.5565Z" fill="#263238"/>
<path d="M116.732 25.6424C116.57 25.5631 110.973 23.6606 110.892 29.289C110.73 34.9967 116.651 33.8869 116.651 33.7283C116.651 33.6491 116.732 25.6424 116.732 25.6424Z" fill="#FFBE9D"/>
<path d="M114.948 31.5879C114.948 31.5879 114.867 31.6672 114.704 31.7465C114.542 31.8258 114.218 31.8258 113.974 31.7465C113.406 31.5087 112.839 30.5574 112.839 29.5268C112.839 28.9719 112.92 28.4963 113.163 28.0999C113.325 27.7035 113.65 27.3864 113.974 27.3864C114.299 27.3072 114.461 27.545 114.542 27.7035C114.623 27.8621 114.542 27.9414 114.623 28.0206C114.623 28.0206 114.785 27.9414 114.704 27.7035C114.704 27.6243 114.623 27.4657 114.461 27.3072C114.299 27.2279 114.137 27.1486 113.893 27.1486C113.406 27.1486 113.001 27.545 112.839 28.0206C112.595 28.4963 112.433 29.0512 112.433 29.6061C112.433 30.7159 113.001 31.8258 113.893 32.0636C114.299 32.1429 114.623 32.0636 114.785 31.905C114.948 31.7465 114.948 31.6672 114.948 31.5879Z" fill="#5846DE"/>
<path d="M142.039 9.07429C143.013 8.59865 140.174 5.58625 137.902 4.55569C134.414 2.97022 129.142 1.93966 125.897 2.81167C122.004 3.84223 118.759 5.66552 116.813 9.07429C114.785 12.4831 114.055 16.526 114.136 20.4104C114.136 21.5995 114.298 22.8679 114.947 23.8985C115.758 25.1668 117.299 25.9596 117.218 27.7036C117.218 28.3378 117.38 28.972 117.786 29.4476C118.841 30.5574 120.138 29.5269 120.787 28.4963C122.085 26.2767 122.247 23.6606 122.41 21.1239C122.491 19.3006 122.653 17.4773 122.085 15.7333C121.842 14.782 121.355 13.91 121.112 12.9587C120.868 12.0074 120.95 10.8976 121.598 10.1048C121.68 9.9463 121.842 9.78775 122.085 9.62921C123.707 8.20228 126.06 7.88518 128.088 8.59865C131.332 9.78775 136.929 11.5318 138.389 10.5012C140.498 8.99502 140.985 7.96445 140.985 7.96445L142.039 9.07429Z" fill="#263238"/>
<path d="M126.222 1.93965C129.386 0.90909 133.036 1.06764 136.037 2.57384C137.578 3.36657 139.038 4.71422 139.525 6.37897C140.012 8.04372 139.201 10.1048 137.578 10.739L137.497 10.8183C134.983 11.611 133.441 11.2939 130.927 10.4219C128.899 9.70847 127.033 8.44009 124.924 7.72662C122.734 6.93389 120.301 6.85461 118.03 7.40953C120.22 5.03132 122.978 2.9702 126.222 1.93965Z" fill="#263238"/>
<path d="M115.191 7.56817C115.272 7.64744 115.677 7.09253 116.651 6.45834C117.137 6.14125 117.705 5.82415 118.435 5.50706C119.165 5.26924 119.976 5.03141 120.788 5.11069C122.491 5.26924 123.951 6.06197 124.843 6.77543C125.736 7.4889 126.141 8.04382 126.222 8.04382C126.222 8.04382 126.141 7.88526 125.979 7.56817C125.817 7.33035 125.492 6.93398 125.006 6.53762C124.113 5.74488 122.653 4.87287 120.788 4.71432C119.895 4.63505 119.003 4.87287 118.273 5.18996C117.543 5.50706 116.975 5.90343 116.489 6.22052C115.515 6.93398 115.11 7.56817 115.191 7.56817Z" fill="#455A64"/>
<path d="M114.541 9.62924C114.46 9.62924 114.622 10.2634 114.947 11.2147C115.352 12.166 116.082 13.4344 117.137 14.6235C118.191 15.8126 119.408 16.6846 120.381 17.1602C121.355 17.6359 121.923 17.7944 122.004 17.7944C122.085 17.7151 119.57 16.7639 117.461 14.3857C115.352 12.0867 114.703 9.54997 114.541 9.62924Z" fill="#455A64"/>
<path d="M112.189 10.5013C112.189 10.5013 112.108 10.7391 112.189 11.1354C112.189 11.5318 112.27 12.166 112.433 12.8795C112.757 14.3064 113.568 16.2882 115.109 18.0323C116.651 19.7763 118.516 20.8068 119.976 21.3617C120.706 21.5996 121.274 21.7581 121.68 21.8374C122.085 21.9167 122.329 21.9167 122.329 21.9167C122.329 21.8374 121.436 21.6788 120.057 21.1239C118.679 20.569 116.894 19.5385 115.353 17.7944C113.893 16.1297 113.001 14.2271 112.676 12.8002C112.352 11.4525 112.27 10.5013 112.189 10.5013Z" fill="#455A64"/>
<path d="M132.873 1.46406C132.873 1.54334 133.441 1.70188 134.414 2.01898C135.388 2.41535 136.604 3.04954 137.74 3.92155C138.957 4.87283 139.768 5.98266 140.336 6.7754C140.903 7.56813 141.147 8.20232 141.228 8.12305C141.228 8.12305 141.066 7.48886 140.579 6.61685C140.092 5.74484 139.2 4.55573 137.983 3.60445C136.767 2.65317 135.469 2.01898 134.495 1.70189C133.522 1.46407 132.873 1.38479 132.873 1.46406Z" fill="#455A64"/>
<path d="M110.405 2.17748C110.324 2.17748 110.567 3.84222 111.865 5.34842C113.163 6.85462 114.785 7.40954 114.785 7.33026C114.866 7.25099 113.406 6.53753 112.189 5.1106C110.891 3.68367 110.486 2.0982 110.405 2.17748Z" fill="#455A64"/>
<path d="M77.6345 139.162C77.6345 139.162 67.333 143.126 60.3572 140.589C53.3814 138.132 51.5969 133.138 51.5969 133.138C50.7046 119.106 52.7324 105.075 57.5993 91.836L62.3039 78.8351C62.3039 78.8351 76.4989 57.8276 85.9081 53.0712C95.2362 48.3148 104.078 50.8515 103.267 51.6443C102.455 52.5163 89.7205 128.698 89.7205 128.698L77.6345 139.162Z" fill="#455A64"/>
<path d="M78.0398 116.014C78.0398 116.014 77.6342 115.935 76.8231 115.856C75.9308 115.777 74.7141 115.618 73.173 115.459C69.9284 115.142 65.386 114.667 59.8703 114.112H59.6269V114.35C59.2213 117.124 58.8158 120.216 58.3291 123.387C58.0858 124.972 57.8424 126.637 57.6802 128.381C57.4368 130.046 57.1124 131.869 57.3557 133.692C57.5179 135.04 58.0857 136.388 59.2213 137.18C60.3569 138.052 61.7359 138.211 62.9526 138.29C64.2504 138.29 65.4671 138.211 66.6838 138.132C67.9005 137.973 69.1173 137.735 70.1717 137.26C71.2262 136.705 72.0374 135.833 72.6052 134.882C73.173 133.93 73.4974 132.979 73.903 132.028C74.5519 130.125 75.1197 128.381 75.5253 126.716C76.4175 123.466 77.0665 120.771 77.472 118.948C77.6343 118.075 77.7965 117.362 77.9587 116.807C78.0398 116.252 78.0398 116.014 78.0398 116.014C78.0398 116.014 77.9587 116.252 77.7965 116.728C77.6342 117.283 77.472 117.917 77.2287 118.789C76.742 120.612 76.012 123.228 75.1197 126.478C74.633 128.064 74.1463 129.887 73.4163 131.711C73.0919 132.662 72.6863 133.613 72.1996 134.485C71.6318 135.357 70.9018 136.15 69.9284 136.626C68.955 137.101 67.8194 137.339 66.6838 137.498C65.5482 137.577 64.2504 137.656 63.0337 137.656C61.817 137.577 60.6003 137.418 59.6269 136.705C58.6535 135.991 58.1669 134.802 58.0046 133.613C57.7613 131.869 58.0857 130.125 58.248 128.46C58.4913 126.716 58.7347 125.052 58.8969 123.466C59.3025 120.216 59.708 117.203 60.1136 114.35L59.8703 114.587C65.3049 115.063 69.7662 115.38 73.0108 115.697C74.5519 115.777 75.8497 115.935 76.742 116.014C77.1476 116.014 77.472 116.094 77.7154 116.094C77.8776 116.014 78.0398 116.014 78.0398 116.014Z" fill="#263238"/>
<path d="M80.879 56.7177C80.7979 56.8762 83.9613 57.5897 87.7737 58.6995C89.6393 59.2545 91.3427 59.8886 92.5594 60.4436C93.695 60.9985 94.2628 61.5534 94.3439 61.4741C94.425 61.3948 93.9383 60.7607 92.7216 60.0472C91.586 59.413 89.8826 58.6995 87.9359 58.1446C85.9892 57.5897 84.2047 57.1933 82.9879 56.9555C81.6901 56.7177 80.879 56.6384 80.879 56.7177Z" fill="#263238"/>
<path d="M69.1172 103.172C69.1172 103.172 69.2794 102.538 69.4417 101.27C69.5228 100.635 69.6039 99.9219 69.7661 99.0499C69.9283 98.1779 70.0906 97.2266 70.3339 96.1168C70.8206 93.9764 71.5506 91.4396 72.4429 88.6651C73.4162 85.8905 74.5518 82.8781 75.9308 79.8657C78.6886 73.6823 81.6088 68.2917 83.88 64.4866C85.0156 62.584 85.9078 60.9986 86.5567 59.968C87.2056 58.9374 87.5301 58.3032 87.5301 58.3032C87.5301 58.3032 87.1245 58.8582 86.3945 59.8887C85.6645 60.9193 84.6911 62.4255 83.5555 64.328C81.2032 68.1332 78.202 73.4445 75.4441 79.6279C74.0652 82.7195 72.9296 85.7319 72.0373 88.5065C71.145 91.2811 70.415 93.8178 70.0094 96.0375C69.7661 97.1473 69.6039 98.0986 69.5228 98.9706C69.3605 99.8426 69.2794 100.556 69.2794 101.19C69.2794 101.745 69.1983 102.221 69.1983 102.617C69.1172 103.014 69.1172 103.172 69.1172 103.172Z" fill="#263238"/>
<path d="M62.8258 114.665L73.083 115.603L73.6573 109.604L63.4001 108.666L62.8258 114.665Z" fill="#EBEBEB"/>
<path d="M63.196 107.294C63.4393 106.264 67.8195 105.312 67.8195 105.312L67.9817 103.568L70.4963 103.806L70.334 105.55C70.334 105.55 73.6597 107.374 74.0653 108.008C74.4708 108.642 73.5786 110.782 73.5786 110.782L62.9526 109.831C62.9526 109.831 62.9526 108.404 63.196 107.294Z" fill="#263238"/>
<path d="M68.1278 112.968C65.2731 112.707 62.9453 112.637 62.9286 112.811C62.9119 112.985 65.2126 113.338 68.0674 113.599C70.9221 113.86 73.2499 113.931 73.2666 113.756C73.2832 113.582 70.9825 113.229 68.1278 112.968Z" fill="#E0E0E0"/>
<path d="M63.3584 107.294C63.3584 107.453 65.7107 108.008 68.7119 108.325C71.7131 108.642 74.2277 108.483 74.2277 108.404C74.2277 108.246 71.7943 108.087 68.793 107.77C65.7918 107.453 63.3584 107.136 63.3584 107.294Z" fill="#455A64"/>
<path d="M67.8197 105.312C67.6574 105.392 68.1441 106.026 68.9553 106.184C69.8475 106.264 70.4153 105.788 70.3342 105.63C70.2531 105.471 69.6853 105.709 69.0364 105.63C68.3875 105.55 67.9008 105.233 67.8197 105.312Z" fill="#455A64"/>
<path d="M62.0601 78.9144C62.0601 79.0729 64.899 79.5486 68.3058 80.4206C71.7126 81.2133 74.4705 82.0853 74.5516 81.9268C74.6328 81.7682 71.8749 80.7376 68.4681 79.8656C64.9802 79.0729 62.0601 78.7558 62.0601 78.9144Z" fill="#263238"/>
<path d="M54.6791 99.9219C54.7602 100.001 55.7336 98.8121 57.3559 96.9888C58.9782 95.1655 61.3305 92.708 64.0883 90.1712C66.8462 87.6345 69.523 85.5734 71.4697 84.0672C73.4165 82.6403 74.7143 81.7682 74.6332 81.689C74.6332 81.689 74.3087 81.8475 73.6598 82.1646C73.092 82.4817 72.1998 83.0366 71.2264 83.7501C69.1985 85.177 66.4407 87.2381 63.6828 89.7749C60.9249 92.3116 58.5726 94.8484 57.0314 96.751C56.2203 97.7022 55.6525 98.495 55.2469 99.0499C54.8413 99.5255 54.598 99.8426 54.6791 99.9219Z" fill="#263238"/>
<path d="M54.76 99.684C54.6789 99.8426 57.4368 101.19 61.0869 102.379C64.7371 103.568 67.7383 104.044 67.8194 103.886C67.8194 103.727 64.8993 103.014 61.3303 101.824C57.6802 100.715 54.8412 99.5255 54.76 99.684Z" fill="#263238"/>
<path d="M61.655 78.9144C61.655 78.9144 61.5739 79.3108 61.4928 79.945C61.4117 80.5791 61.3306 81.5304 61.3306 82.7195C61.3306 85.0977 61.5739 88.348 62.5473 91.836C63.5206 95.324 64.8996 98.3364 66.1163 100.398C66.6841 101.428 67.2519 102.221 67.6575 102.776C68.063 103.331 68.3064 103.568 68.3064 103.568C68.3875 103.489 67.5764 102.3 66.4408 100.239C65.3052 98.1779 64.0073 95.1655 63.034 91.7567C62.0606 88.2687 61.7361 85.0977 61.655 82.7195C61.655 80.3413 61.8172 78.9144 61.655 78.9144Z" fill="#263238"/>
<path d="M150.637 204.801L163.129 267.348L149.664 270.439C149.664 270.439 135.063 233.26 133.198 227.394C131.332 221.528 129.223 205.673 129.223 205.673L150.637 204.801Z" fill="#FFBE9D"/>
<path d="M163.534 266.872L166.617 280.824C166.617 280.824 181.866 281.458 182.677 283.916L155.504 291.764L149.177 270.36L163.534 266.872Z" fill="#222222"/>
<g opacity="0.6">
<g opacity="0.6">
<g opacity="0.6">
<g opacity="0.6">
<g opacity="0.6">
<g opacity="0.6">
<g opacity="0.6">
<g opacity="0.6">
<path opacity="0.6" d="M157.856 281.696C157.369 281.934 157.126 282.648 157.369 283.123C157.613 283.599 158.343 283.837 158.829 283.599C159.316 283.361 159.641 282.568 159.316 282.093C158.992 281.617 158.181 281.379 157.775 281.776" fill="white"/>
</g>
</g>
</g>
</g>
</g>
</g>
</g>
</g>
<path d="M155.585 291.764L155.017 289.624L181.541 282.965C181.541 282.965 182.515 283.123 183.001 284.154L155.585 291.764Z" fill="#263238"/>
<path d="M167.022 280.507C167.022 280.666 166.373 280.904 165.887 281.459C165.319 282.013 165.157 282.648 164.995 282.648C164.832 282.648 164.832 281.855 165.562 281.141C166.211 280.428 167.022 280.428 167.022 280.507Z" fill="#263238"/>
<path d="M170.186 280.983C170.267 281.141 169.699 281.458 169.456 282.172C169.131 282.806 169.131 283.44 169.05 283.52C168.969 283.599 168.645 282.806 169.05 282.013C169.375 281.141 170.186 280.824 170.186 280.983Z" fill="#263238"/>
<path d="M172.7 283.916C172.619 283.995 172.214 283.361 172.376 282.568C172.538 281.776 173.106 281.3 173.187 281.459C173.268 281.538 173.025 282.013 172.862 282.727C172.781 283.361 172.863 283.916 172.7 283.916Z" fill="#263238"/>
<path d="M165.968 277.416C165.968 277.574 165.319 277.495 164.508 277.733C163.778 277.97 163.21 278.367 163.129 278.288C163.048 278.208 163.453 277.574 164.346 277.336C165.238 277.019 166.049 277.336 165.968 277.416Z" fill="#263238"/>
<path d="M165.319 274.641C165.319 274.72 164.832 274.879 163.94 274.958C163.534 274.958 162.967 274.958 162.399 274.879C162.074 274.799 161.831 274.8 161.506 274.641C161.344 274.562 161.182 274.562 161.02 274.403C160.858 274.324 160.695 274.007 160.776 273.69C160.858 273.452 161.101 273.293 161.263 273.214C161.425 273.135 161.669 273.135 161.831 273.135C162.155 273.135 162.48 273.135 162.723 273.214C163.291 273.293 163.778 273.531 164.183 273.69C164.994 274.086 165.319 274.562 165.238 274.562C165.157 274.641 164.751 274.324 164.021 274.007C163.615 273.848 163.129 273.69 162.642 273.61C162.399 273.61 162.074 273.531 161.831 273.531C161.506 273.531 161.263 273.61 161.263 273.769C161.263 273.848 161.263 273.848 161.344 273.928C161.425 274.007 161.588 274.007 161.75 274.086C161.993 274.165 162.318 274.245 162.561 274.324C163.129 274.403 163.615 274.482 164.021 274.482C164.751 274.641 165.238 274.562 165.319 274.641Z" fill="#263238"/>
<path d="M165.156 274.879C165.075 274.879 164.751 274.482 164.426 273.69C164.264 273.293 164.183 272.738 164.264 272.183C164.264 271.866 164.345 271.629 164.426 271.311C164.508 270.994 164.589 270.598 165.156 270.439C165.4 270.36 165.724 270.519 165.805 270.677C165.968 270.836 165.968 270.994 166.049 271.153C166.211 271.47 166.292 271.787 166.292 272.025C166.373 272.58 166.211 273.135 166.049 273.531C165.724 274.324 165.156 274.641 165.156 274.641C165.075 274.562 165.481 274.245 165.724 273.452C165.805 273.055 165.887 272.58 165.805 272.104C165.805 271.866 165.724 271.549 165.562 271.311C165.481 271.074 165.238 270.836 165.156 270.915C164.994 270.915 164.832 271.232 164.751 271.47C164.67 271.708 164.589 272.025 164.589 272.263C164.508 272.818 164.589 273.293 164.67 273.69C164.994 274.403 165.238 274.799 165.156 274.879Z" fill="#263238"/>
<path d="M104.403 209.874L79.6628 279.635L67.4146 278.288C67.4146 278.288 69.7669 236.669 72.9303 229.059C76.0938 221.528 81.934 207.813 81.934 207.813L104.403 209.874Z" fill="#FFBE9D"/>
<path d="M81.7715 274.958L78.5269 288.831C78.5269 288.831 92.073 295.728 91.7485 298.344L63.7642 294.142L67.3332 272.183L81.7715 274.958Z" fill="#222222"/>
<g opacity="0.6">
<g opacity="0.6">
<g opacity="0.6">
<g opacity="0.6">
<g opacity="0.6">
<g opacity="0.6">
<g opacity="0.6">
<g opacity="0.6">
<path opacity="0.6" d="M70.1722 286.056C69.6044 286.136 69.1177 286.611 69.1177 287.166C69.1177 287.721 69.6855 288.197 70.2533 288.197C70.8211 288.197 71.3889 287.562 71.3078 287.008C71.2267 286.453 70.5777 285.898 70.0099 286.056" fill="white"/>
</g>
</g>
</g>
</g>
</g>
</g>
</g>
</g>
<path d="M63.7642 294.221L64.1697 292.002L91.0185 296.996C91.0185 296.996 91.8296 297.551 91.8296 298.661L63.7642 294.221Z" fill="#263238"/>
<path d="M79.0135 288.831C79.0135 288.989 78.2835 288.91 77.5535 289.227C76.8234 289.544 76.3368 290.02 76.2557 289.941C76.1745 289.861 76.499 289.148 77.3913 288.752C78.2835 288.355 79.0947 288.672 79.0135 288.831Z" fill="#263238"/>
<path d="M81.6904 290.575C81.6904 290.733 81.0415 290.813 80.4737 291.288C79.9059 291.764 79.6626 292.319 79.5004 292.319C79.3382 292.319 79.4193 291.526 80.1493 290.971C80.9604 290.337 81.7716 290.416 81.6904 290.575Z" fill="#263238"/>
<path d="M82.745 294.301C82.5827 294.301 82.5827 293.587 83.0694 292.953C83.5561 292.319 84.2861 292.16 84.2861 292.24C84.3673 292.398 83.8806 292.715 83.475 293.191C82.9883 293.746 82.8261 294.301 82.745 294.301Z" fill="#263238"/>
<path d="M79.419 285.581C79.3378 285.66 78.77 285.422 77.9589 285.264C77.1477 285.184 76.4988 285.264 76.4988 285.184C76.4177 285.105 77.1478 284.709 78.04 284.788C78.9323 284.946 79.5001 285.501 79.419 285.581Z" fill="#263238"/>
<path d="M79.9869 282.727C79.9869 282.806 79.4191 282.727 78.608 282.489C78.2024 282.33 77.7157 282.093 77.2291 281.775C76.9857 281.617 76.7424 281.458 76.499 281.221C76.4179 281.141 76.2557 280.983 76.1746 280.824C76.0124 280.666 76.0124 280.269 76.2557 280.111C76.4179 279.952 76.7424 279.873 76.9046 279.952C77.1479 279.952 77.2291 280.031 77.3913 280.111C77.7158 280.269 77.9591 280.428 78.2024 280.586C78.6891 280.903 79.0947 281.3 79.338 281.617C79.9058 282.33 79.987 282.885 79.9058 282.885C79.8247 282.885 79.5814 282.41 79.0136 281.855C78.7702 281.538 78.3647 281.221 77.878 280.903C77.6346 280.745 77.3913 280.666 77.1479 280.507C76.9046 280.349 76.5801 280.349 76.499 280.428C76.499 280.507 76.4179 280.507 76.499 280.586C76.5801 280.666 76.6613 280.745 76.7424 280.903C76.9857 281.141 77.148 281.3 77.3913 281.458C77.7969 281.775 78.2836 282.013 78.608 282.251C79.5003 282.568 80.068 282.647 79.9869 282.727Z" fill="#263238"/>
<path d="M79.8248 282.885C79.7437 282.885 79.5815 282.41 79.7437 281.538C79.8248 281.141 79.9871 280.586 80.2304 280.111C80.3926 279.873 80.5549 279.635 80.7171 279.318C80.9605 279.08 81.2038 278.763 81.7716 278.763C82.0149 278.842 82.2583 279.08 82.2583 279.239C82.3394 279.477 82.3394 279.635 82.3394 279.794C82.3394 280.111 82.2583 280.428 82.1772 280.745C82.0149 281.3 81.6093 281.776 81.2849 282.013C80.636 282.648 79.9871 282.648 79.9871 282.648C79.9871 282.568 80.4738 282.41 81.0416 281.776C81.2849 281.458 81.6094 281.062 81.7716 280.586C81.8527 280.349 81.9338 280.111 81.9338 279.794C81.9338 279.477 81.8527 279.239 81.7716 279.239C81.6094 279.239 81.366 279.397 81.2038 279.556C81.0415 279.794 80.8793 280.032 80.7171 280.19C80.4738 280.666 80.3115 281.141 80.1493 281.458C79.8248 282.41 79.906 282.885 79.8248 282.885Z" fill="#263238"/>
<path d="M141.634 140.906L105.213 139.559C105.213 139.559 104.321 161.201 104.402 166.908C104.483 172.616 115.92 189.263 115.92 189.263L126.709 214.155L155.991 205.594L150.394 166.67C150.394 166.67 143.013 145.821 141.877 141.62C141.715 141.144 141.634 140.906 141.634 140.906Z" fill="#E9F5DB"/>
<path d="M122.653 176.817C122.572 176.897 104.402 214.948 104.402 214.948L75.9312 207.576L87.5305 172.774C87.5305 172.774 88.585 155.096 89.2339 151.053C89.8828 147.01 89.9639 146.218 89.9639 146.218L106.592 137.339L132.873 142.888C132.954 142.809 126.465 168.811 122.653 176.817Z" fill="#E9F5DB"/>
<path d="M126.627 168.414C126.546 168.414 125.897 169.603 124.843 171.665C123.788 173.726 122.41 176.5 120.949 179.671C119.489 182.842 118.11 185.696 117.218 187.757C116.245 189.818 115.758 191.166 115.839 191.166C115.92 191.166 116.569 189.977 117.624 187.916C118.678 185.855 120.057 183.08 121.517 179.909C122.977 176.738 124.356 173.884 125.249 171.823C126.141 169.762 126.709 168.414 126.627 168.414Z" fill="#455A64"/>
<path d="M85.1779 179.909C85.0968 180.068 88.098 181.336 91.9103 182.684C95.7227 183.952 98.8862 184.745 98.9673 184.586C99.0484 184.428 95.8849 183.397 92.0726 182.129C88.2602 180.86 85.259 179.751 85.1779 179.909Z" fill="#455A64"/>
<path d="M83.7993 185.538C83.7993 185.617 84.6916 186.172 86.395 186.964C88.0173 187.757 90.3696 188.708 93.0463 189.422C93.6952 189.58 94.3441 189.818 94.9931 189.977C95.3175 190.056 95.642 190.135 95.9664 190.215C96.2909 190.294 96.6153 190.373 97.0209 190.215C97.4265 190.056 97.6698 189.818 97.751 189.501C97.9132 189.263 97.9943 188.946 98.0754 188.708C98.2376 188.233 98.3999 187.757 98.5621 187.282C98.9677 185.538 98.9677 184.428 98.8865 184.428C98.8054 184.428 98.7243 185.538 98.1565 187.202C97.9943 187.599 97.8321 188.074 97.6698 188.55C97.5076 189.026 97.2643 189.58 96.7776 189.66C96.372 189.818 95.7231 189.501 95.0742 189.422C94.4253 189.263 93.7764 189.105 93.1274 188.867C90.4507 188.154 88.0984 187.202 86.4761 186.568C84.8538 185.934 83.7993 185.538 83.7993 185.538Z" fill="#455A64"/>
<path d="M79.0942 200.52C79.0942 200.52 79.3376 200.758 79.8243 201.154C80.3109 201.551 81.041 202.026 82.0143 202.581C82.9877 203.136 84.2044 203.691 85.6645 203.929C87.1245 204.167 88.909 203.85 90.3691 202.898C91.8291 201.947 92.8836 200.679 93.6137 199.41C94.3437 198.142 94.7492 196.874 95.0737 195.843C95.3982 194.813 95.5604 193.941 95.6415 193.386C95.7226 192.831 95.8037 192.434 95.7226 192.434C95.6415 192.434 95.317 193.703 94.6681 195.764C94.3437 196.794 93.857 197.983 93.2081 199.173C92.4781 200.362 91.5047 201.551 90.1257 202.423C88.7468 203.295 87.2056 203.612 85.7456 203.374C84.3666 203.216 83.1499 202.661 82.1766 202.185C80.2298 201.313 79.0942 200.441 79.0942 200.52Z" fill="#455A64"/>
<path d="M128.98 162.231C129.061 162.231 129.385 161.359 129.71 159.853C130.115 158.347 130.521 156.365 130.764 154.066C131.007 151.767 131.089 149.706 131.089 148.2C131.089 146.693 130.926 145.742 130.926 145.742C130.845 145.742 130.845 146.693 130.764 148.2C130.683 149.706 130.521 151.767 130.277 154.066C130.034 156.365 129.71 158.426 129.385 159.853C129.061 161.28 128.899 162.231 128.98 162.231Z" fill="#E9F5DB"/>
<path d="M92.1541 148.755C92.073 148.755 91.9919 149.547 92.3975 150.736C92.803 151.925 93.8575 153.511 95.642 154.383C97.4265 155.255 99.3733 155.176 100.59 154.779C101.807 154.383 102.456 153.828 102.374 153.828C102.293 153.749 101.644 154.145 100.509 154.462C99.3733 154.779 97.5888 154.779 95.8854 153.987C94.2631 153.194 93.2086 151.767 92.7219 150.657C92.3164 149.547 92.2352 148.755 92.1541 148.755Z" fill="#455A64"/>
<path d="M138.227 145.742C138.145 145.742 138.227 146.773 138.632 148.279C139.038 149.785 139.93 151.925 141.309 153.907C142.688 155.968 144.391 157.475 145.689 158.426C146.987 159.377 147.96 159.774 147.96 159.774C148.041 159.615 144.472 157.633 141.714 153.669C138.957 149.627 138.389 145.663 138.227 145.742Z" fill="#455A64"/>
<path d="M126.952 146.614C126.952 146.614 126.789 146.535 126.546 146.614C126.303 146.693 125.897 146.852 125.573 147.169C125.329 147.565 125.005 148.12 125.248 148.834C125.492 149.468 126.141 149.944 126.952 150.023C127.763 150.023 128.412 149.389 128.574 148.834C128.817 148.2 128.574 147.565 128.25 147.248C127.601 146.376 126.871 146.535 126.952 146.614C126.952 146.693 127.519 146.693 128.006 147.407C128.25 147.724 128.331 148.2 128.168 148.596C128.006 149.072 127.519 149.468 126.952 149.468C126.465 149.468 125.897 149.072 125.735 148.675C125.573 148.279 125.654 147.803 125.897 147.486C126.303 146.693 126.952 146.693 126.952 146.614Z" fill="#455A64"/>
<path d="M136.361 53.3089C136.361 53.3089 146.906 59.8886 148.203 64.0109C149.501 68.1331 152.583 89.537 152.583 89.537L137.253 94.5312C137.253 94.6105 136.036 52.754 136.361 53.3089Z" fill="#4A9FD3"/>
<path d="M136.361 53.3089C136.361 53.3089 141.309 70.987 141.633 77.7252C141.958 84.4635 140.66 111.417 140.66 111.417C140.66 111.417 138.632 122.753 139.443 124.893C140.254 127.033 144.472 138.052 144.31 144.157H129.71C129.71 144.157 116.082 143.047 103.104 142.65C95.8039 142.413 88.6659 146.931 88.6659 146.931C88.6659 146.931 86.1514 137.894 88.6659 126.399C91.1804 114.905 90.5315 102.062 90.5315 102.062C90.4504 107.215 92.0727 87.4759 94.5061 59.5716C95.1551 52.1991 96.6151 45.0645 103.996 44.5889H116.407C123.707 51.4857 131.575 56.1628 136.361 53.3089Z" fill="#4A9FD3"/>
<path d="M138.957 55.053C143.093 53.2297 145.202 56.2421 145.527 56.9556C145.851 57.5897 145.932 58.3825 146.013 59.0959C146.5 65.7549 143.905 82.006 141.877 88.3479L141.147 56.7177L138.957 55.053Z" fill="#455A64"/>
<g opacity="0.3">
<path opacity="0.3" d="M116.077 70.2821C113.605 76.9802 111.054 83.7581 106.509 89.1803C104.276 91.8117 101.644 94.0444 99.8105 96.915C98.1359 99.4667 97.2588 102.417 95.983 105.208C94.7869 107.999 93.1124 110.71 90.481 112.305L90.6404 96.1177L99.1726 76.1828L116.077 70.2821Z" fill="black"/>
</g>
<path d="M138.245 120.757C138.245 120.757 138.245 120.598 138.245 120.279C138.245 119.96 138.325 119.481 138.405 119.003C138.564 117.886 138.724 116.292 138.963 114.218C139.361 110.232 139.92 104.65 140.159 98.5098C140.478 92.3699 140.478 86.7882 140.478 82.7215C140.478 80.728 140.398 79.0535 140.398 77.9371C140.398 77.3789 140.398 76.9802 140.398 76.6613C140.398 76.3423 140.398 76.1828 140.398 76.1828C140.398 76.1828 140.398 76.3423 140.478 76.6613C140.478 76.9802 140.558 77.4587 140.558 77.9371C140.637 79.0535 140.717 80.728 140.797 82.7215C140.956 86.7882 140.956 92.3699 140.637 98.5098C140.318 104.65 139.84 110.232 139.282 114.298C139.043 116.292 138.803 117.966 138.644 119.083C138.564 119.641 138.484 120.039 138.405 120.358C138.325 120.598 138.245 120.757 138.245 120.757Z" fill="#263238"/>
<path d="M106.511 116.807C106.511 116.807 106.916 116.886 107.484 117.203C108.214 117.521 109.106 117.917 110.161 118.313C112.432 119.265 115.514 120.533 119.083 121.643C122.652 122.832 125.897 123.704 128.249 124.259C129.385 124.497 130.277 124.734 131.088 124.893C131.737 125.052 132.143 125.131 132.143 125.21C132.143 125.21 131.737 125.21 131.088 125.052C130.439 124.972 129.466 124.734 128.249 124.497C125.816 124.021 122.571 123.149 119.002 122.039C115.433 120.85 112.351 119.582 110.08 118.551C108.944 118.075 108.052 117.6 107.484 117.283C106.835 117.045 106.511 116.807 106.511 116.807Z" fill="#263238"/>
<path d="M101.007 42.8518C103.239 41.7354 105.871 41.4165 108.343 41.8152C110.735 42.2139 113.845 43.3302 115.758 46.2008C119.347 51.4636 121.34 57.4441 118.151 66.2154C114.243 77.06 99.8106 91.4928 99.8106 91.4928L111.612 68.2886C114.004 63.6638 114.642 58.2415 113.287 53.2179C112.25 49.3107 110.017 45.7224 105.472 45.4035C102.283 44.6061 99.1727 45.8022 96.1426 48.5133C96.3818 46.8388 97.8171 44.4466 101.007 42.8518Z" fill="#455A64"/>
<path opacity="0.7" d="M122.935 89.3399C122.855 89.7386 122.616 89.9778 122.297 90.1373C120.941 90.8549 118.948 90.6954 118.709 90.7752C118.23 90.8549 119.267 91.6523 119.985 91.8118C120.782 92.051 121.42 92.1307 122.297 91.6523C122.775 91.3334 122.855 91.0144 123.493 91.0144C124.211 91.0144 123.653 92.051 122.616 92.051C122.297 92.051 121.579 92.051 121.181 92.1308C121.021 92.2105 120.941 92.2902 121.101 92.37C121.659 92.9281 122.217 93.0876 122.456 93.1674C124.609 93.4863 125.168 91.0144 125.646 89.8183C125.726 89.4994 125.806 89.1804 125.806 88.8614C126.443 85.6719 127.002 82.7215 127.48 80.6483C127.958 78.5751 128.277 77.2992 128.357 77.2992C128.437 77.2992 128.277 78.6548 127.958 80.728C127.639 82.8013 127.081 85.7516 126.523 88.9412C126.284 90.0575 126.124 91.1739 125.806 92.2105C125.806 92.2902 125.806 92.2902 125.806 92.37C126.124 93.4863 127.081 94.1242 127.799 94.3635C127.879 94.3635 127.958 94.4432 128.038 94.4432C129.314 94.6824 129.713 94.3635 130.191 93.8053C130.271 93.7255 130.191 93.5661 130.111 93.5661C129.553 93.5661 129.075 93.7255 128.437 93.0079C127.879 92.37 127.64 91.1739 128.118 91.2536C129.234 91.3334 129.633 93.0079 131.068 93.4863C131.786 93.7255 132.344 93.5661 132.902 93.0876C133.062 93.0079 133.142 92.8484 133.221 92.6889C133.46 92.2902 133.062 92.5294 132.105 92.2902C131.228 92.051 130.829 91.6523 130.43 91.0941C129.633 89.898 128.995 89.8183 129.234 89.6588C129.633 89.4196 130.67 90.3765 131.786 90.536C132.663 90.6954 133.7 90.536 134.258 89.9778C134.497 89.7386 134.577 89.4994 134.736 89.0209C134.976 88.383 134.816 87.7451 134.577 87.1072C134.497 86.9477 134.338 87.0274 134.338 87.1072C134.258 87.5059 133.859 88.1438 133.301 88.5425C132.424 89.1804 130.271 89.1007 129.713 87.9843C129.553 87.6654 129.872 87.5059 130.271 87.4261C131.467 87.2667 132.264 87.9046 134.338 86.7882C135.055 86.3895 135.613 85.8314 135.853 85.034C135.932 84.7947 136.012 84.396 136.012 84.1568C136.012 83.9973 135.773 83.9973 135.613 83.9973C135.055 84.1568 134.736 84.4758 133.939 85.034C133.46 85.3529 132.504 85.9908 131.866 86.23C131.068 86.549 130.032 85.9908 130.43 85.6719C131.308 84.9542 132.185 85.3529 133.301 84.7947C134.577 84.2366 135.773 83.1202 135.853 81.7646C135.853 81.2862 135.773 80.6483 135.773 80.1699C135.773 79.9306 135.613 79.9306 135.534 80.0104C135.374 80.1699 135.374 80.4091 133.859 81.6052C133.46 81.9241 133.142 82.3228 132.743 82.881C131.467 84.4758 129.633 84.1568 129.952 83.5189C130.59 82.1633 134.497 82.1633 134.657 78.894C134.657 78.5751 134.577 76.9803 134.258 77.379C134.178 77.4587 134.178 77.4587 134.178 77.5385C133.779 78.0169 133.859 78.0966 133.142 78.4953C131.626 79.3725 131.706 79.8509 130.829 81.1267C130.51 81.6052 129.952 81.7646 129.553 81.6849C129.155 81.6849 129.314 81.2065 129.553 80.8875C130.43 79.6117 133.301 78.9738 133.301 76.3424C133.301 75.8639 133.062 74.6678 132.743 75.1463C132.583 75.3855 132.424 76.3424 131.228 77.1398C130.829 77.379 130.51 77.5385 130.032 78.2561C129.952 78.4156 129.713 78.7346 129.553 78.6548C129.394 78.5751 129.473 78.4156 129.553 78.0169C129.633 77.6979 130.51 76.8208 130.829 76.5018C131.387 75.9437 131.786 75.545 132.025 74.7476C132.264 73.9502 131.706 73.2325 131.547 73.6312C131.387 74.1894 131.068 75.8639 129.952 76.1829C129.872 76.1829 129.792 76.1829 129.792 76.1032C129.553 75.8639 129.713 75.6247 129.872 75.3058C130.271 74.6678 130.67 74.2691 130.67 72.5149C130.67 72.3554 130.67 72.1959 130.351 72.1959C129.075 72.4351 128.198 71.9567 127.879 73.3123C127.56 74.8273 128.357 75.545 128.038 76.1829C127.958 76.2626 127.879 76.3424 127.799 76.2626C127.64 76.1829 127.56 76.1032 127.4 75.9437C126.922 75.226 126.762 74.1097 126.762 73.2325C126.762 72.5946 126.762 72.6744 126.842 72.5149C126.842 72.4351 126.922 72.4351 126.842 72.3554C126.683 72.1959 125.805 72.7541 125.646 73.7907C125.566 74.2692 125.646 75.1463 125.806 75.9437C126.045 76.7411 126.045 76.8208 126.523 77.8574C126.683 78.1764 126.683 78.8143 126.364 78.6548C125.247 78.4156 124.849 76.4221 124.53 75.3855C124.29 74.5881 124.131 74.5084 123.812 73.3123C123.812 73.2325 123.812 73.2325 123.812 73.1528C123.653 72.6744 123.174 73.8705 123.015 74.3489C122.855 74.8273 122.935 75.6247 123.094 76.1032C123.653 78.9738 125.168 79.4522 125.566 80.8875C125.646 81.047 125.566 81.2065 125.407 81.2065C125.008 81.2862 124.609 81.047 124.211 80.8078C122.377 79.5319 121.819 77.5385 121.819 75.3058C121.819 74.5881 119.825 76.2626 120.224 77.8574C120.622 79.3725 121.34 80.1699 122.855 81.7646C123.254 82.2431 123.493 82.3228 123.653 82.7215C123.732 82.881 123.732 83.0405 123.573 83.0405C122.137 82.9607 121.739 81.2065 121.021 80.2496C120.224 79.213 119.905 78.9738 119.825 78.4953C119.745 77.8574 118.948 78.7346 118.788 79.3725C118.469 80.2496 118.709 81.047 119.267 81.7646C121.26 84.3163 122.536 84.1568 122.855 84.9542C122.935 85.034 122.855 85.1137 122.775 85.1137C122.058 85.1934 121.659 84.7947 120.862 84.6353C120.702 84.5555 120.463 84.5555 120.303 84.4758C118.788 83.9176 118.071 81.047 117.592 81.6052C117.513 81.6849 117.273 82.1633 117.194 82.4026C116.795 83.4392 117.752 84.8745 118.709 85.5921C119.107 85.9111 119.586 85.9908 120.144 86.23C121.021 86.4693 120.702 86.3098 121.978 86.9477C122.297 87.1072 122.616 87.3464 122.377 87.5059C121.978 87.8248 121.659 87.9843 120.782 87.9046C120.622 87.9046 120.383 87.8248 120.224 87.7451C119.347 87.3464 118.948 86.7882 117.991 86.23C117.832 86.1503 117.592 86.0706 117.433 85.9908C117.433 85.9908 117.353 85.9908 117.273 85.9908C117.034 85.9908 117.034 86.0706 117.034 86.23C117.034 86.7085 117.273 87.3464 117.433 87.6653C117.672 88.064 117.991 88.4627 118.31 88.702C118.709 88.9412 119.107 89.1007 119.586 89.1804C119.825 89.2601 120.064 89.2601 120.303 89.2601C121.579 89.3399 123.015 88.4627 122.935 89.3399ZM128.437 87.5856C128.517 87.6654 128.676 87.8248 128.517 87.9843C128.277 88.2235 127.719 88.064 127.56 87.9046C127.161 87.5856 127.799 87.2667 128.437 87.5856ZM128.437 85.6719C128.517 85.7516 128.676 85.7516 128.756 85.8314C128.995 85.9908 129.314 86.3098 128.995 86.6287C128.437 87.1072 127.002 86.6287 127.48 85.9111C127.719 85.6719 128.118 85.6719 128.437 85.6719ZM129.075 84.2366C129.314 84.396 129.234 84.715 128.995 84.7947C128.596 84.9542 128.357 84.9542 128.038 84.8745C127.4 84.6353 128.198 83.6784 129.075 84.2366ZM129.314 82.4026C129.075 82.7215 128.676 82.881 128.277 82.8013C127.879 82.7215 128.118 82.1633 128.836 82.0836C129.075 82.0039 129.394 82.1633 129.314 82.4026ZM126.204 83.2797C124.609 83.0405 125.008 81.366 126.364 82.6418C126.443 82.7215 126.523 82.881 126.523 83.0405C126.523 83.2 126.284 83.2797 126.204 83.2797ZM124.45 84.6353C124.051 84.2366 124.37 83.7581 124.849 83.8379C125.407 83.9176 126.443 84.5555 126.124 85.034C125.726 85.5124 124.849 85.1137 124.45 84.6353ZM124.29 86.549C124.211 86.549 124.211 86.4693 124.131 86.3895C124.051 86.3098 124.051 86.23 123.971 86.1503C123.892 85.8313 124.211 85.7516 124.45 85.8314C124.928 85.9111 125.247 85.9908 125.646 86.3895C125.805 86.549 125.726 86.7882 125.566 86.868C125.247 86.9477 124.769 86.868 124.29 86.549ZM123.653 87.3464C123.812 87.2667 123.971 87.3464 124.131 87.3464C125.008 87.5059 125.168 88.0641 124.849 88.2235C124.53 88.383 123.971 88.1438 123.653 87.9046C123.413 87.7451 123.493 87.5059 123.653 87.3464Z" fill="white"/>
<path d="M111.373 95.9582C111.373 95.8785 112.09 96.5164 113.685 96.7556C114.482 96.8354 115.439 96.8354 116.476 96.5164C116.954 96.3569 117.592 96.1177 117.831 95.6393C117.911 95.4001 117.911 95.0811 117.752 94.8419C117.592 94.6027 117.273 94.6824 117.034 94.8419C116.795 95.0014 116.635 95.3203 116.556 95.6393C116.476 95.9582 116.476 96.3569 116.556 96.6759C116.715 97.3935 117.114 98.1112 117.672 98.5896C118.23 99.0681 119.107 99.3073 119.905 99.3073C120.702 99.2276 121.579 98.8289 122.058 98.1112C122.297 97.7922 122.456 97.3138 122.297 96.9151C122.217 96.5164 121.898 96.1177 121.499 96.038C121.101 95.8785 120.702 96.038 120.463 96.4367C120.224 96.8354 120.144 97.3138 120.224 97.7922C120.543 99.6263 122.137 101.54 124.211 101.54C125.167 101.54 126.204 100.982 126.762 100.184C127.081 99.7857 127.241 99.3073 127.241 98.8288C127.241 98.3504 127.161 97.872 126.842 97.553C126.523 97.2341 126.124 97.2341 125.885 97.553C125.646 97.872 125.566 98.3504 125.566 98.8288C125.486 99.7857 125.726 100.663 126.124 101.46C127.001 103.055 128.995 103.613 130.43 102.896C131.866 102.178 132.264 100.264 131.467 99.2275C131.148 98.6694 130.43 98.3504 129.872 98.5099C129.314 98.5896 129.075 99.2276 129.075 99.7857C129.075 100.344 129.234 100.822 129.473 101.221C129.713 101.62 129.952 102.018 130.191 102.258C131.228 103.454 132.105 103.693 132.105 103.693C132.105 103.693 132.025 103.693 131.945 103.613C131.866 103.613 131.706 103.533 131.547 103.454C131.148 103.294 130.669 102.896 130.111 102.337C129.872 102.018 129.553 101.699 129.314 101.221C129.075 100.822 128.915 100.264 128.835 99.706C128.835 99.387 128.915 99.0681 128.995 98.8288C129.154 98.5099 129.473 98.2707 129.792 98.1909C130.51 98.0315 131.228 98.4302 131.626 99.0681C132.503 100.264 132.105 102.417 130.43 103.215C128.835 104.012 126.603 103.374 125.646 101.62C125.167 100.822 124.928 99.7857 125.008 98.7491C125.008 98.2707 125.088 97.7125 125.407 97.2341C125.566 96.9948 125.885 96.7556 126.204 96.7556C126.523 96.7556 126.842 96.9151 127.001 97.1543C127.799 98.0315 127.56 99.387 126.922 100.264C126.284 101.141 125.247 101.779 124.051 101.779C122.935 101.779 121.818 101.221 121.101 100.424C120.383 99.6262 119.825 98.6694 119.665 97.6328C119.586 97.0746 119.665 96.5164 119.984 96.038C120.303 95.5595 120.941 95.3203 121.499 95.4798C122.058 95.719 122.377 96.1177 122.536 96.6759C122.616 97.2341 122.456 97.7125 122.217 98.1909C121.659 98.9883 120.702 99.4668 119.745 99.4668C118.788 99.5465 117.911 99.2275 117.273 98.6694C116.635 98.1112 116.157 97.3138 116.077 96.5164C115.997 96.1177 115.997 95.719 116.077 95.3203C116.157 94.9216 116.396 94.6027 116.715 94.3635C116.875 94.204 117.034 94.1242 117.273 94.1242C117.512 94.1242 117.672 94.204 117.831 94.3635C118.071 94.6824 118.071 95.0811 117.911 95.4001C117.512 96.038 116.875 96.1975 116.396 96.4367C115.28 96.7556 114.323 96.7556 113.526 96.5962C112.728 96.4367 112.17 96.1975 111.771 96.038C111.532 96.1177 111.373 95.9582 111.373 95.9582Z" fill="white"/>
<path d="M106.998 70.4321C106.754 70.987 88.9091 104.282 88.9091 104.282L84.2045 152.797L73.4975 151.45C73.4975 151.45 70.0096 107.77 72.3619 101.111C74.7142 94.452 86.5568 64.6451 86.5568 64.6451C86.5568 64.6451 96.8583 43.3997 103.753 45.5401C110.648 47.6013 113.081 56.6384 106.998 70.4321Z" fill="#FFBE9D"/>
<path d="M108.376 45.778C108.376 45.778 113.973 51.8028 114.135 58.5411C114.298 65.2793 100.021 91.2018 100.021 91.2018L76.6606 78.9144C76.6606 78.9937 95.3169 36.5823 108.376 45.778Z" fill="#4A9FD3"/>
<path d="M84.3666 151.925L87.0434 163.499L85.0156 173.805C85.0156 173.805 82.0143 173.884 82.6632 171.744C82.6632 171.744 81.1221 172.854 80.3109 172.299C79.4998 171.665 79.2564 170.634 79.2564 170.634C79.2564 170.634 78.2831 172.061 76.9853 171.268C75.7685 170.396 75.8497 169.841 75.8497 169.524C75.8497 169.286 74.8763 169.524 74.0651 168.89C73.254 168.256 73.5785 167.305 73.5785 167.305C73.5785 167.305 71.9562 167.146 71.6317 166.591C71.3073 166.036 71.2262 164.926 71.2262 164.926C71.2262 164.926 71.0639 162.152 71.5506 161.835C71.9562 161.518 72.7673 161.755 72.7673 161.755L72.9296 159.774C72.9296 159.774 72.1184 156.682 72.3617 155.493C72.524 154.304 74.1463 149.309 74.1463 149.309L84.3666 151.925Z" fill="#FFBE9D"/>
<path d="M84.5526 170.148C85.6144 169.021 86.3951 168.035 86.2962 167.946C86.1973 167.857 85.2563 168.699 84.1945 169.826C83.1327 170.954 82.3521 171.94 82.451 172.029C82.5499 172.118 83.4908 171.276 84.5526 170.148Z" fill="#5846DE"/>
<path d="M83.0688 166.353C82.9066 166.274 82.0954 167.384 80.9598 168.652C79.8242 169.921 78.6886 170.793 78.7697 170.951C78.8508 171.03 80.1487 170.317 81.3654 169.049C82.5821 167.701 83.231 166.433 83.0688 166.353Z" fill="#5846DE"/>
<path d="M79.8242 165.878C79.6619 165.798 78.8508 166.75 77.7152 167.78C76.5796 168.89 75.6062 169.683 75.6873 169.841C75.7685 169.921 76.9041 169.286 78.0397 168.177C79.2564 167.067 79.9053 165.957 79.8242 165.878Z" fill="#5846DE"/>
<path d="M77.5527 163.499C77.3904 163.42 76.5793 164.371 75.4437 165.402C74.3081 166.512 73.3348 167.304 73.4159 167.463C73.497 167.542 74.6326 166.908 75.7682 165.798C76.9849 164.688 77.7149 163.579 77.5527 163.499Z" fill="#5846DE"/>
<path d="M73.0917 164.926C73.2539 164.926 73.4161 164.134 73.2539 163.103C73.1728 162.072 72.7672 161.359 72.6861 161.438C72.5239 161.517 72.605 162.231 72.7672 163.182C72.8483 164.213 72.9294 164.926 73.0917 164.926Z" fill="#5846DE"/>
<path d="M112.212 66.1989C112.212 66.1989 112.132 66.3584 111.973 66.6774C111.813 67.0761 111.574 67.5545 111.335 68.1127C110.697 69.3885 109.82 71.1428 108.783 73.3755C106.55 77.8409 103.52 83.9011 100.171 90.5992C100.012 90.9181 99.8522 91.3168 99.6928 91.6358L99.613 91.7953L99.4535 91.7155C93.0744 88.2867 87.4129 85.1769 83.1867 82.9442C81.1932 81.8278 79.5187 80.9507 78.3226 80.2331C77.7644 79.9141 77.3657 79.6749 77.0468 79.5154C76.7278 79.3559 76.5684 79.2762 76.5684 79.1964C76.5684 79.1964 76.7278 79.2762 77.0468 79.4357C77.3657 79.5951 77.8442 79.8344 78.4024 80.1533C79.5984 80.7912 81.273 81.6684 83.3462 82.705C87.5724 84.9377 93.2339 87.9678 99.613 91.3966L99.2941 91.4763C99.4535 91.1573 99.613 90.8384 99.7725 90.4397C103.122 83.7416 106.231 77.7611 108.464 73.2957C109.58 71.1428 110.458 69.3885 111.175 68.1127C111.494 67.5545 111.733 67.0761 111.893 66.6774C112.132 66.3584 112.212 66.1989 112.212 66.1989Z" fill="#263238"/>
<path d="M72.9301 159.773L67.0087 157.237C66.1976 156.92 65.3053 157.237 64.9809 157.95C64.5753 158.743 64.9809 159.694 65.792 160.011L73.4168 163.262L72.9301 159.773Z" fill="#263238"/>
</svg>
