<svg width="10" height="13" viewBox="0 0 10 13" fill="none" xmlns="http://www.w3.org/2000/svg">
<path d="M9.29099 5.2497H9.03699V4.06465C9.03699 1.87146 7.29599 0.0399613 5.11899 0.00099352C5.05899 -5.65269e-06 4.94101 -5.65269e-06 4.88101 0.00099352C2.70401 0.0399613 0.963013 1.87146 0.963013 4.06465V5.2497H0.709015C0.319015 5.2497 0 5.65237 0 6.14996V12.096C0 12.5936 0.319015 13.0002 0.709015 13.0002H9.29099C9.68099 13.0002 10 12.5936 10 12.096V6.14996C10 5.65237 9.68099 5.2497 9.29099 5.2497ZM5.80399 9.11747V10.914C5.80399 11.1198 5.63199 11.2936 5.42499 11.2936H4.57501C4.36801 11.2936 4.19601 11.1198 4.19601 10.914V9.11747C3.99601 8.92063 3.88 8.64884 3.88 8.34809C3.88 7.77856 4.32101 7.28896 4.88101 7.26598C4.94101 7.26398 5.05999 7.26398 5.11899 7.26598C5.67899 7.28896 6.12 7.77856 6.12 8.34809C6.12 8.64884 6.00399 8.92063 5.80399 9.11747ZM7.366 5.2497H5.11899H4.88101H2.634V4.06465C2.634 2.75773 3.696 1.67862 5 1.67862C6.304 1.67862 7.366 2.75773 7.366 4.06465V5.2497Z" fill="#009DFF"/>
</svg>
