<svg width="30" height="20" viewBox="0 0 30 20" fill="none" xmlns="http://www.w3.org/2000/svg">
<path fill-rule="evenodd" clip-rule="evenodd" d="M3.02439 12.6341C2.73171 12.8293 2.63415 13.2195 2.73171 13.5122C2.82927 13.8049 3.21951 14 3.60976 13.9024L13.4634 10.5854L11.6098 13.6098C11.4146 13.8049 11.5122 14.0976 11.7073 14.2927C11.8049 14.4878 12.0976 14.5854 12.3902 14.3902L14.2439 13.4146C14.3415 13.4146 14.3415 13.4146 14.439 13.3171L20.0976 7.36585L27.2195 3.65854C29.8537 2.19512 29.561 1.12195 29.3659 0.829268C29.2683 0.634146 28.9756 0.243902 28.3902 0.146341C27.8049 -0.0487805 26.9268 -0.0487805 25.8537 0.146341C25.4634 0.243902 25.2683 0.243902 25.0732 0.243902C24.2927 0.146341 23.8049 0.243902 21.2683 1.5122L7.31707 8.73171L1.95122 6C1.7561 5.90244 1.46341 5.90244 1.26829 6L0.390244 6.4878C0.195122 6.58537 0.097561 6.68293 0 6.97561C0 7.17073 0 7.36585 0.195122 7.56098L3.90244 12.1463L3.02439 12.6341ZM28.6829 16.7317H2.34146C0.585366 16.7317 0.585366 19.3659 2.34146 19.3659H28.6829C30.439 19.3659 30.439 16.7317 28.6829 16.7317Z" fill="#9E2DFF"/>
</svg>
