<svg width="13" height="12" viewBox="0 0 13 12" fill="none" xmlns="http://www.w3.org/2000/svg">
<path d="M4.12985 3.57373L0.566309 4.08845L0.491178 4.10351C0.00527207 4.22905 -0.173196 4.84633 0.200214 5.20796L2.77822 7.70471L2.17004 11.2313L2.16145 11.3035C2.12882 11.8032 2.66594 12.1648 3.12855 11.9231L6.31578 10.2585L9.50301 11.9231L9.56954 11.9536C10.0378 12.1389 10.5499 11.743 10.4615 11.2313L9.85264 7.70471L12.4313 5.20796L12.4833 5.15189C12.8021 4.76656 12.5813 4.16295 12.0652 4.08845L8.50105 3.57373L6.90815 0.365863C6.66583 -0.121954 5.96572 -0.121954 5.7234 0.365863L4.12985 3.57373Z" fill="#F88C4B"/>
</svg>
