<svg width="22" height="31" viewBox="0 0 22 31" fill="none" xmlns="http://www.w3.org/2000/svg">
<path fill-rule="evenodd" clip-rule="evenodd" d="M6.2199 0H15.7801C19.2356 0 22 2.74869 22 6.15707V17.9215C22 20.6702 20.2723 22.9791 17.7382 23.8586L20.1571 30.0157H18.4293L17.2775 27.0471H4.8377L3.68586 30.0157H1.84293L4.26178 23.8586C1.72775 22.9791 0 20.6702 0 17.9215V6.15707C0 2.74869 2.7644 0 6.2199 0ZM16.5864 25.5079L16.1257 24.1885H5.87435L5.41361 25.5079H16.5864ZM17.2775 17.3717C16.4712 17.3717 15.8953 18.0314 15.8953 18.801C15.8953 19.5707 16.4712 20.1204 17.2775 20.1204C17.9686 20.1204 18.6597 19.5707 18.6597 18.801C18.6597 18.0314 17.9686 17.3717 17.2775 17.3717ZM4.72251 17.3717C5.5288 17.3717 6.10471 18.0314 6.10471 18.801C6.10471 19.5707 5.5288 20.1204 4.72251 20.1204C4.03141 20.1204 3.34031 19.5707 3.34031 18.801C3.34031 18.0314 4.03141 17.3717 4.72251 17.3717ZM4.8377 3.07853H17.1623C18.5445 3.07853 19.5812 4.17801 19.5812 5.49738V9.34555C19.5812 10.6649 18.5445 11.7644 17.1623 11.7644H4.8377C3.4555 11.7644 2.41885 10.6649 2.41885 9.34555V5.49738C2.41885 4.17801 3.4555 3.07853 4.8377 3.07853Z" fill="#9E2DFF"/>
</svg>
