<svg width="13" height="14" viewBox="0 0 13 14" fill="none" xmlns="http://www.w3.org/2000/svg">
<path d="M12.9719 10.4525C12.8729 10.2317 12.7419 10.026 12.5939 9.83382C11.8359 8.8334 10.6669 8.17097 9.34996 8.00915C9.18496 7.99396 9.00399 8.02345 8.872 8.11196C8.18101 8.56791 7.35698 8.80392 6.501 8.80392C5.64501 8.80392 4.82105 8.56791 4.13006 8.11196C3.99806 8.02345 3.81703 7.97965 3.65204 8.00915C2.33506 8.17097 1.15009 8.8334 0.409102 9.83382C0.260104 10.026 0.129138 10.2469 0.0301398 10.4525C-0.0198595 10.541 -0.00286857 10.6438 0.0461307 10.7323C0.178129 10.9379 0.343134 11.1445 0.491132 11.3215C0.721129 11.6004 0.968083 11.8508 1.24808 12.0868C1.47908 12.2924 1.74207 12.4837 2.00606 12.6751C3.30705 13.5441 4.87103 14 6.48501 14C8.09798 14 9.66299 13.5441 10.963 12.6751C11.227 12.4989 11.49 12.2924 11.721 12.0868C11.984 11.8508 12.248 11.6004 12.478 11.3215C12.643 11.1293 12.7909 10.9379 12.9229 10.7323C13.0049 10.6438 13.0219 10.541 12.9719 10.4525Z" fill="#009DFF"/>
<path d="M6.5 0C4.57412 0 3 1.57412 3 3.5C3 5.42588 4.57412 7 6.5 7C8.42588 7 10 5.42588 10 3.5C10 1.57412 8.42588 0 6.5 0Z" fill="#009DFF"/>
</svg>
