<svg width="160" height="160" viewBox="0 0 160 160" fill="none" xmlns="http://www.w3.org/2000/svg">
<path d="M80 0C35.89 0 0 35.886 0 80C0 124.114 35.89 160 80 160C124.11 160 160 124.114 160 80C160 35.886 124.11 0 80 0Z" fill="#009DFF" fill-opacity="0.18"/>
<path d="M121.034 63.2477L77.3269 106.068C76.0159 107.353 74.3015 108 72.5771 108C70.8526 108 69.1383 107.353 67.8273 106.068L45.9741 84.6579C43.342 82.0827 43.342 77.9184 45.9741 75.3431C48.6061 72.7659 52.8517 72.7659 55.4837 75.3431L72.5771 92.096L111.524 53.9329C114.156 51.3557 118.401 51.3557 121.034 53.9329C123.655 56.5081 123.655 60.6704 121.034 63.2477Z" fill="#009DFF"/>
</svg>
